<svg width="469" height="390" fill="none" xmlns="http://www.w3.org/2000/svg"><path d="M68.684 353.504c91.584 47.841 240.059 47.841 331.632 0 91.573-47.842 91.584-125.413 0-173.254-91.584-47.842-240.059-47.842-331.632 0-91.573 47.841-91.584 125.412 0 173.254z" fill="#F0F0F0"/><path d="M419.718 259.81s1.159-5.771 10.46-10.23c9.061-4.372 14.286-3.356 20.505-5.859 6.22-2.503 1.76-14.209-15.302-9.028-15.619 4.776-17.215 18.297-17.215 18.297l1.552 6.82z" fill="#1E959B"/><path opacity=".2" d="M419.718 259.81s1.159-5.771 10.46-10.23c9.061-4.372 14.286-3.356 20.505-5.859 6.22-2.503 1.76-14.209-15.302-9.028-15.619 4.776-17.215 18.297-17.215 18.297l1.552 6.82z" fill="#000"/><path d="M418.154 257.646a.592.592 0 01-.197 0 .61.61 0 01-.371-.754c2.186-6.263 7.651-12.023 14.788-15.554 9.138-4.47 15.641-3.038 15.915-2.983a.61.61 0 01.448.721.59.59 0 01-.711.437c-.065 0-6.405-1.377-15.127 2.897-6.831 3.344-12.133 8.897-14.209 14.865a.57.57 0 01-.536.371z" fill="#FAFAFA"/><path d="M418.428 252.564s1.093-3.279 5.301-9.684c7.258-11.138 19.095-15.991 24.265-22.353 5.586-6.864-4.066-11.105-12.722-8.744-4.963 1.377-9.488 5.902-11.86 8.963a40.817 40.817 0 00-8.252 22.953l3.268 8.865z" fill="#F05670"/><path d="M416.788 252.881a.6.6 0 01-.579-.612 50.278 50.278 0 016.012-20.593c6.558-11.783 16.297-15.969 16.701-16.133a.576.576 0 01.649.122.587.587 0 01.127.195.591.591 0 01-.317.776 37.577 37.577 0 00-16.122 15.619 48.971 48.971 0 00-5.859 20.046.577.577 0 01-.184.418.592.592 0 01-.428.162z" fill="#FAFAFA"/><path d="M98.972 262.477c-7.859-5.29-8.209-19.499-7.072-28.418 1.814-14.209-5.465-17.488-9.17-11.215a34.762 34.762 0 00-3.782 17.39c.404 12.089 5.64 26.55 18.319 31.796l1.705-9.553z" fill="#1E959B"/><path opacity=".2" d="M98.972 262.477c-7.859-5.29-8.209-19.499-7.072-28.418 1.814-14.209-5.465-17.488-9.17-11.215a34.762 34.762 0 00-3.782 17.39c.404 12.089 5.64 26.55 18.319 31.796l1.705-9.553z" fill="#000"/><path d="M97.353 271.189a.572.572 0 01-.36-.131c-13.303-11.379-15.38-31.698-11.685-45.787a.562.562 0 011.093.273c-3.618 13.761-1.607 33.611 11.335 44.683a.558.558 0 01.065.776.567.567 0 01-.448.186z" fill="#FAFAFA"/><path d="M110.777 288.644c-6.843 4.919-22.56 9.171-27.676.743-4.765-7.826-1.573-11.258-11.236-9.902-9.662 1.355-11.859-6.143-9.564-12.439 2.296-6.296-7.225-15.51-.284-22.658 6.94-7.148 10.93 7.717 14.964 9.334 4.033 1.618 6.47-1.858 11.116.667 4.645 2.525 5.071 12.843 9.585 13.051 7.4.328 19.839.284 20.768 6.875.929 6.591-7.673 14.329-7.673 14.329z" fill="#F05670"/><path d="M113.672 285.813h-.065c-35.797-3.738-49.645-34.976-50.498-39.523a.546.546 0 01.849-.547c.12.082.204.207.233.35.831 4.47 14.395 34.977 49.536 38.638a.547.547 0 01.306.945.535.535 0 01-.361.137z" fill="#FAFAFA"/><path d="M74.466 271.812a42.768 42.768 0 01-6.733-.536.546.546 0 01-.36-.226.553.553 0 01.546-.867c4.086.668 8.254.668 12.34 0a.542.542 0 01.41.072.526.526 0 01.235.343.55.55 0 01-.22.57.545.545 0 01-.196.086 30.205 30.205 0 01-6.022.558zm10.69 3.279h-.131a.544.544 0 01-.411-.435.534.534 0 01.007-.21 44.037 44.037 0 00.776-14.843.553.553 0 011.093-.175 44.124 44.124 0 01-.787 15.302.546.546 0 01-.547.361z" fill="#FAFAFA"/><path d="M18.165 232.321l17.15-9.903a5.862 5.862 0 015.323 0l2.186 1.246a5.903 5.903 0 012.656 4.613v19.838a5.89 5.89 0 01-2.656 4.613l-17.16 9.902a5.85 5.85 0 01-5.324 0l-2.186-1.246a5.89 5.89 0 01-2.667-4.612v-19.838a5.86 5.86 0 012.678-4.613z" fill="#1E959B"/><path opacity=".5" d="M18.165 232.321l17.15-9.903a5.862 5.862 0 015.323 0l2.186 1.246a5.903 5.903 0 012.656 4.613v19.838a5.89 5.89 0 01-2.656 4.613l-17.16 9.902a5.85 5.85 0 01-5.324 0l-2.186-1.246a5.89 5.89 0 01-2.667-4.612v-19.838a5.86 5.86 0 012.678-4.613z" fill="#FAFAFA"/><path d="M45.468 228.277c0-1.694-1.191-2.383-2.656-1.53l-17.16 9.891a5.907 5.907 0 00-2.7 4.613v19.805c0 1.705 1.191 2.394 2.656 1.542l17.16-9.903a5.902 5.902 0 002.7-4.58v-19.838z" fill="#1E959B"/><path d="M15.498 256.739a5.89 5.89 0 002.667 4.613l2.186 1.246a6.013 6.013 0 004.875.218c-1.257.47-2.186-.24-2.186-1.76v-19.805a5.46 5.46 0 01.776-2.623l-7.487-4.318a5.47 5.47 0 00-.787 2.624l-.044 19.805z" fill="#1E959B"/><path opacity=".1" d="M15.498 256.739a5.89 5.89 0 002.667 4.613l2.186 1.246a6.013 6.013 0 004.875.218c-1.257.47-2.186-.24-2.186-1.76v-19.805a5.46 5.46 0 01.776-2.623l-7.487-4.318a5.47 5.47 0 00-.787 2.624l-.044 19.805z" fill="#000"/><path d="M26.974 242.65l14.56-8.493c.393-.229.71 0 .71.405v9.902a1.566 1.566 0 01-.71 1.225l-14.581 8.46c-.394.229-.71 0-.71-.405v-9.903a1.549 1.549 0 01.732-1.191z" fill="#FAFAFA"/><path d="M26.264 243.022l8.711 2.831 7.29-12.111-7.05 13.127-8.951-3.847z" fill="#E0E0E0"/><path d="M18.165 182.326l17.15-9.902a5.915 5.915 0 015.323 0l2.186 1.257a5.89 5.89 0 012.656 4.612v19.806a5.898 5.898 0 01-2.656 4.612l-17.16 9.903a5.927 5.927 0 01-5.324 0l-2.186-1.257a5.855 5.855 0 01-2.667-4.613v-19.838a5.891 5.891 0 012.678-4.58z" fill="#F05670"/><path opacity=".5" d="M18.165 182.326l17.15-9.902a5.915 5.915 0 015.323 0l2.186 1.257a5.89 5.89 0 012.656 4.612v19.806a5.898 5.898 0 01-2.656 4.612l-17.16 9.903a5.927 5.927 0 01-5.324 0l-2.186-1.257a5.855 5.855 0 01-2.667-4.613v-19.838a5.891 5.891 0 012.678-4.58z" fill="#FAFAFA"/><path d="M45.468 178.293c0-1.705-1.191-2.394-2.656-1.541l-17.16 9.903a5.895 5.895 0 00-2.7 4.623v19.806c0 1.694 1.191 2.382 2.656 1.541l17.16-9.903a5.902 5.902 0 002.657-4.612l.043-19.817z" fill="#F05670"/><path d="M15.498 206.744a5.855 5.855 0 002.667 4.613l2.186 1.257a5.957 5.957 0 004.875.208c-1.257.48-2.186-.23-2.186-1.749v-19.795a5.46 5.46 0 01.776-2.623l-7.487-4.372a5.463 5.463 0 00-.787 2.623l-.044 19.838z" fill="#F05670"/><path opacity=".1" d="M15.498 206.744a5.855 5.855 0 002.667 4.613l2.186 1.257a5.957 5.957 0 004.875.208c-1.257.48-2.186-.23-2.186-1.749v-19.795a5.46 5.46 0 01.776-2.623l-7.487-4.372a5.463 5.463 0 00-.787 2.623l-.044 19.838z" fill="#000"/><path d="M34.068 202.285l-1.825-.142c-2.405-.197-5.268-1.148-5.268-4.58a8.028 8.028 0 013.628-6.285c1.563-.907 2.908-.535 3.422.776a8.151 8.151 0 013.42-4.732c2.023-1.159 3.651-.219 3.651 2.109 0 3.367-2.852 7.651-5.235 10.624l-1.793 2.23z" fill="#FAFAFA"/><path d="M18.165 132.354l17.15-9.936a5.927 5.927 0 015.323 0l2.186 1.257a5.865 5.865 0 012.656 4.613v19.805a5.902 5.902 0 01-2.656 4.613l-17.16 9.902a5.915 5.915 0 01-5.324 0l-2.186-1.257a5.866 5.866 0 01-2.667-4.612v-19.773a5.888 5.888 0 012.678-4.612z" fill="#1E959B"/><path opacity=".5" d="M18.165 132.354l17.15-9.936a5.927 5.927 0 015.323 0l2.186 1.257a5.865 5.865 0 012.656 4.613v19.805a5.902 5.902 0 01-2.656 4.613l-17.16 9.902a5.915 5.915 0 01-5.324 0l-2.186-1.257a5.866 5.866 0 01-2.667-4.612v-19.773a5.888 5.888 0 012.678-4.612z" fill="#FAFAFA"/><path d="M25.652 162.641c-1.465.842-2.656.153-2.656-1.541v-19.806a5.898 5.898 0 012.656-4.612l17.16-9.892c1.465-.852 2.657-.164 2.657 1.541v19.806a5.9 5.9 0 01-2.657 4.612" fill="#1E959B"/><path d="M15.498 156.772a5.873 5.873 0 002.667 4.612l2.186 1.257a5.957 5.957 0 004.875.208c-1.257.481-2.186-.23-2.186-1.749v-19.805a5.464 5.464 0 01.776-2.624l-7.487-4.372a5.466 5.466 0 00-.787 2.623l-.044 19.85z" fill="#1E959B"/><path opacity=".1" d="M15.498 156.772a5.873 5.873 0 002.667 4.612l2.186 1.257a5.957 5.957 0 004.875.208c-1.257.481-2.186-.23-2.186-1.749v-19.805a5.464 5.464 0 01.776-2.624l-7.487-4.372a5.466 5.466 0 00-.787 2.623l-.044 19.85z" fill="#000"/><path d="M31.106 144.453s2-4.612 2.186-5.279a20.014 20.014 0 000-3.443c0-.437 1.826-1.672 2.405-.404a6.555 6.555 0 01.317 4.262l4.427-2.59c.94-.546 1.333.23 1.333.831a3.277 3.277 0 01-.71 1.923s.885-.273.896.919a3.129 3.129 0 01-1.093 2.186s.295.218.295 1.093a3.465 3.465 0 01-1.246 2.186c.146.345.217.718.208 1.093a3.428 3.428 0 01-1.618 2.514l-7.367 4.284-.033-9.575zm-4.219 13.357l3.202-1.869-.043-11.149-3.214 1.869.055 11.149z" fill="#FAFAFA"/><path d="M8.743 73.866l26.32-15.182a9.029 9.029 0 018.164 0l3.28 1.913a9.05 9.05 0 014.077 7.072v30.364a9.03 9.03 0 01-4.077 7.072l-26.255 15.182a9.034 9.034 0 01-8.164 0l-3.28-1.924a9.028 9.028 0 01-4.077-7.072V80.883a9.007 9.007 0 014.012-7.017z" fill="#1E959B"/><path opacity=".1" d="M8.743 73.866l26.32-15.182a9.029 9.029 0 018.164 0l3.28 1.913a9.05 9.05 0 014.077 7.072v30.364a9.03 9.03 0 01-4.077 7.072l-26.255 15.182a9.034 9.034 0 01-8.164 0l-3.28-1.924a9.028 9.028 0 01-4.077-7.072V80.883a9.007 9.007 0 014.012-7.017z" fill="#000"/><path d="M50.628 67.483c0-1.52-.744-5.29-4.635-2.907-3.89 2.382-23.04 13.236-25.708 14.81a9.378 9.378 0 00-4.11 4.514l2.079 2.1 32.375-18.516z" fill="#1E959B"/><path opacity=".2" d="M50.628 67.483c0-1.52-.744-5.29-4.635-2.907-3.89 2.382-23.04 13.236-25.708 14.81a9.378 9.378 0 00-4.11 4.514l2.079 2.1 32.375-18.516z" fill="#000"/><path d="M20.253 120.287c-2.252 1.3-4.077.24-4.077-2.361V87.562a9.05 9.05 0 014.077-7.072L46.55 65.319c2.251-1.312 4.077-.251 4.077 2.35v30.364a9.03 9.03 0 01-4.077 7.072" fill="#1E959B"/><path opacity=".1" d="M20.253 120.287c-2.252 1.3-4.077.24-4.077-2.361V87.562a9.05 9.05 0 014.077-7.072L46.55 65.319c2.251-1.312 4.077-.251 4.077 2.35v30.364a9.03 9.03 0 01-4.077 7.072" fill="#000"/><path d="M4.688 111.291a9.032 9.032 0 004.056 7.072l3.279 1.924a9.156 9.156 0 007.465.328c-1.913.721-3.378-.361-3.378-2.689V87.562a8.402 8.402 0 011.192-4.022L5.88 76.916a8.328 8.328 0 00-1.192 3.967v30.408z" fill="#1E959B"/><path opacity=".2" d="M4.688 111.291a9.032 9.032 0 004.056 7.072l3.279 1.924a9.156 9.156 0 007.465.328c-1.913.721-3.378-.361-3.378-2.689V87.562a8.402 8.402 0 011.192-4.022L5.88 76.916a8.328 8.328 0 00-1.192 3.967v30.408z" fill="#000"/><path d="M34.188 76.949l3.41 6.011 7.652-3.126c.721-.295 1.005.569.48 1.454l-5.464 9.4 1.267 8.034c.099.743-.655 1.836-1.3 1.836l-6.832-.208-6.831 8.088c-.645.766-1.4.569-1.268-.327l1.3-9.532-5.519-3.027c-.525-.284-.24-1.476.481-2.011l7.651-5.695 3.41-9.957c.306-.973 1.257-1.509 1.563-.94z" fill="#FAFAFA"/><path d="M403.869 215.653c-13.116 6.241-34.31 6.241-47.404 0-13.095-6.242-13.117-16.396 0-22.593 13.116-6.198 34.32-6.241 47.404 0 13.083 6.241 13.094 16.362 0 22.593z" fill="#E0E0E0"/><path d="M105.748 288.109a10.112 10.112 0 004.733 7.858l132.605 76.566a10.459 10.459 0 009.465 0l181.441-104.754a8.903 8.903 0 004.736-7.865 8.903 8.903 0 00-4.736-7.864l-132.616-76.511a10.46 10.46 0 00-9.465 0L110.47 280.294a10.106 10.106 0 00-4.722 7.815z" fill="#37474F"/><path d="M160.454 251.394L110.47 280.25a8.891 8.891 0 00-4.726 7.859 8.896 8.896 0 004.726 7.858l132.616 76.566a9.675 9.675 0 004.733 1.093V251.394h-87.365z" fill="#263238"/><path d="M101.3 280.425a10.18 10.18 0 01-4.438-8.034V114.144a10.475 10.475 0 014.788-8.198L283.091 1.181a10.131 10.131 0 019.17-.164 10.14 10.14 0 014.438 8.022v158.258a10.473 10.473 0 01-4.733 8.198L110.525 280.25a10.161 10.161 0 01-9.225.175z" fill="#455A64"/><path d="M119.062 121.489l-20.768-12.023a9.738 9.738 0 00-1.388 4.667v158.258a10.182 10.182 0 004.438 8.034 10.162 10.162 0 009.17-.175l20.647-11.947-12.099-146.814z" fill="#263238"/><path d="M105.736 119.27v158.247c0 3.017 2.121 4.241 4.733 2.733L291.91 175.495a10.484 10.484 0 003.346-3.533 10.484 10.484 0 001.387-4.665V9.039c0-3.016-2.121-4.24-4.733-2.732L110.469 111.073a10.465 10.465 0 00-4.733 8.197z" fill="#37474F"/><path d="M110.47 285.715l132.616 76.566a10.46 10.46 0 009.465 0l181.441-104.766c2.612-1.508 2.612-3.946 0-5.465l-132.616-76.511a10.459 10.459 0 00-9.465 0L110.47 280.294c-2.612 1.464-2.612 3.891 0 5.421z" fill="#455A64"/><path d="M113.016 119.85L289.375 18.035c1.574-.907 2.842-.175 2.842 1.64v136.987a6.265 6.265 0 01-2.842 4.919L113.016 263.417c-1.563.908-2.83.175-2.83-1.639v-137.01a6.29 6.29 0 012.83-4.918z" fill="#FAFAFA"/><path d="M125.87 281.616l168.423-97.278a5.23 5.23 0 014.733 0l8.613 4.973a1.442 1.442 0 010 2.732l-168.445 97.268a5.232 5.232 0 01-4.733 0l-8.591-4.962a1.439 1.439 0 01-.979-1.367 1.44 1.44 0 01.979-1.366zm22.2 12.821l168.423-97.278a5.23 5.23 0 014.732 0l52.99 30.604a1.448 1.448 0 01.979 1.366 1.44 1.44 0 01-.979 1.367l-168.237 97.125a5.208 5.208 0 01-4.733 0l-53.175-30.473a1.437 1.437 0 01-.97-1.356 1.432 1.432 0 01.97-1.355z" fill="#263238"/><path d="M299.049 240.945l5.268-3.039c.229-.131.208-.349 0-.492l-6.132-3.508a.921.921 0 00-.831 0l-5.279 3.049c-.219.132-.208.35 0 .481l6.099 3.52a.917.917 0 00.875-.011zm-10.406-12.1l-5.279 3.05c-.219.131-.208.35 0 .481l6.099 3.519a.918.918 0 00.841 0l5.269-3.049c.229-.121.218-.339 0-.481l-6.088-3.52a.92.92 0 00-.842 0zm-17.04 9.837l-8.93 5.159c-.219.121-.208.339 0 .481l6.099 3.52a.96.96 0 00.842 0l8.919-5.159c.229-.131.218-.339 0-.481l-6.099-3.52a.923.923 0 00-.831 0zm9.323-5.388l-5.268 3.049c-.219.131-.208.35 0 .481l6.099 3.52a.918.918 0 00.842 0l5.268-3.05c.23-.12.208-.339 0-.481l-6.099-3.519a.916.916 0 00-.864 0h.022zm-20.68 11.946l-5.279 3.05c-.218.131-.208.339 0 .481l6.099 3.519a.91.91 0 00.842 0l5.268-3.049c.23-.131.219-.339 0-.481l-6.099-3.52a.922.922 0 00-.831 0zm-7.651 4.449l-5.279 3.05c-.219.131-.208.338 0 .481l6.099 3.519a.918.918 0 00.842 0l5.268-3.049c.23-.132.208-.339 0-.481l-6.099-3.52a.916.916 0 00-.885 0h.054zm23.937 14.319l5.269-3.05c.229-.12.218-.339 0-.481l-6.099-3.519a.92.92 0 00-.842 0l-5.279 3.049c-.219.131-.208.35 0 .481l6.099 3.52a.916.916 0 00.852 0zm-7.705 4.448l5.268-3.049c.23-.121.219-.339 0-.481l-6.099-3.52a.96.96 0 00-.842 0l-5.279 3.05c-.219.131-.208.349 0 .481l6.099 3.519a.918.918 0 00.842 0h.011zm-7.706 4.449l5.268-3.039c.23-.131.208-.35 0-.492l-6.099-3.519a.918.918 0 00-.841 0l-5.313 3.027c-.218.132-.207.35 0 .492l6.1 3.52a.957.957 0 00.874.011h.011zm-7.651 4.448l5.268-3.038c.23-.131.208-.35 0-.492l-6.088-3.52a.96.96 0 00-.842 0l-5.279 3.039c-.219.131-.208.35 0 .492l6.099 3.519a.943.943 0 00.776 0h.066zm37.938-31.959l5.269-3.039c.218-.131.207-.35 0-.492l-6.099-3.519a.947.947 0 00-.842 0l-5.268 3.049c-.219.131-.208.35 0 .481l6.099 3.52a.927.927 0 00.776 0h.065zm-7.115 14.209l11.761-6.799c.229-.12.218-.339 0-.481l-14.898-8.58a.92.92 0 00-.842 0l-6.088 3.52c-.218.131-.208.338 0 .48l7.837 4.526c.241.142.251.36 0 .491l-4.864 2.81c-.229.131-.218.349 0 .48l6.099 3.52a.917.917 0 00.886-.011l.109.044zm-39.349-5.465l-5.279 3.049c-.219.131-.208.35 0 .481l6.099 3.52a.918.918 0 00.842 0l5.268-3.05c.229-.12.208-.339 0-.481l-6.088-3.519a.92.92 0 00-.951 0h.109zm-7.717 4.448l-5.268 3.05c-.229.131-.208.35 0 .481l6.099 3.519a.898.898 0 00.831 0l5.279-3.038c.219-.132.208-.35 0-.492l-6.099-3.52a.952.952 0 00-.951 0h.109zm-38.506 49.907a.94.94 0 00.841 0l5.268-3.049c.23-.12.208-.339 0-.481l-6.088-3.52a.956.956 0 00-.841 0l-5.28 3.05c-.218.131-.207.35 0 .481l6.1 3.519zm-23.151-14.307l-5.268 3.049c-.229.131-.208.35 0 .481l6.088 3.52a.92.92 0 00.842 0l5.279-3.05c.219-.12.208-.339 0-.481l-6.099-3.519a.916.916 0 00-.951 0h.109zm12.406 10.438a.92.92 0 00.842 0l5.279-3.038c.219-.132.208-.35 0-.492l-6.099-3.52a.96.96 0 00-.842 0l-5.41 3.006c-.23.131-.219.35 0 .481l6.23 3.563zm24.353 6.558l5.268-3.049c.229-.121.219-.339 0-.481l-6.099-3.52a.92.92 0 00-.842 0l-5.41 3.006c-.219.131-.208.35 0 .481l6.099 3.519a.915.915 0 00.874.055l.11-.011zm-8.548 4.427a.92.92 0 00.842 0l5.268-3.05c.23-.12.208-.338 0-.481l-6.088-3.519a.946.946 0 00-.842 0l-5.279 3.049c-.218.132-.208.35 0 .481l6.099 3.52zm-20.505-25.883l-5.268 3.05c-.219.131-.208.339 0 .481l6.099 3.519a.918.918 0 00.841 0l5.269-3.049c.229-.131.207-.339 0-.481l-6.099-3.52a.922.922 0 00-.951.011l.109-.011zm38.54-22.243l-5.4 3.05c-.229.131-.218.35 0 .492l6.099 3.519a.946.946 0 00.842 0l5.279-3.038c.219-.131.208-.35 0-.492l-6.099-3.52a.945.945 0 00-.83 0l.109-.011zm-30.932 17.795l-5.28 3.049c-.218.12-.207.339 0 .481l6.099 3.52a.92.92 0 00.842 0l5.268-3.05c.23-.131.208-.35 0-.481l-6.088-3.519a.918.918 0 00-.841 0zm38.528-22.243l-5.268 3.038c-.229.132-.208.35 0 .481l6.088 3.531a.96.96 0 00.842 0l5.279-3.039c.219-.131.208-.35 0-.492l-6.099-3.519a.91.91 0 00-.842.011v-.011zm-15.411 8.897l-5.236 3.049c-.229.132-.218.35 0 .492l6.099 3.52a.96.96 0 00.842 0l5.279-3.039c.219-.131.208-.349 0-.492l-6.099-3.519a.945.945 0 00-.885 0v-.011zm-7.651 4.449l-5.28 3.038c-.218.131-.207.35 0 .492l6.1 3.52a.917.917 0 00.841 0l5.268-3.039c.23-.131.219-.35 0-.481l-6.099-3.53a.958.958 0 00-.885.01l.055-.01zm-7.706 4.448l-5.279 3.039c-.219.131-.208.349 0 .492l6.099 3.519a.946.946 0 00.841 0l5.269-3.049c.229-.132.218-.35 0-.481l-6.143-3.443a.953.953 0 00-.842-.066l.055-.011zm39.349 5.465l5.279-3.049c.218-.131.208-.35 0-.481l-6.088-3.563a.947.947 0 00-.842 0l-5.268 3.038c-.23.131-.208.35 0 .492l6.088 3.52a.945.945 0 00.82.01l.011.033zm67.69-67.253l-5.268 3.049c-.23.132-.208.35 0 .481l6.088 3.52a.918.918 0 00.842 0l5.279-3.05c.218-.12.207-.339 0-.481l-6.099-3.519a.924.924 0 00-.853-.033l.011.033zm-9.323 5.388l-5.28 3.05c-.218.12-.207.339 0 .481l6.1 3.519a.918.918 0 00.841 0l5.29-3.038c.23-.131.219-.35 0-.481l-6.099-3.52a.914.914 0 00-.863-.043l.011.032zm17.029-9.837l-5.268 3.05c-.219.131-.208.35 0 .481l6.099 3.519a.917.917 0 00.841 0l5.269-3.049c.229-.131.207-.339 0-.481l-6.099-3.52a.924.924 0 00-.853-.033l.011.033zm-39.884 41.141l5.268-3.049c.23-.131.208-.339 0-.481l-6.088-3.52a.918.918 0 00-.842 0l-5.279 3.05c-.219.131-.208.339 0 .481l6.099 3.519a.913.913 0 00.831-.032l.011.032zm48.442-45.567a.906.906 0 00-.841 0l-5.291 2.973c-.218.12-.207.338 0 .481l6.099 3.519a.924.924 0 00.842 0l5.268-3.05c.23-.131.208-.349 0-.48l-6.077-3.443zm-76.249 71.669l5.28-3.039c.218-.131.207-.35 0-.492l-6.143-3.552a.946.946 0 00-.842 0l-5.268 3.039c-.23.131-.208.349 0 .491l6.099 3.52a.893.893 0 00.863 0l.011.033zm94.524-54.564l5.269-3.049c.229-.12.208-.339 0-.481l-6.099-3.52a.96.96 0 00-.842 0l-5.268 3.05c-.219.131-.208.35 0 .481l6.099 3.519a.909.909 0 00.831-.033l.01.033zm-16.395-.579l5.269-3.05c.229-.12.207-.338 0-.48l-6.099-3.52a.924.924 0 00-.842 0l-5.268 3.05c-.23.131-.208.349 0 .48l6.099 3.52a.923.923 0 00.808-.033l.033.033zm6.843-11.499a.9.9 0 00-.831 0l-5.279 3.05c-.219.131-.208.35 0 .481l6.099 3.519a.905.905 0 00.841 0l5.269-3.049c.229-.131.207-.339 0-.481l-6.099-3.52zm1.606-.961l14.811 8.547a.917.917 0 00.841 0l5.269-3.05c.229-.131.207-.338 0-.48l-14.811-8.548a.918.918 0 00-.841 0l-5.269 3.039c-.262.12-.251.339 0 .492zm-17.881 9.837l-5.269 3.049c-.229.131-.207.35 0 .481l6.088 3.52a.92.92 0 00.842 0l5.279-3.039c.219-.131.208-.35 0-.492l-6.11-3.519a.946.946 0 00-.841 0h.011zm-58.007 33.49l-5.268 3.049c-.23.131-.208.35 0 .481l6.088 3.531a.96.96 0 00.841 0l5.28-3.039c.218-.131.207-.35 0-.492l-6.099-3.519a.944.944 0 00-.853-.044l.011.033zm75.276-25.839a.92.92 0 00.842 0l5.268-3.039c.219-.131.208-.349 0-.492l-6.099-3.519a.946.946 0 00-.842 0l-5.268 3.049c-.229.132-.208.35 0 .481l6.099 3.52zm-67.581 21.412l-5.268 3.05c-.23.131-.208.349 0 .481l6.131 3.475a.9.9 0 00.831 0l5.279-3.049c.219-.12.208-.339 0-.481l-6.099-3.52a.957.957 0 00-.874-.011v.055zm-57.766 50.957a.918.918 0 00.842 0l5.268-3.05c.229-.12.219-.339 0-.481l-6.099-3.519a.91.91 0 00-.842 0l-5.279 3.049c-.219.131-.208.35 0 .481l6.11 3.52zm-11.597-10.931l-5.268 3.05c-.23.131-.208.35 0 .481l6.088 3.519a.918.918 0 00.841 0l5.28-3.049c.218-.12.207-.339 0-.481l-6.099-3.52a.915.915 0 00-.842-.032v.032zm20.144 6.482l5.269-3.05c.229-.131.218-.338 0-.48l-6.099-3.52a.92.92 0 00-.842 0l-5.279 3.05c-.219.131-.208.338 0 .48l6.099 3.52a.917.917 0 00.852-.033v.033zm7.651-4.449l5.28-3.049c.218-.131.207-.35 0-.481l-6.099-3.52a.92.92 0 00-.842 0l-5.268 3.05c-.23.12-.219.339 0 .481l6.099 3.519a.91.91 0 00.885-.076l-.055.076zm7.706-4.448l5.28-3.05c.218-.131.207-.35 0-.481l-6.1-3.519a.917.917 0 00-.841 0l-5.268 3.038c-.23.132-.219.35 0 .492l6.099 3.52a.945.945 0 00.885 0h-.055zm-27.85-2.033l-5.268 3.049c-.23.131-.208.339 0 .481l6.099 3.52a.897.897 0 00.831 0l5.279-3.05c.218-.131.208-.339 0-.481l-6.012-3.53a.92.92 0 00-.874-.022l-.055.033zm7.706-4.449l-5.268 3.05c-.219.131-.208.339 0 .481l6.099 3.519a.917.917 0 00.841 0l5.269-3.049c.229-.132.207-.339 0-.481l-6.067-3.531a.907.907 0 00-.402-.129.901.901 0 00-.417.064l-.055.076zm30.834-17.794l-5.268 3.038c-.23.132-.219.35 0 .492l6.099 3.52a.959.959 0 00.841 0l5.28-3.039c.218-.131.207-.35 0-.492l-6.099-3.519a.944.944 0 00-.798-.033l-.055.033zm-7.706 4.448l-5.279 3.039c-.219.131-.208.35 0 .492l6.099 3.519a.906.906 0 00.842 0l5.268-3.038c.229-.131.219-.35 0-.492l-6.099-3.52a.952.952 0 00-.776-.032l-.055.032zm15.412-8.897l-5.269 3.039c-.229.131-.218.35 0 .481l6.099 3.53a.946.946 0 00.842 0l5.279-3.038c.219-.131.208-.35 0-.492l-6.099-3.52a.91.91 0 00-.798-.032l-.054.032zm-30.769 17.795l-5.279 3.049c-.219.12-.208.339 0 .481l6.099 3.52a.96.96 0 00.842 0l5.268-3.05c.23-.131.208-.35 0-.481l-6.088-3.519a.918.918 0 00-.842 0zm7.706-4.449l-5.279 3.039c-.219.131-.208.349 0 .491l6.099 3.52a.946.946 0 00.841 0l5.269-3.05c.229-.131.218-.349 0-.48l-6.099-3.531a.945.945 0 00-.831-.022v.033zm-5.629 31.413l5.268-3.049c.23-.131.219-.339 0-.481l-6.099-3.52a.917.917 0 00-.841 0l-5.301 3.039c-.219.12-.208.339 0 .481l6.099 3.519c.136.07.287.104.44.1a.908.908 0 00.434-.121v.032zm-45.229-4.568l-6.099-3.52a.946.946 0 00-.842 0l-5.268 2.984c-.23.131-.219.35 0 .481l6.088 3.519a.906.906 0 00.842 0l5.279-3.038c.251-.099.24-.317 0-.459v.033zm11.553 3.388l-6.099-3.52a.96.96 0 00-.841 0l-8.111 4.689c-.229.132-.218.35 0 .481l6.099 3.531a.96.96 0 00.842 0l8.121-4.678c.241-.175.23-.394-.011-.536v.033zm-20.909-10.198l-6.099-3.563a.946.946 0 00-.842 0l-6.471 3.738c-.218.131-.207.35 0 .492l6.099 3.519a.946.946 0 00.842 0l6.493-3.749c.229-.109.218-.328-.022-.47v.033zm4.973-2.875a.906.906 0 00.842 0l5.279-3.049c.218-.12.208-.339 0-.481l-6.099-3.52a.96.96 0 00-.842 0l-5.268 3.05c-.23.131-.219.35 0 .481l6.088 3.519zm26.67 16.931l-6.099-3.519a.9.9 0 00-.831 0l-10.143 5.847c-.23.132-.219.35 0 .492l6.099 3.52a.96.96 0 00.841 0l10.144-5.848c.251-.164.229-.382-.011-.525v.033zm5.06 7.138l-6.099-3.52a.96.96 0 00-.841 0l-6.482 3.749c-.23.131-.219.35 0 .492l6.099 3.52a.918.918 0 00.842 0l6.492-3.739c.252-.12.23-.393-.011-.535v.033zm25.577-57.143a.96.96 0 00.842 0l5.268-3.039c.229-.131.218-.35 0-.492l-6.099-3.519a.92.92 0 00-.842 0l-5.268 3.038c-.23.131-.219.35 0 .492l6.099 3.52zm-15.412 8.897a.92.92 0 00.842 0l5.268-3.039c.23-.131.219-.349 0-.492l-6.121-3.585a.952.952 0 00-.841 0l-5.28 3.039c-.218.131-.207.35 0 .492l6.132 3.585zm-34.178 19.674a.894.894 0 00.83 0l5.28-3.049c.218-.121.207-.339 0-.481l-6.099-3.52a.924.924 0 00-.842 0l-5.268 3.05c-.23.131-.208.35 0 .481l6.099 3.519zm41.884-24.177a.96.96 0 00.842 0l5.268-3.039c.23-.131.219-.35 0-.492l-6.121-3.454a.96.96 0 00-.841 0l-5.28 3.039c-.218.131-.207.35 0 .492l6.132 3.454zm-15.411 8.897a.952.952 0 00.841 0l5.269-3.05c.229-.131.207-.349 0-.492l-6.089-3.519a.946.946 0 00-.841 0l-5.279 3.039c-.219.131-.208.349 0 .491l6.099 3.531zm1.781 44.376a.918.918 0 00-.841 0l-8.111 4.678c-.229.132-.218.35 0 .492l6.099 3.52a.96.96 0 00.842 0l8.11-4.689c.23-.131.219-.35 0-.481l-6.099-3.52zm-12.821-37.971a.918.918 0 00.842 0l5.268-3.05c.23-.131.208-.349 0-.481l-6.11-3.454a.918.918 0 00-.842 0l-5.279 3.05c-.218.12-.207.339 0 .481l6.121 3.454zm-7.651 4.448a.906.906 0 00.842 0l5.268-3.049c.229-.131.208-.339 0-.481l-6.208-3.53a.9.9 0 00-.831 0l-5.279 3.049c-.219.131-.208.35 0 .481l6.208 3.53zm163.33-48.901a.946.946 0 00-.842 0l-12.974 7.487c-.23.131-.219.35 0 .492l6.099 3.519a.906.906 0 00.841 0l12.964-7.487c.218-.131.207-.35 0-.492l-6.088-3.519zm-17.03 9.837a.946.946 0 00-.841 0l-5.28 3.039c-.218.131-.207.349 0 .491l6.099 3.52a.946.946 0 00.842 0l5.268-3.039c.23-.131.208-.349 0-.491l-6.088-3.52zm-104.405 57.766l5.28-3.05c.218-.131.207-.349 0-.48l-6.099-3.52a.924.924 0 00-.842 0l-5.268 3.05c-.23.12-.219.338 0 .48l6.099 3.52a.922.922 0 00.754 0h.076zm88.983-48.869a.96.96 0 00-.842 0l-5.268 3.039c-.23.131-.208.35 0 .492l6.099 3.519a.921.921 0 00.831 0l5.279-3.049c.218-.132.208-.35 0-.481l-6.099-3.52zm40.157-23.183a.918.918 0 00-.841 0l-5.269 3.039c-.229.131-.207.35 0 .492l6.099 3.519a.946.946 0 00.842 0l5.268-3.038c.23-.131.208-.35 0-.492l-6.099-3.52zm13.685-.929l-14.756-8.525a.946.946 0 00-.841 0l-5.28 3.049c-.218.131-.207.35 0 .481l14.843 8.493a.96.96 0 00.842 0l5.268-3.039c.23-.098.208-.317-.076-.459zm-82.763 40.748a.924.924 0 00-.842 0l-6.482 3.749c-.229.131-.218.35 0 .481l6.099 3.519a.912.912 0 00.842 0l6.493-3.749c.218-.131.207-.349 0-.481l-6.11-3.519zm19.477-11.247a.918.918 0 00-.841 0l-8.122 4.678c-.218.131-.207.35 0 .492l6.099 3.519a.946.946 0 00.842 0l8.11-4.678c.23-.131.219-.35 0-.492l-6.088-3.519zm-37.272 21.543a.96.96 0 00-.841 0l-43.393 25.063c-.23.12-.219.339 0 .481l6.099 3.519a.947.947 0 00.842 0l43.403-25.062c.23-.132.208-.35 0-.481l-6.11-3.52zm-45.83 26.473a.918.918 0 00-.842 0l-6.492 3.749c-.23.131-.208.35 0 .481l6.099 3.519a.906.906 0 00.842 0l6.481-3.749c.23-.131.219-.338 0-.48l-6.088-3.52zm54.76-31.621a.918.918 0 00-.841 0l-6.493 3.738c-.218.131-.208.35 0 .492l6.099 3.52a.92.92 0 00.842 0l6.492-3.739c.219-.131.208-.349 0-.491l-6.099-3.52zm-63.69 36.769a.96.96 0 00-.841 0l-6.482 3.749c-.23.131-.219.35 0 .492l6.099 3.52a.918.918 0 00.842 0l6.492-3.739c.219-.131.208-.349 0-.491l-6.11-3.531zm81.539-47.076a.946.946 0 00-.841 0l-6.493 3.749c-.219.12-.208.339 0 .481l6.099 3.519a.947.947 0 00.842 0l6.481-3.749c.23-.131.219-.349 0-.492l-6.088-3.508zm27.577-15.925a.947.947 0 00-.842 0l-5.268 3.038c-.219.131-.208.35 0 .492l6.099 3.52a.92.92 0 00.842 0l5.268-3.039c.23-.131.208-.35 0-.492l-6.099-3.519zm16.887-12.264l5.279-3.039c.219-.131.208-.349 0-.491l-6.099-3.52a.917.917 0 00-.841 0l-5.269 3.039c-.229.131-.207.349 0 .491l6.089 3.52a.945.945 0 00.83 0h.011zm-34.452-.219l5.269-3.049c.229-.131.218-.339 0-.481l-6.099-3.52a.924.924 0 00-.842 0l-5.279 3.05c-.219.131-.208.339 0 .481l6.099 3.519a.918.918 0 00.841 0h.011zm-17.488 30.2l15.412-8.897c.229-.131.218-.35 0-.492l-6.1-3.519a.917.917 0 00-.841 0l-15.412 8.897c-.229.131-.218.339 0 .481l6.11 3.53a.91.91 0 00.842 0h-.011zm43.371-25.543a.96.96 0 00.842 0l5.279-3.039c.218-.131.207-.35 0-.492l-6.099-3.519a.947.947 0 00-.842 0l-5.29 3.082c-.23.131-.208.35 0 .492l6.11 3.476zm-7.87-5.017l5.279-3.039c.219-.131.208-.35 0-.492l-6.099-3.519a.946.946 0 00-.841 0l-5.269 3.049c-.229.131-.207.35 0 .492l6.089 3.52a.945.945 0 00.852-.055l-.011.044zm-43.207 34.976l5.269-3.049c.229-.121.218-.339 0-.481l-6.099-3.52a.924.924 0 00-.842 0l-5.279 3.05c-.219.131-.208.35 0 .481l6.099 3.519a.92.92 0 00.863.033l-.011-.033zm34.048-20.155a.945.945 0 00.841 0l5.269-3.039c.229-.131.207-.349 0-.491l-6.099-3.52a.924.924 0 00-.842 0l-5.29 3.115c-.219.131-.208.35 0 .492l6.121 3.443zm-72.588 42.398l5.28-3.039c.218-.131.207-.349 0-.48l-6.121-3.465a.946.946 0 00-.842 0l-5.257 2.995c-.23.131-.208.349 0 .491l6.088 3.52a.925.925 0 00.863.011l-.011-.033zm7.652-4.448l5.279-3.039c.218-.131.207-.35 0-.492l-6.099-3.519a.947.947 0 00-.842 0l-5.279 3.06c-.23.131-.208.35 0 .492l6.099 3.519a.922.922 0 00.907.011l-.065-.032zm-15.412 8.908l5.279-3.05c.219-.131.208-.35 0-.481l-6.099-3.519a.918.918 0 00-.841 0l-5.269 3.038c-.229.131-.218.35 0 .492l6.099 3.52a.951.951 0 00.897.032l-.066-.032zm30.834-17.806l5.268-3.038c.23-.131.208-.35 0-.492l-6.088-3.52a.96.96 0 00-.841 0l-5.28 3.05c-.218.131-.207.35 0 .481l6.099 3.53a.945.945 0 00.908.022l-.066-.033zm-7.706 4.449l5.269-3.039c.229-.131.207-.349 0-.492l-6.099-3.519a.924.924 0 00-.842 0l-5.268 3.039c-.219.131-.208.349 0 .491l6.099 3.52a.949.949 0 00.907.033l-.066-.033zm15.412-8.897l5.268-3.039c.23-.131.219-.35 0-.492l-6.099-3.519a.946.946 0 00-.842 0l-5.279 3.049c-.218.131-.207.35 0 .481l6.099 3.52a.919.919 0 00.918.033l-.065-.033zm35.261-65.822a.946.946 0 00.841 0l5.268-3.038c.23-.131.208-.35 0-.492l-1.628-.94a.946.946 0 00-.842 0l-5.268 3.038c-.23.132-.219.35 0 .492l1.629.94zm-37.928 24.473a.918.918 0 00.841 0l5.28-3.039c.218-.131.207-.349 0-.481l-6.099-3.53a.946.946 0 00-.842 0l-5.268 3.039c-.23.131-.208.349 0 .491l6.088 3.52zm15.422-8.897a.96.96 0 00.842 0l5.268-3.039c.23-.131.208-.35 0-.492l-6.099-3.519a.946.946 0 00-.841 0l-5.269 3.038c-.218.132-.207.35 0 .492l6.099 3.52zm-24.833 14.329a.946.946 0 00.842 0l5.279-3.049c.218-.131.208-.35 0-.481l-6.099-3.52a.92.92 0 00-.842 0l-5.268 3.05c-.23.12-.208.339 0 .481l6.088 3.519zm17.128-9.837a.917.917 0 00.841 0l5.268-3.039c.219-.131.208-.349 0-.491l-6.099-3.52a.952.952 0 00-.841 0l-5.269 3.039c-.229.131-.207.349 0 .492l6.1 3.519zm-32.54 18.778a.924.924 0 00.842 0l5.279-3.049c.219-.132.208-.339 0-.481l-6.066-3.498a.918.918 0 00-.842 0l-5.279 3.05c-.218.131-.208.338 0 .48l6.066 3.498zm7.706-4.448a.92.92 0 00.842 0l5.279-3.05c.219-.131.208-.339 0-.481l-6.099-3.519a.906.906 0 00-.842 0l-5.268 3.049c-.229.12-.219.339 0 .481l6.088 3.52zm39.633-25.457a.921.921 0 00.831 0l5.279-3.038c.219-.132.208-.35 0-.492l-1.618-.929a.918.918 0 00-.841 0l-5.28 3.049c-.218.12-.207.339 0 .481l1.629.929zm23.117-13.356a.92.92 0 00.842 0l5.268-3.05c.23-.12.219-.339 0-.481l-1.628-.94a.946.946 0 00-.842 0l-5.268 3.039c-.23.131-.219.349 0 .492l1.628.94zm12.81 7.399a.946.946 0 00.842 0l5.268-3.049c.23-.131.219-.35 0-.481l-6.099-3.52a.917.917 0 00-.841 0l-5.225 3.094c-.218.12-.208.338 0 .48l6.055 3.476zm19.27 19.554l5.269-3.038c.229-.131.207-.35 0-.492l-6.099-3.52a.96.96 0 00-.842 0l-5.268 3.05c-.219.131-.208.35 0 .481l6.099 3.53a.95.95 0 00.907-.022l-.066.011zm-47.426-18.045a.96.96 0 00.842 0l5.268-3.039c.23-.131.208-.35 0-.492l-1.617-.94a.96.96 0 00-.842 0l-5.279 3.039c-.219.131-.208.349 0 .492l1.628.94zm-62.75 38.802a.92.92 0 00.842 0l5.268-3.05c.23-.12.219-.339 0-.481l-6.099-3.519a.918.918 0 00-.841 0l-5.28 3.049c-.218.131-.207.35 0 .481l6.11 3.52z" fill="#E0E0E0"/><path d="M270.018 300.93l57.722-33.326 35.523 20.505-57.722 33.326-35.523-20.505z" fill="#263238"/><path d="M154.114 103.301l171.954-99.3c3.355-1.935 6.11-.35 6.11 3.53v133.217a6.3 6.3 0 01-2.842 4.919L153.021 247.481c-1.563.896-2.831.164-2.831-1.639V110.111a8.754 8.754 0 013.924-6.81z" fill="#F5F5F5"/><path d="M332.177 10.723V7.53c0-3.88-2.754-5.465-6.11-3.53l-171.953 99.3a8.743 8.743 0 00-3.935 6.81v5.749L332.177 10.723z" fill="#263238"/><path d="M306.535 18.002a4.634 4.634 0 00-2.109 3.64c0 1.344.94 1.89 2.109 1.224a4.668 4.668 0 002.099-3.65c0-1.345-.94-1.892-2.099-1.214zm8.351-4.831a4.668 4.668 0 00-2.099 3.65c0 1.345.94 1.892 2.099 1.214a4.626 4.626 0 002.087-3.65c0-1.334-.918-1.88-2.087-1.214zm8.361-4.821a4.673 4.673 0 00-2.109 3.673c0 1.334.951 1.88 2.109 1.214a4.661 4.661 0 002.11-3.651c0-1.366-.94-1.935-2.11-1.235z" fill="#E0E0E0"/><path d="M150.146 115.827v25.631L332.178 36.365V10.723L150.146 115.827z" fill="#1E959B"/><path opacity=".1" d="M150.146 115.827v25.631L332.178 36.365V10.723L150.146 115.827z" fill="#000"/><path d="M162.061 128.102a3.997 3.997 0 01-1.891.109v-12.57a1.257 1.257 0 01.678-1.169l.94-.547c.24-.142.426-.174.535-.109.11.066.164.23.164.492v4.132c.347-.55.766-1.05 1.246-1.487a9.789 9.789 0 011.651-1.202c1.388-.798 2.448-.973 3.191-.536.744.437 1.093 1.465 1.093 3.05a9.833 9.833 0 01-1.311 5.028 10.31 10.31 0 01-3.88 3.77 9.557 9.557 0 01-2.416 1.039zm4.58-5.126a6.94 6.94 0 00.721-3.279c0-1.093-.186-1.749-.579-2.023-.394-.273-1.028-.164-1.935.361a5.598 5.598 0 00-1.65 1.498c-.45.566-.7 1.266-.711 1.989v4.306c.286.022.573-.019.842-.12a4.8 4.8 0 001.093-.481 5.622 5.622 0 002.219-2.251zm4.96-.558c-.098-.065-.153-.229-.153-.481v-12.832a1.205 1.205 0 01.678-1.169l.973-.569c.251-.142.426-.175.535-.109.11.066.164.23.164.492v12.865a1.194 1.194 0 01-.699 1.158l-.973.569c-.197.142-.372.175-.525.076zm5.335-3.957c-.863-.47-1.3-1.541-1.3-3.213a9.08 9.08 0 011.3-4.689 9.976 9.976 0 013.673-3.585c1.596-.918 2.82-1.093 3.694-.667.875.426 1.301 1.53 1.301 3.192a9.092 9.092 0 01-1.301 4.7 9.965 9.965 0 01-3.694 3.585c-1.585.918-2.809 1.147-3.673.677zm5.662-4.678a6.166 6.166 0 00.678-2.94c0-1.093-.23-1.803-.678-2.12-.448-.317-1.093-.208-1.989.295a5.136 5.136 0 00-1.967 1.989 5.958 5.958 0 00-.689 2.907c0 1.093.229 1.815.689 2.186.459.372 1.093.23 1.967-.262a5.09 5.09 0 001.989-2.055zm7.411 1.629a3.603 3.603 0 01-1.541.273c-.197 0-.252-.142-.153-.382l.535-1.345a.697.697 0 01.219-.339.448.448 0 01.186 0 5.516 5.516 0 002.623-.918 4.604 4.604 0 001.792-1.716 5.227 5.227 0 00.569-2.612 7.357 7.357 0 01-2.853 2.896c-1.377.798-2.448.984-3.203.558-.754-.426-1.093-1.41-1.093-2.984a9.056 9.056 0 011.367-4.886 10.933 10.933 0 013.945-3.716 8.969 8.969 0 012.35-.962 4.178 4.178 0 011.859-.12v7.257a9.993 9.993 0 01-1.093 4.657 8.52 8.52 0 01-3.4 3.421c-.673.371-1.379.678-2.109.918zm3.596-8.078a3.827 3.827 0 00.634-2.098v-3.771c-.301.019-.597.09-.875.208-.377.15-.743.329-1.093.535a5.472 5.472 0 00-2.896 5.094c0 1.093.218 1.694.645 1.967.426.273 1.093.153 1.945-.35a4.941 4.941 0 001.64-1.585z" fill="#FAFAFA"/><path d="M181.221 134.868v90.086c0 .612.317.907.7.678a1.913 1.913 0 00.688-1.52v-90.086c0-.612-.306-.907-.688-.678a1.926 1.926 0 00-.7 1.52z" fill="#1E959B"/><path d="M127.947 169.811l39.666-22.953c1.3-.754 2.361-.142 2.361 1.366v27.894a5.234 5.234 0 01-2.361 4.099l-39.666 22.953c-1.312.754-2.372.142-2.372-1.366V173.91a5.228 5.228 0 012.372-4.099z" fill="#E0E0E0"/><path d="M169.974 148.279c0-1.508-1.093-2.121-2.361-1.366l-39.666 22.953a5.226 5.226 0 00-2.372 4.099v2.372l44.399-25.632v-2.426z" fill="#1E959B"/><path d="M130.014 178.851l17.761-10.253v17.947l-17.761 10.253v-17.947z" fill="#FAFAFA"/><path d="M130.068 194.186l6.668-11.816a.738.738 0 01.59-.437.743.743 0 01.678.284l2.339 2.558 4-9.258c.241-.558.722-.601 1.093-.109l2.416 3.443v7.651l-17.784 10.296v-2.612z" fill="#1E959B"/><path d="M152.212 167.582c0 .852.645 1.18 1.421.721l10.482-6.044a3.07 3.07 0 001.421-2.372c0-.853-.634-1.181-1.421-.722l-10.482 6.045a3.095 3.095 0 00-1.421 2.372zm0 7.378c0 .852.645 1.18 1.421.732l10.482-6.055a3.037 3.037 0 001.421-2.361c0-.853-.634-1.181-1.421-.733l-10.482 6.056a3.05 3.05 0 00-1.421 2.361zm0 7.388c0 .853.645 1.181 1.421.722l10.482-6.045a3.07 3.07 0 001.421-2.372c0-.852-.634-1.18-1.421-.721l-10.482 6.044a3.09 3.09 0 00-1.421 2.372z" fill="#FAFAFA"/><path d="M127.947 213.007l39.666-22.898c1.3-.755 2.361-.142 2.361 1.366v27.905a5.259 5.259 0 01-2.361 4.098l-39.666 22.899c-1.312.754-2.372.142-2.372-1.366v-27.905a5.228 5.228 0 012.372-4.099z" fill="#E0E0E0"/><path d="M169.974 191.475c0-1.508-1.093-2.121-2.361-1.366l-39.666 22.898a5.229 5.229 0 00-2.372 4.099v2.383l44.399-25.631v-2.383z" fill="#1E959B"/><path d="M130.014 222.047l17.761-10.253v17.947l-17.761 10.253v-17.947z" fill="#FAFAFA"/><path d="M130.068 237.393l6.668-11.827a.736.736 0 01.593-.43.735.735 0 01.675.288l2.339 2.558 3.935-9.269a.568.568 0 011.093-.109l2.415 3.443v7.651l-17.718 10.296v-2.601z" fill="#1E959B"/><path d="M152.212 210.778c0 .863.645 1.18 1.421.732l10.482-6.055c.407-.253.747-.599.994-1.01a3.01 3.01 0 00.427-1.351c0-.853-.634-1.181-1.421-.733l-10.482 6.056a3.05 3.05 0 00-1.421 2.361zm0 7.388c0 .853.645 1.181 1.421.722l10.482-6.045a3.07 3.07 0 001.421-2.371c0-.853-.634-1.181-1.421-.722l-10.482 6.044a3.09 3.09 0 00-1.421 2.372zm0 7.378c0 .853.645 1.181 1.421.733l10.482-6.056a3.025 3.025 0 001.421-2.361c0-.863-.634-1.18-1.421-.732l-10.482 6.055a3.053 3.053 0 00-1.421 2.361z" fill="#FAFAFA"/><path d="M196.905 170.85l121.948-70.401c1.311-.755 2.372-.143 2.372 1.366v35.556a5.212 5.212 0 01-2.372 4.098l-121.948 70.402c-1.301.754-2.361.153-2.361-1.367v-35.555a5.245 5.245 0 012.361-4.099z" fill="#E0E0E0"/><path d="M321.225 101.815c0-1.509-1.093-2.12-2.372-1.366L196.905 170.85a5.24 5.24 0 00-2.361 4.099v2.371l126.681-73.133v-2.372z" fill="#1E959B"/><path d="M224.613 163.472l-24.625 14.209a4.163 4.163 0 00-1.891 3.279v24.342c0 1.202.841 1.694 1.891 1.093l24.625-14.21a4.163 4.163 0 001.891-3.279v-24.341c0-1.213-.841-1.705-1.891-1.093z" fill="#FAFAFA"/><path d="M206.775 184.862l-8.678 18.581v1.924c0 1.202.841 1.694 1.891 1.093l24.625-14.209a4.163 4.163 0 001.891-3.279v-8.405l-4.656-8.745c-.568-1.093-1.41-1.027-1.88.077l-7.334 17.193-3.563-4.448a1.254 1.254 0 00-1.22-.644 1.246 1.246 0 00-.666.271 1.25 1.25 0 00-.41.591zm-5.836-.218a9.455 9.455 0 004.263-7.378 3.572 3.572 0 00-.645-2.186l-4.536 2.612a4.163 4.163 0 00-1.891 3.279v4.044a3.104 3.104 0 002.809-.371z" fill="#1E959B"/><path d="M237.642 158.105l76.129-43.95c1.093-.601 1.901-.197 1.901.918a4.052 4.052 0 01-1.901 3.115l-76.129 43.95c-1.093.602-1.891.197-1.891-.918a4.037 4.037 0 01.572-1.784 4.034 4.034 0 011.319-1.331zm0 10.22l76.129-43.95c1.093-.602 1.901-.197 1.901.918a4.032 4.032 0 01-1.901 3.115l-76.129 43.95c-1.093.601-1.891.197-1.891-.918a4.029 4.029 0 011.891-3.115zm0 10.285l76.129-43.95c1.093-.601 1.901-.197 1.901.918a4.028 4.028 0 01-1.901 3.115l-76.129 43.95c-1.093.613-1.891.197-1.891-.918a4.032 4.032 0 011.891-3.115z" fill="#FAFAFA"/><path d="M362.214 58.4l-11.182-.306c-.754-.645-12.482-13.892-12.482-13.892s-4.23 6.667-4.296 7.093c-.065.427 11.51 12.8 12.646 14.057a3.483 3.483 0 002.733 1.333c3.028.175 14.373.973 14.373.973l-1.792-9.258z" fill="#F2C6C6"/><path d="M378.096 71.243l-17.226-1.279 1.334-11.564 17.783.394-1.891 12.45z" fill="#1E959B"/><path opacity=".2" d="M378.096 71.243l-17.226-1.279 1.334-11.564 17.783.394-1.891 12.45z" fill="#000"/><path d="M219.105 109.302L341.02 38.879c1.312-.754 2.372-.142 2.372 1.366v35.567a5.232 5.232 0 01-2.372 4.099l-121.915 70.401c-1.301.754-2.361.142-2.361-1.366v-35.567a5.254 5.254 0 012.361-4.077z" fill="#E0E0E0"/><path d="M343.425 40.245c0-1.508-1.093-2.12-2.372-1.366l-121.948 70.423a5.245 5.245 0 00-2.361 4.099v2.382l126.681-73.155v-2.383z" fill="#F05670"/><path d="M246.812 101.902l-24.625 14.209a4.19 4.19 0 00-1.339 1.413 4.19 4.19 0 00-.552 1.866v24.342c0 1.213.842 1.694 1.891 1.093l24.625-14.209a4.175 4.175 0 001.891-3.279v-24.342c0-1.202-.841-1.694-1.891-1.093z" fill="#FAFAFA"/><path d="M228.974 123.293l-8.678 18.581v1.924c0 1.213.842 1.694 1.891 1.093l24.625-14.21a4.163 4.163 0 001.891-3.279v-8.405l-4.656-8.744c-.568-1.093-1.41-1.028-1.88.087l-7.334 17.237-3.563-4.448a1.259 1.259 0 00-1.872-.415 1.27 1.27 0 00-.424.579zm-5.836-.219a9.414 9.414 0 004.263-7.378 3.547 3.547 0 00-.645-2.186l-4.569 2.634a4.182 4.182 0 00-1.891 3.279v4.044a3.075 3.075 0 002.842-.393z" fill="#F05670"/><path d="M259.842 96.546l76.129-43.96c1.093-.602 1.891-.186 1.891.928a3.978 3.978 0 01-1.891 3.104l-76.129 43.94c-1.093.601-1.891.186-1.891-.93a4.007 4.007 0 011.891-3.082zm0 10.253l76.129-43.961c1.093-.601 1.891-.186 1.891.929a3.978 3.978 0 01-1.891 3.104l-76.129 43.961c-1.093.601-1.891.186-1.891-.929a3.998 3.998 0 011.891-3.104zm0 10.252l76.129-43.96c1.093-.602 1.891-.186 1.891.928a3.978 3.978 0 01-1.891 3.105l-76.129 43.961c-1.093.601-1.891.185-1.891-.929a4.006 4.006 0 011.891-3.105z" fill="#FAFAFA"/><path d="M400.086 193.508h-6.448v9.4h6.448v-9.4zm-22.68-11.644l-6.445.222.323 9.394 6.445-.222-.323-9.394z" fill="#FFD2D1"/><path d="M399.671 101.76c0 6.165.798 46.027.798 46.027.153 1.782 1.815 5.05 1.454 11.859-.492 9.247-1.29 34.977-1.29 34.977s-3.027 2.995-7.301 0c0 0-5.837-34.922-6.995-44.093-1.017-8-2.722-29.741-2.722-29.741l-5.979 25.566s1.093 6.012 1.279 10.264c.186 4.251-1.093 28.768-1.093 28.768a7.06 7.06 0 01-7.028.262s-5.181-35.829-5.848-39.655c-.667-3.825 4.492-44.234 4.492-44.234h30.233z" fill="#455A64"/><path d="M389.955 59.078h.087a12.79 12.79 0 019.63 12.45v30.232c-4.526 4.93-20.298 7.225-30.19 0V70.303c0-5.028 2.799-11.061 10.504-11.51l9.969.285z" fill="#1E959B"/><path d="M392.13 33.359a3.447 3.447 0 012.842.995c1.224 1.257.973 3.563 0 8.886l-3.771.426.929-10.307zm-22.024-1.541a5.92 5.92 0 01-2.361-.481c-1.159-.667-1.465.656-.831 1.793a5.399 5.399 0 004.372 2.929c0-.175 1.093-2.951 1.093-2.951l-2.273-1.29z" fill="#263238"/><path d="M390.358 43.72c.558.34 1.356-.731 2.055-1.464a2.43 2.43 0 013.332-.304c.323.256.576.59.734.97 1.148 2.417-1.453 5.63-2.984 6.701a2.676 2.676 0 01-3.137.262l-.404 9.247a9.842 9.842 0 01-7.433 5.651c-5.465.733-4.372-3.749-2.535-5.935v-3.421a12.636 12.636 0 01-4.121.208c-.711-.186-2.405-2.186-3.498-4.514-1.224-2.569-3.279-7.116-1.442-14.822 1.945-8.285 10.842-8.536 16.143-5.192 5.302 3.345 3.29 12.614 3.29 12.614z" fill="#FFD2D1"/><path d="M390.359 44.617c.284 0 1.355-1.781 2.055-2.415.962-.875-.284-8.843-.284-8.843s.972-3.028-.929-5.028c-1.902-2-5.619-1.672-8.329-1.77a24.426 24.426 0 01-9.684-1.935c-3.848-1.673-4.132-1.87-4.613-.186-.481 1.683-.656 5.563 1.64 8.154l1.912.7s1.028.918 4.613 1.355c3.314.246 6.644.184 9.946-.186 1.093-.142 1.257.864 1.826 3.618.492 2.415.896 6.514 1.847 6.536z" fill="#263238"/><path d="M392.118 33.971l3.399-1.814a1.872 1.872 0 00-1.848-1.065 1.864 1.864 0 00-.72.212 2.02 2.02 0 00-.831 2.667z" fill="#263238"/><path d="M379.997 55.427a39.037 39.037 0 006.788-1.946 5.716 5.716 0 002.426-2.404 7.916 7.916 0 01-1.377 2.83c-1.29 1.651-7.837 2.854-7.837 2.854v-1.334z" fill="#F2C6C6"/><path d="M381.21 42.41a1.008 1.008 0 00.677.864 1.007 1.007 0 00.877-1.793 1.004 1.004 0 00-.548-.165 1.09 1.09 0 00-1.006 1.093zm1.071-3.805l2.186 1.192a1.3 1.3 0 00-.502-1.716 1.206 1.206 0 00-1.684.524z" fill="#263238"/><path d="M381.287 49.252l-2.307.863a1.207 1.207 0 001.563.754 1.28 1.28 0 00.744-1.617z" fill="#F2C6C6"/><path d="M372.225 39.447l1.968-1.508a1.2 1.2 0 00-.802-.502 1.191 1.191 0 00-.914.24 1.3 1.3 0 00-.252 1.77zm.601 2.678a1.001 1.001 0 00.678.864 1.004 1.004 0 001.316-.785 1.008 1.008 0 00-.988-1.172 1.024 1.024 0 00-.949.685 1.03 1.03 0 00-.057.408z" fill="#263238"/><path d="M377.963 41.174l-.327 6.056-3.17-1.072 3.497-4.984z" fill="#F2C6C6"/><path d="M393.638 199.716v-.918c-.612.273-2.044 5.739-4.612 8.078-2.033 1.858-4.81 4-5.52 6.066-.711 2.066 3.869 3.344 5.771 3.006 2.186-.383 6.044-1.946 7.006-3.389.962-1.442 1.41-3.563 2.186-4.623s2.591-2.241 3.006-3.465a7.825 7.825 0 00-.339-3.356c-.295-1.093-.623-2.393-1.005-2.284v.7a5.087 5.087 0 01-3.225 1.093c-.983 0-3.268-.186-3.268-.908zm-22.44-10.219c-.328 0-.601.491-1.344 1.289a14.202 14.202 0 01-3.793 2.733c-2.415 1.213-7.115 3.071-9.247 4.022-1.322.601-1.268 2.186.109 3.115 1.378.929 4.69 1.574 8.668.689 2.186-.492 4.995-2.492 6.777-2.383 1.781.109 5.137.088 6.449-.831 1.311-.918.797-2.841.426-4.514-.372-1.672-.995-4.601-1.596-4.481v.568c-.776 1.181-4.733 1.662-6.438.798l-.011-1.005z" fill="#263238"/><path d="M391.911 63.275l-19.925 20.614s-17.489-3.126-23.457-4.842c-1.88-.535-3.191-3.344-3.607-5.465a4.216 4.216 0 00-1.497-2.842s0 1.541-.393 4.077c-.154 1.093-1.891 1.235-3.422 1.563-5.465 1.18-7.334 0-9.585 1.574-1.749 1.246.437 4.482 4.437 5.585 5.597 1.53 8.69.766 12.1 1.607 2.634.656 21.587 6.558 25.194 7.4 1.913.415 3.366.284 5.465-1.77 2.099-2.056 17.816-15.762 17.816-15.762l-3.126-11.74z" fill="#FFD2D1"/><path d="M392.775 62.565c-2.186-.547-15.51 15.302-15.51 15.302l7.345 6.164s9.498-6.23 11.192-8.744c1.694-2.514 3.585-11.072-3.027-12.723z" fill="#1E959B"/><path d="M385.079 84.458s10.034-8.985 10.504-9.969c.907-1.901.667-5.4.667-5.4s1.093 3.05 0 5.4c-1.093 2.35-8.744 9.018-9.957 10.165l-1.236 1.159-1.18-1.093.71-.634.492.372z" fill="#1E959B"/><path opacity=".2" d="M385.079 84.458s10.034-8.985 10.504-9.969c.907-1.901.667-5.4.667-5.4s1.093 3.05 0 5.4c-1.093 2.35-8.744 9.018-9.957 10.165l-1.236 1.159-1.18-1.093.71-.634.492.372z" fill="#000"/><path d="M334.681 39.96c2.186-.24 3.64-1.857 4.131-1.398a1.198 1.198 0 010 1.585 15.022 15.022 0 01-3.279 1.88c-.28 1.11-.48 2.239-.601 3.377-.175 1.672-.12 5.017-1.541 6.165-4.274 3.42-5.378-2.022-5.203-5.673.284-4.525 4.197-5.684 6.493-5.935z" fill="#F2C6C6"/></svg>