<svg width="90" height="84" fill="none" xmlns="http://www.w3.org/2000/svg"><g filter="url(#filter0_d)"><path d="M10.664 25c0-11.046 8.954-20 20-20h29.048c11.046 0 20 8.954 20 20v24c0 11.046-8.954 20-20 20H30.664c-11.046 0-20-8.954-20-20V25z" fill="url(#paint0_linear)"/></g><path fill-rule="evenodd" clip-rule="evenodd" d="M60.208 24.54c0 .701-.223 1.412-.788 1.827a4.446 4.446 0 01-2.646.868h-2.15a3 3 0 01-3-3v-2.49c0-.514.087-1.008.247-1.468.304-.871 1.237-1.277 2.16-1.277h3.177a3 3 0 013 3v2.54zm-3.434 3.382c1.453 0 3.434.995 3.434 2.448V51a3 3 0 01-3 3h-23.53a3 3 0 01-3-3V22a3 3 0 013-3h15.156c1.257 0 2.103 1.488 2.103 2.745v3.177a3 3 0 003 3h2.837zm-24.037-4.118c0-.38.307-.686.686-.686h13.735a.687.687 0 110 1.372H33.423a.686.686 0 01-.686-.686zm0 3.431c0-.379.307-.686.686-.686h13.735a.686.686 0 110 1.373H33.423a.687.687 0 01-.686-.687zm.686 2.745a.687.687 0 100 1.373H57.46a.686.686 0 100-1.373H33.423zm-.686 4.118c0-.379.307-.686.686-.686H57.46a.686.686 0 110 1.372H33.423a.687.687 0 01-.686-.686zm.686 2.745a.687.687 0 100 1.373H57.46a.686.686 0 100-1.373H33.423zm-.686 4.118c0-.38.307-.686.686-.686H57.46a.686.686 0 110 1.372H33.423a.687.687 0 01-.686-.686zm.686 2.745a.687.687 0 100 1.372H57.46a.686.686 0 100-1.372H33.423zm-.686 4.118c0-.38.307-.687.686-.687H57.46a.686.686 0 110 1.373H33.423a.686.686 0 01-.686-.686zm.686 2.745a.686.686 0 100 1.372H57.46a.686.686 0 100-1.372H33.423z" fill="#F8FAFD"/><defs><linearGradient id="paint0_linear" x1="79.712" y1="37" x2="10.664" y2="37" gradientUnits="userSpaceOnUse"><stop stop-color="#1E959B"/><stop offset="1" stop-color="#AFDEDE"/></linearGradient><filter id="filter0_d" x=".664" y="0" width="89.048" height="84" filterUnits="userSpaceOnUse" color-interpolation-filters="sRGB"><feFlood flood-opacity="0" result="BackgroundImageFix"/><feColorMatrix in="SourceAlpha" values="0 0 0 0 0 0 0 0 0 0 0 0 0 0 0 0 0 0 127 0" result="hardAlpha"/><feOffset dy="5"/><feGaussianBlur stdDeviation="5"/><feColorMatrix values="0 0 0 0 0.117647 0 0 0 0 0.584314 0 0 0 0 0.607843 0 0 0 0.5 0"/><feBlend in2="BackgroundImageFix" result="effect1_dropShadow"/><feBlend in="SourceGraphic" in2="effect1_dropShadow" result="shape"/></filter></defs></svg>