<svg width="318" height="77" fill="none" xmlns="http://www.w3.org/2000/svg"><path d="M282.089 75.94h-.248l-98.384-7.114-120.984 5.553-.124-.062L1.981 37.564l.93-.437L84.638 1.81h.062l94.112 5.49 109.406-3.12.185.188 27.924 33.258-.309.375-33.93 37.938zm-98.57-8.175l98.137 7.114 33.31-37.253-27.181-32.322-108.972 3.12-93.988-5.491L4.272 37.75l58.449 35.57 120.798-5.554z" fill="url(#paint0_linear)"/><path d="M282.522 76.376l-.929-.624-33.558-22.027-63.588 14.726.557.375-1.052-.187v.436l-.557-.374-.186.125V68.7l-1.981.437 1.114-.624-84.33-14.352-36.22 20.53.371-1.061 7.554-24.274L.495 37.627l76.9-13.042 7.12-22.9.495.312 25.448 16.972L177.636 7.55l-.99-.686 1.733.374v-.125l.31.188.433-.25v.312l1.425-.25-.62.375 89.902 12.48h.062l.248.062 17.893-15.85.62.687-17.213 15.225h.557l-.619.375 44.394 16.785.247.063.496.187.681.124-.186.063.124.062-1.424.375-39.379 9.11 6.192 29.14zm-33.311-22.838l31.949 20.966-5.696-27.08-26.253 6.114zM70.584 49.545L63.34 72.882l33.249-18.907-26.005-4.43zm108.724-40.81l4.582 58.843 46.251-25.521-50.833-33.321zM99.251 53.539l82.224 13.977-49.099-32.821-33.125 18.844zm33.992-19.343l49.718 33.196-4.582-58.842-45.136 25.645zm97.765 8.423l-44.456 24.523 60.492-14.04-16.036-10.483zM70.832 48.671l26.995 4.617 33.682-19.156-21.299-14.227-32.134 5.429-7.244 23.337zm161.043-6.552l16.346 10.67 27.119-6.302-3.777-18.033-10.65-2.309-29.038 15.974zM5.82 37.627l64.145 10.92 7.12-23.026L5.82 37.626zm266.61-8.924l3.715 17.66 37.397-8.674-41.112-8.986zM181.042 8.798l49.966 32.76 28.481-15.663-78.447-17.097zm91.202 18.907l37.521 8.174-38.945-14.726 1.424 6.552zM111.51 19.718l20.928 13.977 43.96-24.96-64.888 10.983zm150.518 5.803l9.287 1.997-1.362-6.365-7.925 4.368zM190.205 9.86l70.461 15.35 8.173-4.493-5.263-.748L190.205 9.86zM85.01 3.058l-6.625 21.34 30.772-5.241-24.147-16.1z" fill="url(#paint1_linear)"/><path d="M178.814 9.422c.854 0 1.547-.698 1.547-1.56 0-.861-.693-1.56-1.547-1.56-.855 0-1.548.699-1.548 1.56 0 .862.693 1.56 1.548 1.56zM62.597 76.189c1.3 0 2.353-1.062 2.353-2.371a2.362 2.362 0 00-2.353-2.371 2.362 2.362 0 00-2.353 2.37 2.362 2.362 0 002.353 2.372zM281.841 77c.855 0 1.548-.698 1.548-1.56 0-.861-.693-1.56-1.548-1.56-.855 0-1.548.699-1.548 1.56 0 .862.693 1.56 1.548 1.56zm33.806-37.002A2.362 2.362 0 00318 37.626a2.362 2.362 0 00-2.353-2.37 2.362 2.362 0 00-2.353 2.37 2.362 2.362 0 002.353 2.372zM288.032 7.55a2.798 2.798 0 002.787-2.808 2.798 2.798 0 00-2.787-2.808c-1.538 0-2.786 1.258-2.786 2.808 0 1.551 1.248 2.808 2.786 2.808zM183.519 71.509c1.744 0 3.158-1.425 3.158-3.182 0-1.758-1.414-3.183-3.158-3.183s-3.158 1.425-3.158 3.183c0 1.757 1.414 3.182 3.158 3.182zM3.158 40.809c1.744 0 3.157-1.425 3.157-3.183 0-1.757-1.413-3.182-3.157-3.182S0 35.87 0 37.626c0 1.758 1.414 3.183 3.158 3.183zM84.763 4.742c1.3 0 2.353-1.061 2.353-2.37A2.362 2.362 0 0084.763 0a2.362 2.362 0 00-2.353 2.371 2.362 2.362 0 002.353 2.371zM42.722 20.404c2.167.999 3.777 2.372 4.953 4.181 1.177 1.81 1.734 3.931 1.734 6.365 0 2.433-.557 4.555-1.734 6.365-1.176 1.809-2.786 3.182-4.953 4.18-2.167.936-4.644 1.435-7.554 1.435h-6.686v9.11h-7.554V18.97h14.178c2.91 0 5.45.436 7.616 1.434zm-2.786 14.789c1.176-.998 1.795-2.371 1.795-4.243 0-1.872-.619-3.307-1.795-4.306-1.176-.998-2.91-1.497-5.201-1.497h-6.192v11.481h6.192c2.229.063 3.963-.437 5.2-1.435zM66.93 44.74h-4.52v7.3h-7.43V24.836h12.26c3.715 0 6.687.873 8.854 2.683 2.167 1.81 3.281 4.243 3.281 7.363 0 1.997-.495 3.681-1.424 5.179-.928 1.435-2.29 2.62-4.024 3.432l6.006 8.549h-7.988l-5.015-7.301zm3.715-12.979c-.867-.749-2.167-1.06-3.9-1.06H62.41v8.423h4.335c1.733 0 3.033-.374 3.9-1.06.867-.75 1.3-1.748 1.3-3.12 0-1.436-.433-2.497-1.3-3.183zm19.937 18.97c-2.229-1.124-4.086-2.871-5.387-5.055-1.3-2.122-1.98-4.555-1.98-7.238 0-2.684.68-5.117 1.98-7.239a13.175 13.175 0 015.387-5.054c2.291-1.186 4.892-1.81 7.74-1.81s5.448.624 7.739 1.81c2.229 1.123 4.087 2.933 5.387 5.054 1.3 2.184 1.981 4.555 1.981 7.239 0 2.683-.681 5.116-1.981 7.238a14.045 14.045 0 01-5.387 5.054c-2.291 1.186-4.891 1.81-7.74 1.81-2.847 0-5.448-.624-7.739-1.81zm11.702-5.305a7.124 7.124 0 002.725-2.87c.681-1.248.99-2.683.99-4.118 0-1.56-.309-2.933-.99-4.119-.62-1.185-1.61-2.184-2.725-2.87a7.903 7.903 0 00-7.801 0c-1.177.686-2.105 1.685-2.786 2.87-.681 1.186-.991 2.621-.991 4.119 0 1.435.31 2.808.99 4.118.62 1.186 1.61 2.184 2.787 2.87 2.353 1.373 5.325 1.373 7.801 0zm16.47-20.591h12.693c3.033 0 5.758.561 8.049 1.622 2.291 1.06 4.086 2.683 5.386 4.742 1.239 2.06 1.92 4.43 1.92 7.239 0 2.745-.619 5.116-1.92 7.175-1.238 2.06-3.034 3.62-5.386 4.743-2.291 1.123-5.016 1.685-8.049 1.685h-12.693V24.835zm12.445 21.34c2.477 0 4.458-.686 5.882-1.997 1.424-1.31 2.167-3.244 2.167-5.678 0-2.434-.743-4.368-2.167-5.74-1.424-1.373-3.405-2.06-5.882-2.06h-5.077v15.475h5.077zm23.961 3.12c-2.229-2.184-3.343-5.18-3.343-8.985V24.835h7.43V40.06c0 2.121.433 3.681 1.362 4.742s2.291 1.623 4.086 1.623c1.734 0 3.096-.562 3.963-1.623.929-1.06 1.362-2.683 1.362-4.742V24.835h7.306V40.31c0 3.806-1.114 6.801-3.343 8.985-2.229 2.184-5.387 3.245-9.411 3.245-4.025 0-7.183-1.061-9.412-3.245zm34.426 1.435c-2.229-1.123-4.087-2.87-5.387-5.054-1.3-2.122-1.981-4.555-1.981-7.238 0-2.684.681-5.117 1.981-7.239a14.045 14.045 0 015.387-5.054c2.291-1.186 4.829-1.81 7.677-1.81 2.601 0 4.83.375 6.749 1.186 1.919.811 3.529 2.06 4.891 3.806l-4.767 4.368c-1.796-2.184-3.963-3.244-6.563-3.244-2.291 0-4.149.748-5.635 2.246-1.486 1.497-2.229 3.432-2.229 5.803 0 1.56.31 2.995.991 4.18a6.742 6.742 0 002.786 2.809c1.239.686 2.663.998 4.087.998 2.6 0 4.767-1.06 6.563-3.245l4.767 4.368c-1.3 1.685-2.972 2.933-4.891 3.744-1.919.811-4.148 1.186-6.749 1.186-2.786 0-5.386-.624-7.677-1.81zm29.038-20.092h-8.482v-5.803h24.395v5.803h-8.483v21.34h-7.43v-21.34zm24.952-8.674v12.98h16.965v2.994h-16.965v14.04h-3.467V18.907h22.475v2.995l-19.008.062zm25.386 3.37h3.343V52.04h-3.343V25.334zm17.832 2.808h-9.35v-2.808h22.042v2.808h-9.349V52.04h-3.343v-23.9zm-18.266-8.3c-.557 1.186 0 2.622 1.177 3.12 1.176.562 2.6 0 3.096-1.185.557-1.185 0-2.62-1.177-3.12-1.176-.561-2.6-.062-3.096 1.186z" fill="#1E959B"/><defs><linearGradient id="paint0_linear" x1="1.982" y1="38.9" x2="316.324" y2="38.9" gradientUnits="userSpaceOnUse"><stop stop-color="#AFDBDE"/><stop offset="1" stop-color="#C7E5E7"/></linearGradient><linearGradient id="paint1_linear" x1=".465" y1="39.031" x2="317.167" y2="39.031" gradientUnits="userSpaceOnUse"><stop stop-color="#AFDBDE"/><stop offset="1" stop-color="#C7E5E7"/></linearGradient></defs></svg>