<svg width="234" height="54" fill="none" xmlns="http://www.w3.org/2000/svg"><circle cx="121" cy="26.999" r="14" fill="#1E959B"/><circle cx="102.216" cy="7.394" r="4.5" transform="rotate(-44.524 102.216 7.394)" fill="#1E959B"/><circle cx="140.783" cy="46.606" r="4.5" transform="rotate(-44.524 140.783 46.606)" fill="#1E959B"/><path fill-rule="evenodd" clip-rule="evenodd" d="M6.998 33a6 6 0 006-6.07c8.486-1.843 25.72-3.307 48.907 1.061 27.671 5.214 49.651 2.18 57.232-.01l-.278-.961c-7.419 2.143-29.24 5.175-56.768-.011-23.168-4.365-40.488-2.95-49.188-1.081A6.002 6.002 0 00.998 27a6 6 0 006 6z" fill="#1E959B" fill-opacity=".25"/><path fill-rule="evenodd" clip-rule="evenodd" d="M227.999 33a6 6 0 10-5.776-4.37c-10.168 1.753-28.766 2.964-51.132-1.25-27.662-5.212-46.988-2.184-53.258.02l.331.943c6.064-2.13 25.204-5.169 52.742.02 22.607 4.259 41.415 3.013 51.676 1.22A6 6 0 00227.999 33z" fill="#1E959B" fill-opacity=".25"/><circle cx="121" cy="27" r="26.5" stroke="#1E959B" stroke-opacity=".15"/></svg>