<svg width="323" height="316" fill="none" xmlns="http://www.w3.org/2000/svg"><path d="M322.396 153.038L200.038 80.746c-8.007-4.64-20.954-4.64-28.962 0l-140.393 80.3c-8.008 4.64-8.082 12.123-.075 16.763l176.914 104.547c8.007 4.64 20.954 4.64 28.961 0l85.838-49.093v-80.225h.075z" fill="url(#paint0_linear)"/><path d="M269.261 109.408L81.421.97c-1.497-.823-2.993-1.122-4.34-.898-2.096.374-4.191.674-6.212 1.048 1.422-.225 2.919.075 4.34.898l187.84 108.438c4.266 2.47 6.511 8.831 5.089 14.294l-42.507 159.028c-.973 3.592-3.293 5.837-5.987 6.286 2.096-.299 4.191-.674 6.212-.973 2.694-.449 5.014-2.694 5.987-6.286l42.507-159.028c1.422-5.463-.823-11.899-5.089-14.369z" fill="#1E273B"/><path d="M263.05 110.456c4.266 2.47 6.511 8.831 5.089 14.294l-42.507 159.028c-1.422 5.463-6.062 7.857-10.328 5.388L27.464 180.728c-4.265-2.47-6.51-8.831-5.088-14.294L64.808 7.406C66.23 1.943 70.87-.452 75.135 2.018L263.05 110.456z" fill="#0F1521"/><path d="M225.557 283.778c-.823 3.143-2.694 5.238-4.939 6.061 2.469-.673 4.565-2.843 5.463-6.136l42.507-159.028c1.422-5.463-.823-11.824-5.089-14.294L75.659 1.868a7.484 7.484 0 00-3.667-.973c-.374.075-.748.15-1.197.225 1.422-.225 2.919.075 4.34.898l187.84 108.438c4.266 2.47 6.511 8.831 5.089 14.294l-42.507 159.028zm-5.163 6.061c.074 0 .074 0 .149-.075-.075.075-.075.075-.149.075z" fill="#2C3957"/><path d="M261.628 115.77c1.946 1.122 2.993 4.041 2.32 6.585l-42.507 159.028c-.674 2.47-2.769 3.592-4.79 2.47L28.811 175.414c-1.945-1.122-2.993-4.116-2.32-6.585L69 9.801c.673-2.47 2.769-3.592 4.79-2.47L261.627 115.77z" fill="#1E959B"/><path d="M64.508 26.49L26.491 168.828c-.673 2.469.375 5.463 2.32 6.585l187.84 108.439c1.946 1.122 4.116 0 4.79-2.47l38.092-142.339L64.508 26.489z" fill="#fff"/><path d="M258.56 127.294L70.645 18.856c-1.946-1.123-4.116 0-4.79 2.47l-1.421 5.163 194.949 112.555 1.347-5.164c.823-2.47-.225-5.463-2.17-6.586z" fill="url(#paint1_linear)"/><path d="M249.579 128.791l-2.843-1.646c-.15-.075-.3 0-.375.224-.074.225 0 .449.15.524l2.844 1.646c.15.075.299 0 .374-.224.075-.225 0-.449-.15-.524zm6.736.898c-.075-.075-.15-.075-.225 0l-1.047.524-.524-1.497c0-.075-.075-.149-.15-.224-.075-.075-.15-.075-.224 0-.15.075-.225.299-.15.524l.524 1.496-1.048.524c-.15.075-.224.299-.15.524 0 .075.075.15.15.224.075.075.15.075.225 0l1.047-.598.524 1.497c0 .074.075.149.15.224.075.075.149.075.224 0 .15-.075.225-.299.15-.524l-.524-1.497 1.048-.598c.149-.075.224-.3.149-.524-.074.075-.149 0-.149-.075z" fill="#CCDAFF"/><path d="M253.097 140.615L130.964 70.119c-.898-.524-1.946 0-2.245 1.198L92.872 205.349c-.3 1.197.15 2.544 1.123 3.068l122.133 70.496c.898.524 1.946 0 2.245-1.197l35.847-134.032c.299-1.123-.15-2.545-1.123-3.069z" fill="#EDEFF2"/><path d="M116.445 97.36L59.569 64.506c-.898-.523-1.946 0-2.245 1.198l-4.715 17.661c-.3 1.198.15 2.545 1.123 3.069l56.876 32.853c.898.524 1.945 0 2.245-1.198l4.714-17.661c.3-1.123-.149-2.47-1.122-3.068z" fill="#353B47"/><path d="M144.509 93.917c-.15-.075-.225-.075-.374-.075-.15 0-.225.075-.3.15l.075-.225v-.074l-.224-.15h-.075l-1.123 4.19v.076l.225.15.075-.076.374-1.421c.075.15.075.299.224.449.075.15.225.224.3.299.224.15.449.15.598.075a.672.672 0 00.449-.45c.075-.149.15-.373.3-.748.075-.299.149-.598.149-.823 0-.3-.074-.524-.149-.748a.857.857 0 00-.524-.599zm.299 1.422c0 .15-.075.3-.075.45-.074.224-.074.373-.149.448-.075.075-.075.15-.15.225-.075.074-.15.15-.299.224-.15 0-.225 0-.374-.075a.585.585 0 01-.3-.3c-.075-.149-.075-.298-.075-.448v-.3c0-.15.075-.299.075-.448.075-.225.075-.375.15-.45.075-.074.075-.15.15-.224.074-.15.149-.225.299-.225.075 0 .224 0 .374.075s.225.225.299.3c.075.15.075.299.075.449v.299zm2.246.001c-.225-.15-.449-.15-.674-.076-.224.075-.374.225-.524.45-.075.074-.075.149-.149.299 0 .074-.075.224-.15.449-.075.374-.15.673-.15.898 0 .299.075.523.15.748.15.224.299.374.524.524.224.15.374.15.598.15.225 0 .375-.075.449-.225v-.075l-.149-.224h-.075c-.075.075-.225.15-.299.224-.15 0-.225 0-.375-.075a.77.77 0 01-.374-.449c-.075-.15-.149-.374-.075-.598 0-.075 0-.225.075-.45l1.572.899h.075l.074-.225c.075-.15.075-.3.075-.449.075-.374 0-.673-.075-.973-.074-.449-.224-.673-.523-.823zm.299 1.72l-1.272-.673c.075-.15.075-.3.149-.374a.585.585 0 01.3-.3c.149-.075.299 0 .449.075a.906.906 0 01.374.374c.075.15.075.374.075.599-.075 0-.075.15-.075.3zm2.469.375l.15-.3v-.075l-.225-.224c-.149-.075-.299-.075-.374-.075-.15 0-.224.075-.374.225l.075-.374v-.075l-.225-.15-.075.075-.823 2.993v.075l.225.15h.075l.449-1.796c.074-.225.149-.374.299-.45a.477.477 0 01.449 0h.075c.075-.074.149 0 .299 0zm1.796.673c-.149-.15-.299-.3-.449-.374-.299-.15-.523-.224-.673-.15-.225.075-.374.225-.374.45a.638.638 0 000 .523l.224.45c.075.149.225.298.374.448l.3.3c.075.074.075.15.149.224.075.075.075.225 0 .299-.074.15-.149.225-.224.3-.15 0-.299 0-.449-.075a.905.905 0 01-.374-.374c-.075-.15-.075-.3-.075-.45v-.149l-.225-.15h-.074v.075a.476.476 0 000 .45l.224.448c.15.15.299.3.449.374.299.15.524.225.674.15.224-.075.374-.224.449-.524.074-.224.074-.374 0-.524l-.225-.449c-.075-.15-.224-.299-.374-.449a2.863 2.863 0 00-.374-.449c-.075-.15-.075-.224-.075-.374.075-.15.15-.224.224-.3.15 0 .3 0 .449.076.15.075.3.224.375.374.074.15.074.3.074.449v.075l.225.15.075-.076c.075-.15.075-.299 0-.523-.075.075-.15-.075-.3-.225zm2.022 1.048c-.225-.15-.449-.15-.674-.15-.224.075-.374.225-.524.45-.075.149-.149.373-.299.673-.075.299-.15.598-.15.823 0 .299.075.599.15.823.15.225.299.449.524.599.224.149.449.149.673.149.225-.074.374-.224.524-.449.075-.149.15-.374.299-.673.075-.299.15-.599.15-.823 0-.3-.075-.524-.15-.824-.074-.299-.299-.449-.523-.598zm.224 1.946c-.075.299-.15.449-.224.598-.075.15-.225.3-.375.3-.149.074-.299 0-.449-.075a.91.91 0 01-.374-.374c-.075-.15-.149-.375-.075-.599 0-.15.075-.374.15-.599.075-.299.15-.449.225-.599.074-.15.224-.299.374-.299.149-.075.299 0 .449.075a.906.906 0 01.374.374c.075.15.15.374.075.599 0 .15-.075.374-.15.599zm2.469-.375c-.299-.149-.524-.149-.748 0l.075-.299v-.075l-.225-.149h-.075l-.823 2.993v.075l.225.15h.074l.524-1.946c.075-.225.15-.374.3-.449.149-.075.299-.075.449.075a.765.765 0 01.374.449c.075.224.075.449 0 .673l-.524 1.946v.075l.225.149h.074l.524-2.02a1.82 1.82 0 000-.898c0-.449-.224-.599-.449-.749zm2.395 1.348c-.224-.15-.449-.225-.673-.15-.225.075-.374.15-.449.374v.075l.224.15h.075c.075-.15.15-.225.225-.225.149 0 .224 0 .374.075.224.075.299.224.374.449.075.15.075.374 0 .599l-.075.224-.524-.299c-.299-.15-.598-.225-.823-.15-.224.075-.374.299-.449.599-.075.299-.075.598.075.823a.905.905 0 00.524.524c.15.075.299.15.449.15.15 0 .299 0 .374-.075l-.075.224v.075l.225.15h.075l.523-2.021a1.82 1.82 0 000-.898c.075-.299-.149-.524-.449-.673zm0 2.469c-.074.225-.149.299-.299.374-.15 0-.374 0-.524-.074a.907.907 0 01-.374-.375c-.075-.149-.075-.299 0-.524.075-.224.15-.299.299-.374.15 0 .375 0 .524.15l.524.299-.15.524zm1.945-2.619l-1.122 4.191v.074l.224.15.075-.075 1.123-4.116v-.075l-.3-.149zm2.545 2.769c-.225-.15-.449-.225-.674-.15-.224.075-.374.15-.449.374v.075l.225.15h.074c.075-.15.15-.225.225-.225.15 0 .224 0 .374.075.225.075.3.225.374.449.075.15.075.374 0 .599l-.075.224-.523-.299c-.3-.15-.599-.225-.824-.15-.224.075-.374.3-.449.599-.074.299-.074.599.075.823.075.225.3.449.524.524.15.075.299.15.449.15.15 0 .299 0 .374-.075l-.075.224v.075l.225.15h.075l.524-2.021a1.82 1.82 0 000-.898c.075-.299-.15-.524-.449-.673zm0 2.469c-.075.225-.15.3-.3.374-.149.075-.374 0-.524-.074a.907.907 0 01-.374-.375c-.075-.149-.075-.299 0-.523.075-.225.15-.3.3-.375.149 0 .374 0 .523.15l.524.299-.149.524zm3.068-.224c0-.15-.15-.3-.225-.449-.149-.15-.224-.3-.449-.374-.224-.15-.523-.225-.673-.15-.225.075-.374.224-.374.449a.638.638 0 000 .524l.224.449c.075.149.225.299.374.449l.3.299c.075.075.075.15.149.299v.3c-.074.15-.149.224-.224.299-.15 0-.299 0-.449-.075a.893.893 0 01-.374-.374c-.075-.15-.075-.299-.075-.449v-.15l-.225-.149h-.075v.075c-.074.149 0 .299 0 .449l.225.449c.15.149.299.299.449.374.299.15.524.224.674.15.224-.075.374-.225.449-.524.074-.225.074-.375 0-.524l-.225-.449c-.075-.15-.224-.3-.374-.449-.15-.225-.299-.374-.374-.449-.075-.15-.075-.3-.075-.374.075-.15.15-.225.224-.225.15 0 .225 0 .449.075.15.075.3.224.375.374.074.15.074.299.074.449v.075l.225.15.075-.075c-.075-.075 0-.3-.075-.449zm2.021.823c-.15-.149-.299-.299-.449-.374-.299-.15-.524-.224-.674-.15-.224.075-.374.225-.374.449a.638.638 0 000 .524l.225.449c.075.15.224.3.374.449l.299.3c.075.074.075.149.15.224 0 .075.075.225 0 .299-.075.15-.15.225-.225.3-.149 0-.299 0-.449-.075a.91.91 0 01-.374-.374c-.075-.15-.075-.3-.075-.449v-.15l-.224-.15h-.075v.075a.476.476 0 000 .449l.225.449c.149.15.299.3.449.374.299.15.523.225.673.15.225-.075.374-.224.449-.524.075-.224.075-.374 0-.524l-.224-.449c-.075-.149-.225-.299-.375-.449a2.837 2.837 0 00-.374-.449c-.075-.149-.075-.224-.075-.374.075-.149.15-.224.225-.299.15 0 .299 0 .449.075a.9.9 0 01.374.374c.075.15.075.299.075.449v.075l.224.149.075-.074c.075-.15.075-.3 0-.524-.149.075-.224-.075-.299-.225zm1.197.599h-.074l-.824 2.993v.075l.3.15.075-.075.748-2.919v-.149l-.225-.075zm.449-.524c.075 0 .15-.075.15-.225v-.299c0-.075-.075-.15-.15-.224-.075-.075-.149-.075-.224 0-.075 0-.15.074-.15.224v.299c0 .075.075.15.15.225.075.075.149.075.224 0zm1.871 1.946c-.15-.15-.224-.3-.449-.374-.224-.15-.524-.225-.673-.15-.225.075-.375.224-.375.449a.646.646 0 000 .524l.225.449c.075.149.224.299.374.449l.299.299c.075.075.075.15.15.225 0 .074.075.224 0 .299-.075.15-.15.224-.224.299-.15.075-.3 0-.449-.075a.896.896 0 01-.375-.374c-.074-.149-.074-.299-.074-.449v-.149l-.225-.15h-.075v.075c-.075.149 0 .299 0 .449l.225.449c.149.149.299.299.449.374.299.15.524.224.673.15.225-.075.374-.225.374-.524.075-.225.075-.374 0-.524l-.224-.449c-.075-.15-.225-.299-.374-.449-.15-.225-.3-.374-.374-.449-.075-.15-.075-.299-.075-.374.075-.15.149-.225.224-.225.15 0 .3 0 .449.075a.9.9 0 01.374.374c.075.15.075.3.075.449v.075l.225.15h.075c.074-.15.074-.3 0-.524-.075-.075-.15-.225-.225-.374zm2.095 1.421l.075-.224v-.075l-.524-.299.225-.674v-.075l-.225-.149-.074.075-.225.673-.299-.15h-.075l-.075.225v.075l.299.149v.075l-.523 1.946c-.075.299-.075.524 0 .748.074.15.224.3.449.449a.23.23 0 00.149.075h.075l.075-.224v-.075l-.15-.075a.59.59 0 01-.299-.299.476.476 0 010-.449l.449-1.796.673.074zm1.572.524c-.224-.149-.449-.224-.673-.149-.225.075-.375.149-.449.374v.075l.224.224h.075c.075-.149.15-.224.224-.224.15 0 .225 0 .375.075.224.074.299.224.374.449.075.149.075.374 0 .598l-.075.225-.524-.3c-.299-.149-.599-.224-.823-.149-.225.075-.374.299-.449.598-.075.3-.075.599.075.824.149.224.299.449.524.523.149.075.299.15.449.15.149 0 .299 0 .374-.075l-.075.225v.075l.224.149h.075l.524-2.02c.075-.3.075-.599-.075-.898.075-.374-.075-.599-.374-.749zm0 2.47c-.075.224-.15.299-.299.374-.15 0-.374 0-.524-.075a.9.9 0 01-.374-.374c-.075-.15-.075-.299 0-.524.075-.224.149-.299.299-.374.15 0 .374 0 .524.15l.524.299-.15.524zm2.62-.898c-.3-.15-.524-.15-.749 0l.075-.299v-.075l-.225-.15h-.074l-.824 2.994v.074l.225.15h.075l.524-1.946c.074-.224.149-.374.299-.449.15-.075.299-.075.449.075.15.075.299.225.374.449.075.225.075.449 0 .674l-.524 1.945v.075l.225.15h.075l.524-2.021a1.844 1.844 0 000-.898c-.075-.449-.225-.673-.449-.748zm2.543 1.497l-.523-.3.224-.673v-.075l-.224-.15h-.075l-.225.674-.299-.15-.075.075-.075.225v.074l.3.15-.524 1.946c-.075.299-.075.524 0 .748.075.15.224.3.449.449a.231.231 0 00.149.075h.075l.075-.224v-.075l-.15-.075a.59.59 0 01-.299-.299.478.478 0 010-.45l.449-1.796.524.3.075-.075.075-.225.074-.149zm-35.023-25.22v-.15c0-.15 0-.3-.075-.449a.894.894 0 00-.374-.374c-.149-.075-.299-.075-.374-.075-.15.075-.224.15-.299.225-.075.074-.15.224-.15.449-.075.224-.075.374-.075.523 0 .15 0 .375.075.524.075.15.15.3.299.374.15.075.3.075.449.075.15 0 .225-.075.3-.224v-.15l-.15-.15h-.075c-.075.075-.149.15-.224.15-.075 0-.15 0-.3-.075a47.36 47.36 0 00-.224-.224c-.075-.075-.075-.225-.075-.374 0-.075 0-.225.075-.375s.075-.299.15-.374l.224-.224c.075 0 .15 0 .299.075l.225.224c.075.075.075.225.075.3v.149l.224.15zm.225 1.646l.225.225c.15.075.299.075.449 0l-.075.15v.074l.15.075h.075l.523-1.87V89.8l-.149-.075h-.075l-.299 1.198c0 .15-.075.224-.225.3a.227.227 0 01-.299 0 1.032 1.032 0 01-.225-.3c-.075-.15-.075-.225 0-.374l.3-1.198v-.075l-.15-.074h-.075l-.374 1.272c0 .15-.075.224 0 .374.15.15.15.225.224.374zm1.572.898c.074.075.149.15.299.225.15.075.299.15.449.075.15-.075.225-.15.225-.3v-.3c0-.074-.075-.224-.15-.299a1.032 1.032 0 01-.225-.299c-.149-.15-.224-.224-.224-.3-.075-.074-.075-.149 0-.224 0-.075.075-.15.149-.15.075 0 .15 0 .3.075.075.075.224.15.224.225a.227.227 0 010 .3v.074l.15.075h.075v-.3c0-.074-.075-.224-.15-.299-.075-.075-.149-.15-.299-.224-.15-.075-.3-.15-.449-.075-.15.075-.225.15-.225.3v.299c0 .074.075.224.15.299.075.075.15.15.224.3.075.074.15.149.15.224l.075.15v.15c0 .074-.075.149-.15.149s-.149 0-.299-.075l-.225-.224c-.074-.075-.074-.225-.074-.3v-.075l-.15-.075h-.075v.375c.075 0 .15.075.225.224zm1.721 1.048l.075.075h.074l.075-.15v-.075l-.075-.075c-.074-.074-.149-.15-.149-.224v-.3l.299-1.122.299.225h.075l.075-.15v-.075l-.299-.225.149-.448v-.075l-.149-.075h-.075l-.15.449-.149-.075h-.075l-.075.15v.075l.15.074-.3 1.198a.476.476 0 000 .449c0 .15.075.3.225.374zm.748.299c.075.15.225.3.299.374.15.075.3.075.375.075.149 0 .224-.15.299-.3.075-.074.075-.224.15-.448.074-.225.074-.374.074-.524 0-.15 0-.374-.074-.524-.075-.15-.15-.224-.3-.374-.149-.075-.299-.075-.374-.075-.15 0-.224.15-.299.3-.075.074-.075.224-.15.449-.075.224-.075.374-.075.523 0 .225 0 .374.075.524zm.225-.898c.074-.15.074-.3.149-.374l.225-.224a.57.57 0 01.299.074l.225.225c.074.075.074.224.074.374 0 .075 0 .225-.074.374-.075.15-.075.3-.15.374l-.225.225c-.074 0-.149 0-.299-.075l-.224-.225c-.075-.074-.075-.224-.075-.374 0-.075 0-.224.075-.374zm2.17.45c.075.074.15.149.224.299.075.15.075.224 0 .374l-.299 1.197v.075l.15.075h.075l.299-1.198c0-.15.075-.224.15-.299.074-.075.149 0 .299 0 .075.075.15.15.225.3.074.15.074.224 0 .374l-.3 1.197v.075l.15.075h.075l.374-1.273c.075-.224.075-.374 0-.523-.075-.15-.15-.3-.299-.375-.075-.075-.225-.075-.3-.075-.075 0-.15.075-.224.15 0-.15-.075-.224-.075-.3l-.225-.224c-.075-.075-.149-.075-.224-.075-.075 0-.15 0-.225.075l.075-.15v-.074l-.15-.075h-.074l-.524 1.87v.076l.149.075h.075l.3-1.198c0-.15.074-.224.149-.3 0-.224.075-.224.15-.149zm2.021 3.142c.149.075.224.075.374.075s.224-.075.299-.15v-.074l-.075-.15h-.074c-.075.075-.15.075-.225.15-.075 0-.15 0-.224-.075-.075-.075-.225-.15-.225-.225-.075-.074-.075-.224-.075-.374 0-.075 0-.15.075-.3l.973.525h.075v-.15c0-.075.075-.224.075-.3 0-.224 0-.448-.075-.598-.075-.15-.225-.3-.374-.449-.15-.075-.3-.075-.375-.075a.587.587 0 00-.299.3c0 .074-.075.074-.075.15 0 .074-.075.149-.075.224-.075.224-.075.449-.075.524 0 .15.075.299.075.449.075.299.15.449.3.523zm0-1.646l.224-.225c.075 0 .15 0 .3.075l.224.225c.075.075.075.224.075.374 0 .075 0 .15-.075.225l-.748-.45c-.075-.074 0-.15 0-.224zm1.196 2.32l.375-1.123c0-.15.074-.224.224-.299.075-.075.225-.075.299 0h.075l.075.075h.075l.075-.15v-.075l-.15-.15c-.075-.074-.15-.074-.224-.074-.075 0-.15.075-.225.15l.075-.225v-.075l-.15-.075h-.075l-.523 1.871v.075l.074.075zm2.022 1.122c.149.075.299.15.449.075.149-.075.224-.15.224-.3v-.298c0-.075-.075-.225-.149-.3a1.032 1.032 0 01-.225-.3c-.15-.149-.224-.224-.224-.298-.075-.075-.075-.15 0-.225 0-.075.074-.15.149-.15s.15 0 .3.075c.074.075.224.15.224.225a.227.227 0 010 .3v.074l.15.075h.075v-.3c0-.075-.075-.224-.15-.299-.075-.075-.15-.15-.299-.224-.15-.075-.3-.15-.449-.075-.15.075-.225.15-.225.299v.3c0 .074.075.224.15.299.075.075.149.15.224.3.075.074.15.149.15.224l.075.15v.149c0 .075-.075.15-.15.15s-.15 0-.299-.075l-.225-.225c-.075-.075-.075-.224-.075-.3v-.074l-.149-.075h-.075v.375c0 .074.075.224.15.299.149 0 .224.15.374.15zm1.196.674l.225.225c.15.075.374.075.449 0l-.075.15v.074l.15.075h.075l.524-1.87v-.076l-.15-.075h-.075l-.299 1.198c0 .15-.075.224-.225.3a.227.227 0 01-.299 0c-.075-.076-.15-.15-.225-.3-.075-.15-.075-.225 0-.374l.3-1.198v-.075l-.15-.074h-.075l-.374 1.272c0 .15-.075.224 0 .374s.15.225.224.374zm2.769-.449a.58.58 0 00-.299-.3c-.075-.074-.15-.074-.224-.074-.075 0-.15 0-.225.075l.075-.15v-.075l-.15-.075h-.075l-.673 2.62v.074l.149.075h.075l.225-.898c0 .075.075.15.149.225l.225.224c.15.075.299.075.374.075.15 0 .225-.15.3-.3.074-.074.149-.224.149-.448.075-.225.075-.374.075-.524 0-.225-.075-.374-.15-.524zm-.149.599c0 .075 0 .15-.075.299 0 .15-.075.224-.075.3 0 .074-.075.149-.075.149-.075.075-.075.15-.149.15-.075 0-.15 0-.225-.075-.075-.075-.15-.075-.15-.225-.074-.075-.075-.15-.075-.299v-.225c0-.074.001-.15.075-.299 0-.15.075-.224.075-.3 0-.074.075-.149.075-.149.075-.075.075-.15.15-.15h.224l.225.225c.075.075.075.15.075.3-.075.149-.075.224-.075.299zm.374 2.469l.224-.898c0 .075.075.15.15.3.075.074.15.149.225.149a.81.81 0 00.374.075c.15 0 .224-.15.299-.299.075-.075.075-.225.15-.449.075-.225.075-.375.075-.524 0-.15 0-.374-.075-.45a.587.587 0 00-.299-.299c-.075-.074-.15-.074-.225-.074-.075 0-.15 0-.225.075l.075-.15v-.075l-.149-.075h-.075l-.674 2.619v.075h.15zm.374-1.422c0-.075 0-.15.075-.299 0-.15.075-.225.075-.3 0-.074.075-.149.075-.149.074-.075.075-.15.149-.15h.225l.224.225c.075.075.075.15.075.3v.224c0 .074 0 .15-.075.299 0 .15-.074.225-.074.299 0 .075-.075.15-.075.15-.075.075-.075.15-.15.15s-.15 0-.225-.075c-.074-.075-.149-.075-.149-.225-.075-.074-.075-.149-.075-.299-.075 0-.075-.075-.075-.15zm1.797 1.871a.81.81 0 00.374.075c.15 0 .224-.15.299-.299.075-.075.15-.225.15-.449.075-.225.075-.374.075-.524 0-.15 0-.374-.075-.524-.075-.15-.15-.225-.299-.374-.15-.075-.3-.15-.375-.075-.149 0-.224.15-.299.3-.075.074-.15.224-.15.448-.074.225-.074.375-.074.524 0 .225 0 .374.074.524 0 .15.15.299.3.374zm-.15-1.272c.075-.15.075-.299.15-.374l.224-.225c.075 0 .15 0 .3.075l.224.225c.075.075.075.224.075.374 0 .075 0 .224-.075.374s-.075.299-.15.374l-.224.225c-.075 0-.15 0-.299-.075l-.225-.225c-.075-.074-.075-.224-.075-.374 0-.075 0-.149.075-.374zm1.347 1.946l.375-1.123c.075-.149.074-.224.224-.299a.228.228 0 01.3 0l.149.075h.075l.075-.15v-.075c0-.075-.075-.075-.15-.149-.075-.075-.149-.075-.224-.075-.075 0-.15.075-.225.149l.075-.224v-.075l-.15-.075h-.074l-.524 1.871v.075l.074.075zm1.497.823l.075.075h.075l.075-.15v-.075l-.075-.074c-.075-.075-.15-.15-.15-.225v-.299l.3-1.123.374.225h.075l.074-.15v-.075l-.374-.224.15-.449v-.075l-.15-.075h-.075l-.149.449-.15-.075h-.075l-.075.15v.075l.15.074-.299 1.198a.476.476 0 000 .449c0 .224.075.299.224.374z" fill="#000"/><path d="M136.95 81.195c-2.844-1.646-5.987 0-6.96 3.667-.973 3.667.524 8.008 3.443 9.654 2.844 1.646 5.987 0 6.96-3.667.972-3.667-.599-7.933-3.443-9.654z" fill="#1E959B"/><path d="M137.848 86.21l-3.892-2.246c-.523-.3-1.122 0-1.272.674l-.823 3.068c-.15.673.075 1.422.599 1.721l1.871 1.048-.225.973c0 .075 0 .224.075.3l.075.074c.075 0 .075.075.149 0l1.347-.599.674.374c.524.3 1.123 0 1.272-.673l.823-3.068c.15-.524-.149-1.347-.673-1.647zm.224 1.496l-.823 3.068c-.075.374-.449.524-.673.374l-.749-.448h-.149l-.973.374.149-.599c.075-.15 0-.3-.149-.374l-2.096-1.198c-.299-.15-.449-.598-.374-.973l.823-3.068c.075-.374.449-.524.674-.374l3.891 2.245c.375.225.524.599.449.973z" fill="#fff"/><path d="M133.882 87.182c-.224-.075-.374 0-.449.225-.074.224 0 .523.225.598.15.075.374 0 .449-.224.075-.15 0-.45-.225-.599zm1.271.748c-.149-.074-.374 0-.449.225-.074.225.075.524.225.599.15.075.374 0 .449-.225.075-.224-.075-.523-.225-.598zm1.198.749c-.15-.075-.374 0-.449.224-.075.225 0 .524.225.6.224.074.374 0 .449-.225.074-.225 0-.524-.225-.6z" fill="#fff"/><path d="M238.354 146.378c-.374-.225-.823 0-.898.524-.15.523.075 1.047.449 1.272.374.224.823 0 .898-.524.15-.449-.075-1.048-.449-1.272zm3.367 2.02c-.374-.224-.823 0-.898.524-.149.524.075 1.048.449 1.272.374.225.823 0 .898-.524.15-.523 0-1.047-.449-1.272zm3.444 1.946c-.375-.224-.824 0-.898.524-.15.524.074 1.048.449 1.272.374.225.823 0 .898-.524.149-.449-.075-1.047-.449-1.272z" fill="#000"/><path d="M244.565 163.515l-117.942-68.1-.075.298 117.942 68.102.075-.3z" fill="#D0D8EB"/><path d="M184.247 137.397l-55.528-32.03c-2.021-1.122-4.191 0-4.865 2.545l-5.762 21.478 59.196 34.125c2.02 1.123 4.19 0 4.864-2.544l4.49-16.838c.674-2.545-.449-5.613-2.395-6.736z" fill="#1E959B"/><path d="M127.147 118.688l.449-1.572 1.272.749-.374 1.571v.075l.225.15.074-.075.898-3.442v-.075l-.224-.15-.075.075-.374 1.497-.075.074-1.272-.748v-.075l.449-1.496-.075-.075-.15-.15h-.074l-.973 3.517.074.075.225.075zm2.395 1.422l.149.075h.075l.674-2.47v-.075l-.225-.149-.075.075-.673 2.469.075.075zm.898-2.994h.149c.075 0 .075-.074.15-.149v-.225c0-.075-.075-.149-.15-.149-.074 0-.149-.075-.149 0-.075 0-.075.074-.15.149v.225l.15.149zm-.15 3.892l.075.075h.15l.523-.973v-.075l-.224-.075-.524.973v.075zm3.892-2.021l.748.524.075-.075.075-.224-.075-.075-1.871-1.048-.075.225v.075l.749.449-.824 3.218v.075l.225.149.075-.075.823-3.143.075-.075zm1.796 2.171c.15.074.224.224.299.374a.638.638 0 010 .524l-.449 1.646v.075l.225.15h.075l.449-1.722c.074-.299.074-.524 0-.748-.075-.225-.225-.374-.449-.524-.225-.15-.449-.15-.599 0l.299-1.197v-.075l-.224-.15h-.075l-.898 3.518v.074l.224.15h.075l.449-1.646c.075-.225.15-.3.225-.375.075-.149.224-.149.374-.074zm1.272 3.517c.15.075.225.15.375.15.149 0 .224 0 .299-.075l-.075.224v.075l.225.15h.074l.449-1.721a1.275 1.275 0 000-.749c-.074-.224-.224-.449-.523-.524-.225-.149-.375-.149-.599-.149-.15.075-.299.149-.374.299v.075l.224.15h.075c.075-.075.15-.15.225-.15.074 0 .224 0 .299.075.15.075.299.224.299.374a.476.476 0 010 .449l-.075.224-.449-.299c-.224-.15-.449-.224-.673-.15-.225.075-.299.225-.374.449-.075.225-.075.449.075.674.224.15.374.299.523.449zm-.149-1.048a.585.585 0 01.299-.299c.15 0 .299 0 .449.075l.449.224-.075.374c-.075.15-.149.3-.299.3s-.299 0-.449-.075a.582.582 0 01-.299-.299c-.075 0-.15-.15-.075-.3zm2.693-.075c.15-.074.225-.074.374 0 .15.075.225.225.3.375a.636.636 0 010 .523l-.449 1.647v.075l.224.149h.075l.449-1.721c.075-.299.075-.524 0-.748-.075-.225-.224-.374-.449-.524-.224-.15-.449-.15-.599 0l.075-.225v-.074l-.224-.15h-.075l-.674 2.47v.074l.225.15h.075l.449-1.646c0-.15.074-.3.224-.375zm2.77 4.042l-.15-2.096.674-.449v-.075l-.225-.149h-.075l-1.122.673v-.075l.524-2.095v-.075l-.225-.075h-.075l-.898 3.518v.074l.225.075h.075l.224-.898.599-.374v.075l.149 1.796.225.15h.075zm.897 1.721c.15.075.299.149.374.149.075 0 .15 0 .299-.074.075-.075.225-.225.3-.375l1.497-2.32v-.074l-.225-.15h-.075l-1.048 1.796v-2.47l-.224-.149h-.075v2.918c-.075.15-.224.3-.224.375-.075.074-.15.074-.225.074-.075 0-.15 0-.224-.074h-.075l-.075.224v.15zm2.245-.599c0 .225.075.449.15.674a.675.675 0 00.449.449c.224.149.374.149.524.074a.993.993 0 00.449-.374c.074-.149.149-.299.224-.598.075-.3.15-.524.075-.674 0-.224-.075-.449-.15-.673a.675.675 0 00-.449-.45c-.224-.149-.374-.149-.524-.074-.149.075-.299.149-.449.374-.074.15-.149.299-.224.599 0 .224-.075.449-.075.673zm.374-.524c.075-.224.15-.374.15-.524.075-.149.15-.224.299-.224.15-.075.225 0 .374.075.15.075.225.149.3.299.075.15.075.299.075.449 0 .15-.075.299-.075.524-.075.224-.15.374-.15.524a.59.59 0 01-.299.299c-.15 0-.225 0-.374-.075a.584.584 0 01-.3-.299c-.075-.15-.075-.299-.075-.449 0-.15.075-.374.075-.599zm3.593.599l-.524 1.646c-.075.225-.15.3-.224.375-.15.074-.225.074-.375-.075-.149-.075-.224-.225-.299-.374a.638.638 0 010-.524l.449-1.647v-.075l-.225-.149h-.074l-.449 1.721a.638.638 0 000 .524c0 .15.074.299.149.449.075.15.225.224.3.299.224.15.449.15.598 0l-.074.225v.075l.224.149h.075l.673-2.469v-.075l-.224-.075zm1.197 3.667l.225.15h.074l.599-2.171.449.225h.075l.075-.225v-.075l-.449-.224v-.075c.075-.224.15-.299.224-.374.075-.075.225 0 .3.075l.075.075h.074l.075-.225v-.075l-.149-.075c-.15-.074-.3-.149-.45-.149-.074 0-.224.075-.299.149-.075.075-.15.225-.224.449v.15l-.3-.15h-.075l-.074.225v.075l.299.149-.524 2.096zm1.347-.748c-.075.299-.075.449-.15.673 0 .225.075.449.15.674a.677.677 0 00.449.449c.225.074.374.149.524.074a.988.988 0 00.449-.374 2.48 2.48 0 00.224-.598c.075-.3.075-.524.15-.674 0-.224-.075-.449-.15-.673a.673.673 0 00-.449-.45c-.224-.149-.374-.149-.523-.074a.983.983 0 00-.449.374c-.075.15-.15.374-.225.599zm.449-.3c.075-.149.15-.224.299-.224.15 0 .225 0 .375.075a.582.582 0 01.299.299c.075.15.075.299.075.449 0 .15-.075.299-.075.524-.075.224-.15.374-.15.524a.585.585 0 01-.299.299c-.15 0-.225 0-.374-.075a.587.587 0 01-.3-.299c-.074-.15-.074-.3-.074-.449 0-.15.074-.3.074-.524 0-.374.075-.524.15-.599zm2.395 1.123c.15-.075.225-.075.374 0h.075c.075 0 .15.075.15.149h.075l.149-.224v-.075l-.224-.225c-.075-.074-.225-.074-.3-.074-.074 0-.224.074-.299.149l.075-.299v-.075l-.225-.15h-.074l-.674 2.47v.075l.225.15h.074l.375-1.497a.41.41 0 01.224-.374zm2.993 3.367l.075-.074v-.075l-.15-.15h-.075c-.075.15-.149.225-.299.225s-.225 0-.374-.075a.586.586 0 01-.3-.3c-.074-.149-.074-.299-.074-.449 0-.149.074-.299.074-.524.075-.224.15-.374.15-.523.075-.15.15-.225.299-.225.15 0 .225 0 .375.075a.59.59 0 01.299.299c.075.15.075.3.075.449v.15l.224.075h.075v-.15c0-.224-.075-.449-.15-.599a.673.673 0 00-.449-.449c-.224-.074-.374-.149-.523-.074a.983.983 0 00-.449.374c-.075.149-.15.374-.225.598-.075.3-.15.524-.15.674 0 .225.075.449.15.674a.677.677 0 00.449.449.81.81 0 00.524.149c.224-.224.374-.374.449-.524zm1.872-1.272c-.225-.15-.375-.15-.524-.075-.15.075-.3.15-.449.374-.075.15-.15.3-.225.599-.075.3-.075.449-.075.674 0 .224.075.449.15.673a.675.675 0 00.449.449c.225.15.374.15.524.075.15-.075.299-.15.449-.374.075-.15.15-.299.224-.599.075-.299.075-.524.075-.673 0-.225-.075-.449-.149-.674-.15-.15-.225-.374-.449-.449zm.149 1.647c-.075.224-.149.374-.149.523a.586.586 0 01-.3.3c-.149 0-.224 0-.374-.075a.582.582 0 01-.299-.299c-.075-.15-.075-.3-.075-.449 0-.15.075-.3.075-.524.074-.225.149-.374.149-.524.075-.15.15-.225.3-.225.149-.075.224 0 .374.075s.224.15.299.3c.075.149.075.299.075.449.075.074 0 .224-.075.449zm2.096-.375c-.225-.149-.449-.149-.599 0l.075-.224v-.075l-.225-.15h-.075l-.673 2.47v.075l.224.15h.075l.449-1.647a.803.803 0 01.225-.374c.149-.075.224-.075.374 0s.224.224.299.374a.638.638 0 010 .524l-.449 1.646v.075l.225.15h.075l.449-1.721c.074-.3.074-.524 0-.749-.075-.224-.225-.374-.449-.524zm2.17 1.572l.075-.225v-.075l-.524-.224.149-.599v-.075l-.224-.149h-.075l-.15.598-.224-.149h-.075l-.075.224v.075l.225.15-.449 1.646c-.075.225-.075.449 0 .599.074.15.224.299.374.374a.231.231 0 00.149.075h.075l.075-.225v-.074l-.075-.075c-.149-.075-.224-.15-.224-.225-.075-.075 0-.224 0-.374l.374-1.497.599.225zm1.347.449c-.225-.15-.374-.15-.599-.15-.15.075-.299.15-.374.3v.074l.224.15h.075c.075-.075.15-.15.225-.15.075 0 .224 0 .299.075.15.075.3.225.3.374.074.15.074.3 0 .449l-.075.225-.449-.299c-.225-.15-.449-.225-.674-.15a.765.765 0 00-.374.449c-.075.224-.075.449.075.673a.675.675 0 00.449.45c.149.074.224.149.374.149s.225 0 .299-.075l-.074.225v.075l.224.149h.075l.449-1.721a1.271 1.271 0 000-.748 1.409 1.409 0 00-.449-.524zm-.075 2.095c-.075.15-.15.3-.299.3-.15 0-.3 0-.449-.075a.586.586 0 01-.3-.3c-.075-.149-.075-.224 0-.449a.587.587 0 01.3-.299c.149 0 .299 0 .449.075l.449.224-.15.524zm2.171-.823c-.225-.075-.375-.149-.524-.075-.15.075-.3.15-.449.375-.075.149-.15.374-.225.598-.075.3-.149.524-.149.674 0 .224.074.449.149.673a.673.673 0 00.449.449c.225.15.374.15.524.15.15-.075.299-.15.374-.299l.075-.075v-.075l-.15-.15h-.074c-.075.15-.15.225-.3.225-.149 0-.224 0-.374-.075a.585.585 0 01-.299-.299c-.075-.15-.075-.3-.075-.449 0-.15.075-.3.075-.524.075-.225.149-.374.149-.524.075-.15.15-.225.3-.225.075-.074.224 0 .374.075s.224.225.299.3c.075.149.075.299.075.449v.149l.225.075h.074v-.15c0-.224-.074-.449-.149-.598-.075-.449-.225-.599-.374-.674zm2.169 1.272l-.449-.224.15-.599v-.075l-.225-.075h-.075l-.149.599-.225-.15h-.075l-.075.225v.075l.225.149-.449 1.647c-.075.224-.075.449 0 .599a.905.905 0 00.374.374c.075.075.15.075.15.075h.075l.074-.225v-.075l-.074-.075c-.15-.074-.225-.149-.225-.224-.075-.075 0-.225 0-.374l.374-1.497.449.224h.075l.075-.374zm1.272.674c-.224-.15-.374-.15-.524-.075-.149.075-.299.15-.449.374 0 .075-.074.15-.074.225 0 .075-.075.224-.075.374-.075.299-.15.524-.15.748 0 .225.075.449.15.599a.675.675 0 00.449.449c.149.075.374.15.524.15a.412.412 0 00.374-.225v-.075l-.15-.224h-.075c-.074.075-.149.149-.299.149-.075 0-.225 0-.299-.074-.15-.075-.3-.225-.3-.375-.075-.149-.075-.299-.075-.449 0-.074 0-.149.075-.374l1.273.749h.074l.075-.15c.075-.15.075-.299.075-.374.075-.3 0-.599-.075-.823-.075-.225-.299-.449-.524-.599zm.225 1.497l-1.048-.599c.075-.15.075-.299.15-.299.075-.15.149-.225.299-.225.075-.075.225 0 .374.075.15.075.225.224.3.299.075.15.075.3.075.449-.075 0-.075.15-.15.3zm2.694-.898l-.374 1.197c0-.15-.075-.225-.15-.374a1.015 1.015 0 00-.299-.225c-.224-.075-.374-.149-.524-.075-.149.075-.299.15-.374.375a2.48 2.48 0 00-.224.598c-.075.3-.15.524-.15.674 0 .224 0 .449.15.673a.67.67 0 00.449.449c.074.075.224.075.299.075.075 0 .224-.075.299-.075l-.075.225v.075l.225.149h.075l.898-3.517v-.075l-.225-.149zm-.524 1.87c0 .075-.074.225-.074.375-.075.149-.075.299-.15.374 0 .075-.075.15-.15.224l-.224.225c-.075 0-.225 0-.3-.075-.074-.075-.224-.15-.299-.299-.075-.15-.075-.225-.075-.375v-.299c0-.075.075-.224.075-.374.075-.15.075-.299.15-.374.075-.075.075-.15.149-.225.075-.075.15-.149.225-.149.075 0 .224 0 .299.074l.225.225c.075.15.075.224.075.374.074.15.074.225.074.299zm3.219.824l-.524 1.646c-.075.225-.15.299-.224.374-.15.075-.225.075-.375 0-.149-.075-.224-.224-.299-.374a.638.638 0 010-.524l.449-1.646v-.075l-.224-.15h-.075l-.449 1.722a.636.636 0 000 .523c0 .15.074.3.149.449.075.15.225.225.3.3.224.149.449.149.598 0l-.074.224v.075l.224.15h.075l.673-2.47v-.075l-.224-.149zm1.945 1.197c-.074-.15-.224-.224-.374-.299-.224-.15-.449-.15-.599-.075-.149.075-.299.15-.374.374a.476.476 0 000 .449c.075.15.075.225.15.374.075.075.224.225.299.375.075.149.225.224.225.299.075.075.075.15.15.224v.225c0 .15-.075.224-.225.224-.075 0-.225 0-.374-.074a.586.586 0 01-.3-.3c-.074-.149-.074-.224-.074-.374v-.15l-.225-.074h-.075v.449c0 .149.075.299.225.374.075.149.224.224.374.299.224.15.449.15.599.15a.771.771 0 00.374-.449.476.476 0 000-.449c-.075-.15-.075-.3-.225-.374-.074-.075-.224-.225-.299-.375-.15-.149-.225-.299-.299-.374-.075-.075-.075-.224-.075-.374s.075-.225.224-.225c.075 0 .225 0 .375.075.149.075.224.225.299.3.075.149.075.224.075.374v.075l.224.075h.075c0-.15.075-.3 0-.45l-.15-.299zm.749 2.769c0-.075-.075-.149-.15-.149-.075-.075-.149-.075-.149 0-.075 0-.075.074-.15.149v.225c0 .075.075.149.15.149.074.075.149.075.149 0 .075 0 .075-.074.15-.149v-.225zm-51.488-26.193l-.225-.149-.074.074-.375 1.497-.074.075-1.273-.748v-.075l.449-1.497-.074-.075-.15-.15h-.075l-.973 3.518.075.075.225.149v-.075l.449-1.571 1.272.748-.374 1.572v.075l.224.149.075-.074.898-3.443v-.075zm1.198 1.796c-.225-.149-.374-.149-.524-.074a.988.988 0 00-.449.374 2.48 2.48 0 00-.224.598c-.075.3-.075.449-.075.674 0 .225.075.449.149.674a.677.677 0 00.449.449c.225.149.375.149.524.074.15-.074.3-.149.449-.374.075-.149.15-.299.225-.598.075-.3.075-.524.149-.674 0-.225-.074-.449-.149-.674-.15-.149-.3-.299-.524-.449zm.224 1.647c-.074.224-.149.374-.149.524-.075.149-.15.224-.3.224-.149.075-.224 0-.374-.075a.582.582 0 01-.299-.299c-.075-.15-.075-.299-.075-.449 0-.15.075-.299.075-.524.075-.224.15-.374.15-.524a.582.582 0 01.299-.299c.15-.075.224 0 .374.075s.225.149.299.299c.075.15.075.299.075.449 0 .225 0 .374-.075.599zm3.293.449l-1.048 1.796.15-2.32-.075-.075-.15-.075h-.075l-.973 1.796.075-2.32v-.074l-.224-.075h-.075l-.075 2.844v.074l.225.15.074-.075.898-1.646h.075l-.075 2.17v.075l.225.15h.075l1.197-2.171v-.075l-.224-.149zm1.87-.075h-.075l-.898 3.517v.075l.225.15.075-.075.898-3.443v-.074l-.225-.15zm2.245 2.395c-.224-.075-.374-.15-.523-.075-.15.075-.3.149-.449.374-.075.15-.15.374-.225.599-.075.299-.15.524-.15.673 0 .225.075.449.15.674a.675.675 0 00.449.449c.225.149.374.149.599.075.149-.075.299-.15.374-.3l.075-.075v-.074l-.15-.15h-.075c-.075.15-.149.224-.299.224s-.225 0-.374-.074c-.15-.075-.225-.225-.3-.3-.075-.149-.074-.299-.074-.449 0-.149.074-.299.074-.524.075-.224.15-.374.15-.524a.59.59 0 01.299-.299c.075-.075.225 0 .375.075.149.075.224.224.299.299.075.15.075.3.075.449v.15l.224.075h.075v-.15c0-.224-.075-.449-.15-.599-.074-.224-.224-.374-.449-.523zm2.022 1.197c-.225-.149-.374-.149-.599-.149-.15 0-.299.149-.374.299v.075l.224.149h.075c.075-.074.15-.149.225-.149.075 0 .224 0 .299.075.15.074.3.224.3.374a.482.482 0 010 .449l-.075.224-.449-.299c-.225-.15-.449-.225-.674-.15a.768.768 0 00-.374.449c-.075.225-.075.449.075.674a.675.675 0 00.449.449c.149.075.224.15.374.15s.224 0 .299-.075l-.075.224v.075l.225.15h.075l.449-1.722a1.271 1.271 0 000-.748c0-.224-.225-.374-.449-.524zm0 2.021c-.075.15-.15.299-.3.299-.149 0-.299 0-.449-.075a.582.582 0 01-.299-.299c-.075-.15-.075-.224 0-.374a.587.587 0 01.299-.3c.15 0 .3 0 .449.075l.45.225-.15.449zm2.17-.749c-.224-.149-.449-.149-.599 0l.075-.224v-.075l-.224-.15h-.075l-.674 2.47v.075l.225.149h.075l.449-1.646c.075-.15.149-.299.224-.374.15-.075.225-.075.374 0 .15.075.225.224.3.374a.638.638 0 010 .524l-.449 1.646v.075l.224.15h.075l.449-1.722c.075-.299.075-.523 0-.748-.075-.224-.224-.449-.449-.524zm2.993 1.647c-.224-.15-.449-.15-.598 0l.299-1.198v-.074l-.225-.15h-.074l-.899 3.517v.075l.225.15h.075l.449-1.647c.075-.149.15-.299.224-.374.15-.075.225-.075.375 0 .149.075.224.225.299.374a.638.638 0 010 .524l-.449 1.647v.074l.224.15h.075l.449-1.721c.075-.3.075-.524 0-.749a1.16 1.16 0 00-.449-.598zm2.021 1.197c-.225-.149-.374-.149-.524-.075a.998.998 0 00-.449.375c0 .074-.075.149-.075.224 0 .075-.075.225-.075.374-.075.3-.149.524-.149.749 0 .224.074.449.149.598.075.15.225.3.449.449.15.075.374.15.524.15.15 0 .299-.075.374-.225v-.074l-.149-.225h-.075c-.075.075-.15.15-.3.15-.074 0-.224 0-.299-.075-.15-.075-.299-.225-.299-.374-.075-.15-.075-.3-.075-.449 0-.075 0-.15.075-.374l1.272.748h.075l.075-.15c0-.149.075-.299.075-.374.074-.299 0-.599-.075-.823a1.003 1.003 0 00-.524-.599zm.224 1.497l-1.047-.599c.074-.149.074-.299.149-.299.075-.15.15-.225.3-.225.074-.074.224 0 .374.075.149.075.224.225.299.3.075.149.075.299.075.449-.075 0-.075.149-.15.299zm1.721-1.497l-.224-.149-.075.074-.898 3.443v.075l.225.149.972-3.517v-.075zm1.197 1.871c-.075-.075-.224-.075-.299-.075-.075 0-.225.075-.299.075l.074-.224v-.075l-.224-.15h-.075l-.898 3.517v.075l.224.15h.075l.3-1.197c0 .149.074.224.149.374.075.075.15.149.3.224.224.075.374.15.524.075.149-.075.299-.15.374-.374.075-.15.149-.299.224-.599.075-.299.075-.524.15-.673 0-.225 0-.449-.15-.674a.675.675 0 00-.449-.449zm.225 1.198c0 .074 0 .224-.075.374-.075.149-.075.299-.15.374-.075.075-.075.15-.149.224-.075.075-.15.15-.225.15-.075 0-.225 0-.299-.075l-.225-.224c-.075-.15-.075-.225-.075-.374v-.3c0-.075.075-.224.075-.374.075-.15.075-.299.15-.374 0-.075.075-.15.15-.225l.224-.224c.075 0 .225 0 .299.075a.58.58 0 01.3.299c.075.15.075.224.075.374s0 .225-.075.3zm3.368.898l-.224-.15h-.075l-1.048 1.796.075-2.395-.075-.075-.224-.149h-.075v2.918c-.075.15-.15.3-.225.374-.074.075-.149.15-.224.15-.075 0-.15 0-.225-.075h-.074l-.075.225v.075c.149.074.299.149.374.149.075 0 .224 0 .299-.075.075-.074.225-.224.3-.374l1.496-2.32v-.074zm1.197.598c-.224-.15-.374-.15-.524-.075-.149.075-.299.15-.449.374-.075.15-.149.3-.224.599-.075.3-.075.449-.15.674 0 .224.075.449.15.673a.673.673 0 00.449.449c.224.075.374.15.524.075.149-.075.299-.15.449-.374.074-.15.149-.299.224-.599.075-.299.075-.524.15-.673 0-.225-.075-.449-.15-.674-.15-.15-.299-.374-.449-.449zm.15 1.647c-.075.224-.15.374-.15.523-.075.15-.15.225-.299.225-.15.075-.225 0-.374-.075-.15-.075-.225-.224-.3-.374-.075-.15-.075-.299-.075-.449 0-.15.075-.299.075-.524.075-.224.15-.374.15-.524a.585.585 0 01.299-.299c.15 0 .225 0 .374.075a.58.58 0 01.3.299c.075.15.075.299.075.449 0 .299 0 .449-.075.674zm2.47-.075l-.524 1.646c-.075.15-.15.3-.225.374-.149.075-.224.075-.374 0-.149-.074-.224-.224-.299-.374a.638.638 0 010-.524l.449-1.646v-.075l-.225-.15h-.074l-.449 1.722a.638.638 0 000 .524c0 .149.074.299.149.449.075.149.225.224.3.299.224.15.449.15.598 0l-.075.224v.075l.225.15h.075l.673-2.47v-.075l-.224-.149zm1.796-.15c-.225-.15-.449-.15-.599-.075-.15.075-.299.3-.374.524l-.075.15v.075l.224.149h.075l.075-.149c.075-.15.15-.3.225-.3.149-.075.224-.075.374.075.149.075.224.225.299.374.075.15.075.3 0 .449 0 .075-.075.225-.15.225l-.149.149c-.075 0-.15.075-.225.075-.149.075-.224.075-.374.15-.075.075-.15.15-.15.299l-.074.3v.074l.224.15h.075l.075-.299c0-.075.075-.15.149-.225.075-.075.15-.075.3-.075.075-.074.224-.074.299-.149.075-.075.15-.075.225-.225a.575.575 0 00.149-.374c.075-.299.075-.524 0-.748-.224-.3-.374-.449-.598-.599zm-.898 2.994c-.075-.075-.15-.075-.15 0-.075 0-.075.075-.15.149v.225c0 .075.075.15.15.15s.15.074.15 0c.075 0 .075-.075.149-.15v-.225c-.074-.074-.074-.149-.149-.149z" fill="#FBFBFB"/><path d="M231.095 202.43l-40.038-23.124c-2.02-1.123-4.191 0-4.864 2.544l-4.49 16.839c-.674 2.544.374 5.537 2.394 6.735l43.705 25.22 5.762-21.478c.599-2.545-.449-5.613-2.469-6.736z" fill="#7D9CF0"/><path d="M190.983 199.362c-.15-.075-.374-.149-.524-.075-.15.075-.225.225-.299.449a1.038 1.038 0 000 .674c.074.224.224.374.374.524a.638.638 0 00.524 0c.149-.075.299-.225.299-.449a1.038 1.038 0 000-.674.768.768 0 00-.374-.449zm3.068 1.796c-.149-.075-.374-.149-.524-.075-.149.075-.299.225-.299.449-.075.225-.075.45 0 .674.075.225.225.374.374.524.15.075.374.075.524 0a.505.505 0 00.299-.449 1.038 1.038 0 000-.674.764.764 0 00-.374-.449zm3.069 1.796c-.225-.074-.375-.149-.524-.074a.504.504 0 00-.3.449 1.048 1.048 0 000 .673c.075.225.225.374.375.524a.636.636 0 00.523 0c.15-.075.3-.224.3-.449a1.038 1.038 0 000-.674c-.075-.224-.15-.374-.374-.449zm3.142 1.722c-.15-.075-.374-.15-.524-.075-.149.075-.224.224-.299.449a1.035 1.035 0 000 .673c.075.225.224.375.374.524.15.075.374.15.524 0a.504.504 0 00.299-.449 1.035 1.035 0 000-.673c-.075-.15-.224-.3-.374-.449zm3.069 1.796c-.15-.075-.375-.15-.524-.075-.15.075-.225.224-.3.449a1.035 1.035 0 000 .673c.075.225.225.374.374.524.15.075.375.075.524 0 .15-.075.3-.224.3-.449a1.035 1.035 0 000-.673.996.996 0 00-.374-.449zm3.068 1.796c-.15-.075-.374-.15-.524-.075a.504.504 0 00-.299.449 1.035 1.035 0 000 .673c.074.225.224.375.374.524.15.075.374.075.524 0 .149-.075.299-.224.299-.449a1.035 1.035 0 000-.673c0-.15-.15-.3-.374-.449zm3.143 1.796c-.149-.075-.374-.15-.523-.075-.15.075-.3.225-.3.449a1.038 1.038 0 000 .674c.075.224.225.374.374.523.15.075.375.15.524 0 .15-.074.3-.224.3-.449a1.048 1.048 0 000-.673c-.075-.15-.225-.374-.375-.449zm3.069 1.796c-.15-.075-.374-.15-.524-.075a.505.505 0 00-.299.449 1.038 1.038 0 000 .674c.074.224.224.374.374.524.149.074.374.149.524 0 .149-.075.299-.225.299-.449a1.038 1.038 0 000-.674c-.075-.224-.15-.374-.374-.449zm3.143 1.796c-.149-.075-.374-.15-.524-.075-.149.075-.224.225-.299.449a1.038 1.038 0 000 .674c.075.224.225.374.374.523.15.075.374.15.524 0a.503.503 0 00.299-.449 1.035 1.035 0 000-.673.761.761 0 00-.374-.449zm3.069 1.796c-.15-.075-.374-.15-.524-.075-.15.075-.3.225-.3.449a1.05 1.05 0 000 .674c.075.224.225.374.375.524a.646.646 0 00.524 0c.149-.075.299-.225.299-.449a1.038 1.038 0 000-.674.771.771 0 00-.374-.449zm3.516 2.245a.764.764 0 00-.374-.449c-.149-.075-.374-.15-.524-.075-.149.075-.299.225-.299.449a1.038 1.038 0 000 .674c.075.224.225.374.374.524.15.075.374.075.524 0a.505.505 0 00.299-.449 1.038 1.038 0 000-.674z" fill="#FBFBFB"/><path d="M218.747 257.136l-9.355-5.388c-.898-.524-1.946 0-2.245 1.197l-2.694 9.953c-.299 1.198.15 2.545 1.123 3.069l9.354 5.388c.898.524 1.946 0 2.245-1.198l2.694-9.953c.3-1.122-.224-2.544-1.122-3.068z" fill="#1E959B"/><path d="M211.338 256.836a.482.482 0 00-.449 0l-.748.375c-.748.449-.673 2.694.225 5.238.673 1.871 1.571 3.293 2.32 3.742.224.15.449.15.673.075l.748-.374c.3-.15.375-.599.3-.973l-.524-1.497c-.075-.224-.225-.374-.299-.449-.225-.15-.449-.075-.599.15a.488.488 0 01-.674.149c-.074 0-.074-.074-.074-.074-.524-.524-1.048-1.946-.973-2.769 0-.375.299-.674.524-.599.374.075.673-.449.523-1.048l-.523-1.497c-.15-.224-.3-.374-.45-.449z" fill="#fff"/><path d="M203.555 248.38l-99.982-57.699c-.898-.524-1.946 0-2.245 1.197l-2.694 9.954c-.3 1.197.15 2.544 1.122 3.068l99.982 57.699c.898.524 1.946 0 2.245-1.197l2.694-9.954c.299-1.122-.15-2.544-1.122-3.068z" fill="#FBFBFB"/><path d="M108.586 200.335l.075-.299v-.075l-.599-.374v-.075l.225-.823v-.075l-.299-.15-.075.075-.225.823-.374-.224h-.075l-.075.299v.075l.375.224v.075l-.599 2.245c-.075.374-.075.599 0 .823.075.225.299.375.524.524.075.075.149.075.224.075l.075-.075.075-.299v-.075l-.15-.075c-.149-.075-.299-.224-.299-.374-.075-.15-.075-.299 0-.524l.524-2.095.673.374zm2.77 1.197l-.3-.149h-.075l-1.496 2.469.074-3.293-.074-.074-.3-.15h-.075v4.116c-.149.224-.224.374-.374.524-.075.075-.224.149-.299.149-.075 0-.225 0-.374-.149l-.075.075-.075.299v.075h.075c.224.15.374.15.524.224.149 0 .224-.074.374-.149s.299-.3.449-.599l2.021-3.218v-.15zm1.795.973c-.15-.075-.3-.149-.449-.149-.15 0-.3.074-.375.149l.075-.299v-.075l-.299-.15-.075.075-1.272 4.79v.075l.299.149.075-.074.449-1.647c.075.15.15.374.225.524.074.15.224.299.374.374.299.15.524.225.748.15.225-.075.374-.225.524-.524.075-.15.224-.449.299-.823.075-.374.15-.674.15-.973 0-.299-.075-.599-.15-.898-.149-.3-.299-.524-.598-.674zm.374 1.722c0 .149-.075.299-.15.523-.075.225-.15.375-.15.524-.074.15-.149.225-.149.3-.075.149-.225.224-.3.224-.149 0-.299 0-.449-.075-.149-.075-.224-.224-.299-.374-.075-.15-.15-.299-.15-.524v-.374c0-.15.075-.299.15-.524.075-.224.15-.374.15-.524.075-.149.075-.224.149-.299.075-.15.225-.225.3-.299.149-.075.224 0 .374.074.15.075.299.225.374.375.075.149.15.374.15.524v.449zm2.545-.075c-.3-.15-.524-.225-.749-.15a1.006 1.006 0 00-.599.524c-.074.075-.074.15-.149.299-.075.15-.075.3-.15.449-.15.449-.15.749-.15 1.048 0 .299.075.599.225.898.15.224.299.449.599.599.224.149.449.224.673.149.225 0 .374-.149.524-.299v-.15l-.15-.299h-.074a.412.412 0 01-.375.225c-.149 0-.299 0-.449-.075-.224-.15-.374-.3-.449-.449-.075-.225-.149-.449-.149-.674 0-.075 0-.299.074-.524l1.797 1.048.074-.075.075-.224c.075-.225.075-.375.075-.524.075-.449 0-.823-.075-1.123-.075-.224-.299-.449-.598-.673zm.299 2.02l-1.497-.823c.075-.224.15-.374.15-.449a.9.9 0 01.374-.374c.15-.075.299 0 .524.075.15.075.299.224.449.449.075.224.15.449.075.673 0 .075 0 .225-.075.449zm4.116.674a3.19 3.19 0 00-.523-.449c-.3-.15-.599-.225-.824-.15-.224.075-.374.225-.449.524a.836.836 0 000 .599c.075.224.15.374.225.524.075.149.224.299.449.523l.374.375c.075.074.15.224.15.299.075.075.075.224 0 .374s-.15.299-.3.299c-.149.075-.299 0-.523-.074-.225-.15-.375-.3-.449-.449-.075-.15-.15-.375-.075-.524v-.15l-.3-.15-.074.075v.075a.638.638 0 000 .524c.074.224.149.374.299.524.15.149.299.299.524.449.299.149.598.224.823.149.224-.074.374-.299.449-.598.075-.225.075-.449 0-.599a3.689 3.689 0 00-.225-.524 3.256 3.256 0 01-.449-.524c-.224-.224-.374-.374-.449-.523-.074-.15-.074-.3-.074-.449.074-.15.149-.3.299-.3s.299 0 .524.15c.224.149.374.299.449.449.075.15.149.374.075.524v.075l.224.149h.075c.075-.149.075-.374 0-.598 0-.225-.075-.375-.225-.599zm2.32 1.197c-.299-.149-.524-.224-.748-.149a.995.995 0 00-.599.523c-.075.15-.225.45-.3.824-.074.374-.149.673-.149.898 0 .374.075.673.224.973.15.299.374.523.599.673.225.15.524.225.748.15.225-.075.449-.225.599-.524.075-.15.225-.449.299-.823.075-.374.15-.674.15-.898 0-.374-.075-.674-.224-.898-.15-.375-.3-.599-.599-.749zm.299 2.32c-.075.3-.149.524-.224.674a.91.91 0 01-.374.374c-.15.075-.3 0-.524-.075-.15-.075-.3-.224-.449-.449-.075-.224-.15-.449-.15-.673 0-.15.075-.449.15-.749.074-.299.149-.524.224-.673.075-.15.225-.3.374-.375.15-.074.3 0 .524.075.15.075.3.225.449.449.075.225.15.449.15.674-.075.15-.075.449-.15.748zm4.491.449c-.15-.075-.374-.15-.524-.15-.15 0-.299.075-.449.225a.85.85 0 00-.225-.599c-.075-.149-.224-.299-.449-.449-.149-.075-.299-.149-.449-.149a.572.572 0 00-.374.149l.075-.299v-.075l-.299-.15-.075.075-.898 3.443v.075l.299.149.075-.075.599-2.32c.074-.224.149-.449.374-.523a.462.462 0 01.524.074c.224.075.299.3.374.524.075.225.075.449 0 .749l-.599 2.245v.075l.299.149.075-.075.599-2.319c.075-.225.15-.45.374-.524.15-.075.3-.075.524.075.225.074.299.299.374.523.075.225.075.449 0 .749l-.598 2.245v.075l.299.149.075-.075.598-2.394c.075-.374.075-.674 0-.973-.149-.225-.299-.449-.598-.599zm2.768 1.572c-.299-.15-.523-.225-.748-.15a1.002 1.002 0 00-.599.524c-.074.075-.074.224-.149.299 0 .15-.075.299-.15.449-.075.449-.15.749-.15 1.048 0 .299.075.599.225.898.15.224.299.449.599.599.224.149.449.224.673.149.225 0 .374-.149.524-.299v-.15l-.15-.299h-.075a.409.409 0 01-.374.224c-.149 0-.299 0-.449-.074-.224-.15-.374-.3-.449-.449-.075-.225-.149-.449-.149-.674 0-.075.074-.224.074-.524l1.796 1.048.075-.075.075-.224c.075-.225.075-.375.15-.524.075-.449 0-.823-.075-1.123a2.853 2.853 0 00-.674-.673zm.3 2.02l-1.497-.823c.075-.225.15-.374.15-.449a.9.9 0 01.374-.374c.15-.075.299 0 .524.075.149.074.299.224.449.449.075.224.149.449.075.673 0 .075 0 .225-.075.449zm2.694.225l.075-.3v-.074l-.599-.375v-.074l.225-.824v-.075l-.3-.149-.074.075-.225.823-.299-.225h-.075l-.075.3.075.075.299.224v.075l-.598 2.245c-.075.374-.075.599 0 .823.074.225.299.374.523.524.075.075.15.075.225.075l.075-.075.075-.299v-.075l-.15-.075a.905.905 0 01-.374-.374c-.075-.15-.075-.3 0-.524l.524-2.095.673.374zm2.021.673c-.3-.224-.599-.224-.898 0l.449-1.646v-.075l-.3-.15-.075.075-1.272 4.79v.075l.3.149h.074l.599-2.245c.075-.299.225-.449.374-.524a.46.46 0 01.524.075c.225.075.299.3.449.524.075.225.075.449 0 .748l-.599 2.245v.075l.3.15.075-.075.598-2.32a2.462 2.462 0 000-1.048c-.075-.374-.299-.598-.598-.823zm1.945 1.198h-.075l-.973 3.442.075.15.3.15.074-.075.898-3.443-.074-.075-.225-.149zm.524-.524c.075-.075.15-.15.15-.225v-.374c-.075-.075-.075-.15-.224-.224-.075-.075-.15-.075-.225 0-.075 0-.15.149-.15.224v.299c.075.075.075.225.225.225.075.075.15.075.224.075zm1.946 1.871c-.3-.225-.599-.225-.898 0l.074-.299v-.075l-.299-.15-.075.075-.898 3.367v.075l.3.15.074-.075.599-2.245c.075-.299.15-.449.374-.524a.46.46 0 01.524.075c.225.15.3.299.449.524.075.224.075.449 0 .748l-.598 2.245v.075l.299.15h.075l.598-2.32a2.462 2.462 0 000-1.048c-.149-.299-.299-.598-.598-.748zm3.892 2.32l-.299-.15-.075.075-.075.299a1.158 1.158 0 00-.599-.823c-.224-.15-.449-.15-.673-.075-.225.075-.374.225-.524.449a.572.572 0 00-.15.374c-.075.15-.075.3-.149.524-.075.375-.15.674-.15.898 0 .3.075.674.15.898.149.3.299.449.598.599.3.15.599.15.823 0l-.074.299c-.075.375-.225.599-.449.674-.225.075-.449 0-.824-.15l-.149-.075h-.075v.075l-.075.3v.074c.075 0 .075.075.225.15.449.225.748.299 1.047.225.3-.075.524-.449.674-.973l.898-3.368-.075-.299zm-.748 1.122c0 .075-.075.225-.15.449-.075.225-.075.375-.15.449 0 .075-.075.15-.075.225a.893.893 0 01-.374.374c-.149.075-.299.075-.524-.075a.768.768 0 01-.374-.449c-.075-.224-.149-.374-.075-.598 0-.15.075-.375.15-.749.075-.299.15-.524.225-.673.074-.15.224-.3.374-.375.149-.074.299-.074.524.075a.771.771 0 01.374.449c.075.225.075.374.075.599.074.075.074.15 0 .299z" fill="#D0D8EB"/><path d="M200.262 250.251c-.075-.075-.225-.075-.3-.075l-5.612-.449c-.599-.075-.749.374-.3.973l1.272 1.946 2.171-.524-1.796 1.571.299 2.395c.075.374.15.599.299.674.15.075.374 0 .524-.3l3.517-5.238c.225-.374.225-.748-.074-.973z" fill="#7D9CF0"/><path d="M240.15 108.361l-1.796 1.422-.075.374 1.273.748-.15.599.449.299.15-.598.299.149.15-.524-.3-.149.524-1.946-.524-.374zm-.524 1.946l-.673-.375.973-.748-.3 1.123zm1.871.374c0-.075.075-.15.075-.225.075-.075.075-.15.15-.15l.15-.149c.074 0 .149-.075.149 0 .075 0 .15 0 .225.075.075 0 .075.074.149.149l.075.15.075.224.075.225.524-.075c0-.15-.075-.224-.075-.374 0-.075-.075-.225-.15-.299-.075-.075-.149-.225-.224-.3a1.035 1.035 0 00-.3-.224c-.149-.075-.224-.075-.374-.15h-.299c-.075 0-.225.075-.299.15l-.225.224c-.075.075-.15.225-.224.3-.075.149-.075.224-.15.374 0 .149-.075.299-.075.449v.449c0 .15 0 .299.075.449 0 .15.075.299.15.374.074.15.149.225.224.374.075.075.225.15.299.225.15.075.225.149.375.149.149 0 .224 0 .374-.074.075-.075.224-.15.299-.3a3.59 3.59 0 00.225-.524l.149-.449-.898-.523-.149.598.449.225c0 .075-.075.149-.075.149l-.15.075h-.15c-.074 0-.149 0-.149-.075-.075-.074-.225-.149-.225-.224-.075-.075-.075-.225-.149-.374v-.374c0-.15 0-.3.074-.375-.074 0-.074-.075 0-.149zm3.144.898l-.449-.225-.225.749-.599-.3-.149.524.598.374-.149.749.449.299.224-.823.599.374.15-.599-.599-.299.15-.823zm1.646 3.966l.524.299.374-1.347-.599-.299-.299 1.347zm1.571-1.422l-.524 2.021.524.299.524-2.021-.524-.299zm1.273-.075l-.748 2.694.524.3.748-2.694-.524-.3zm.374 3.368l.524.299.898-3.517-.524-.299-.898 3.517zm3.517-2.021c-.224-.149-.524 0-.599.3l-.673 2.395c-.075.299.075.673.299.823l3.218 1.871.973-3.518-3.218-1.871zM78.653 15.638v-.075l-.075-.075-3.667-2.095h-.15v.075l-.898 3.293c0 .075 0 .224.075.224l3.667 2.096c.075.075.15 0 .15-.075l.898-3.368s0 .075 0 0zm-.599-.075l-1.721.45-1.048-2.096 2.77 1.646zm-.524 3.218l-3.442-1.945.748-2.844 1.198 2.395.074.074h.075l2.02-.523-.673 2.843zm5.913-.449c-1.048-.599-2.17-.3-2.395.749-.225.898.224 2.02 1.047 2.694-.15.15-.299.3-.523.374h.075c.15.075.748.374 1.272.075.898.3 1.721-.075 2.02-.898.225-1.048-.449-2.395-1.496-2.994zm4.116 3.967c-.15-.075-.374 0-.45.224-.074.225.076.524.225.599.15.075.374 0 .45-.224.074-.15-.076-.45-.225-.6zm1.721 1.047c-.15-.074-.374 0-.45.225-.074.224 0 .524.225.599.15.074.374 0 .45-.225.074-.224 0-.524-.225-.599zm1.721.974c-.15-.076-.374 0-.449.224-.074.224 0 .524.225.598.15.075.374 0 .449-.224.075-.224 0-.449-.225-.599zm72.142 39.363l-.224-.075h-.599v.075l-.075.15.075.075.449.075h.075l-.823 3.068v.075l.224.075.898-3.443v-.075zm1.422.824c-.224-.15-.449-.15-.599-.075-.149.075-.299.224-.374.524l-.449 1.571c-.075.15-.075.374-.075.524 0 .224.075.449.15.674a.676.676 0 00.449.449c.15.074.374.15.524.074.15-.074.299-.15.374-.299.075-.075.15-.224.225-.449.074-.225.074-.449.074-.599 0-.224-.074-.374-.149-.523a.906.906 0 00-.374-.375c-.225-.15-.449-.15-.599 0l.224-.748c.075-.15.15-.3.225-.374.15-.075.224-.075.374 0s.225.224.299.374c.075.15.075.3 0 .524v.15l.225.15h.075v-.076a1.273 1.273 0 000-.748c-.225-.45-.374-.599-.599-.748zm-.748 1.571c.075 0 .224 0 .299.075.15.075.225.15.225.3.074.149.074.224.074.373 0 .15 0 .225-.074.45-.075.15-.075.299-.15.374-.075.15-.15.224-.225.224-.074 0-.224 0-.299-.075a.583.583 0 01-.299-.299c-.075-.15-.075-.225-.075-.374 0-.075 0-.225.075-.374.075-.15.075-.3.149-.374l.3-.3zm2.096.599c-.075-.075-.15-.075-.15 0-.075 0-.075.075-.15.15v.224c0 .075.075.15.15.15.075.074.15.074.15 0 .074 0 .074-.075.149-.15v-.225c0-.074-.075-.074-.149-.15zm-.45 1.721c-.074 0-.149-.075-.149 0-.075 0-.075.075-.15.15v.224c0 .075.075.15.15.15.075.075.149.075.149 0 .075 0 .075-.075.15-.15v-.224c-.075-.075-.075-.15-.15-.15zm2.17-.524l.898-.599v-.074l.075-.225v-.075l-1.422-.823h-.075l-.075.225v.075l1.123.673-.973.599v.075l.075.224v.075h.15c.224.15.299.3.374.599 0 .15 0 .299-.075.523-.075.15-.075.3-.15.375-.149.224-.299.299-.598.15a.585.585 0 01-.3-.3c-.075-.15-.075-.3-.075-.45 0-.074 0-.149.075-.298v-.075l-.224-.15h-.075c0 .15-.075.3-.075.374 0 .225 0 .45.15.674a.674.674 0 00.449.449c.15.075.374.15.524.075.149 0 .299-.15.374-.3.075-.15.15-.3.15-.449.074-.224.074-.449.074-.598.075-.3-.074-.6-.374-.749zm1.572-.674l-.599 1.946v.075l.225.15h.075c.075-.075.149-.15.224-.15.15 0 .225 0 .374.075.15.075.225.15.3.3.075.15.075.299.075.448 0 .075 0 .225-.075.375 0 .15-.075.224-.075.299a.586.586 0 01-.299.3c-.075.074-.225 0-.375-.076a.587.587 0 01-.299-.299c-.075-.15-.075-.3-.075-.449v-.15l-.224-.15h-.075v.225c0 .225.075.45.15.599a.672.672 0 00.449.449c.224.075.374.15.523.075.15-.075.3-.15.375-.374.074-.075.074-.225.149-.374.075-.15.075-.3.075-.45 0-.224 0-.448-.15-.598a.672.672 0 00-.449-.45c-.074-.074-.224-.074-.299-.074-.075 0-.224 0-.299.075l.299-1.198 1.123.674h.074l.225-.374v-.075l-1.422-.823z" fill="#fff"/><path opacity=".4" d="M257.513 118.015l-1.273-.749-.972 3.518 1.272.748c.224.15.524 0 .598-.299l.15-.674.225.15c.075.075.149 0 .149-.075l.225-.748c0-.075 0-.225-.075-.225l-.224-.15.149-.673c.15-.374 0-.674-.224-.823z" fill="#fff"/><path d="M69.896 40.334l-5.014-2.918c-.15-.075-.3 0-.374.224-.075.225 0 .45.15.524l5.014 2.919c.15.075.299 0 .374-.225.15-.15 0-.449-.15-.524zm-.599 2.545l-5.014-2.919c-.15-.075-.299 0-.374.225-.075.224 0 .449.15.524l5.014 2.918c.15.075.3 0 .374-.224.075-.225 0-.45-.15-.524zm-.673 2.469L63.61 42.43c-.15-.075-.3 0-.374.224-.075.225 0 .45.225.524l5.014 2.919c.15.075.299 0 .374-.225 0-.224-.075-.449-.225-.524zm5.239-.673c-.224-.15-.449-.15-.598-.075-.225.075-.375.15-.45.374a3.48 3.48 0 00-.224.674c-.075.299-.15.523-.15.748 0 .3.075.524.15.748.15.225.3.375.524.524.224.15.449.15.599.15.224-.075.374-.15.449-.374l.075-.075v-.075l-.225-.15h-.075c-.075.15-.15.225-.3.225-.149 0-.299 0-.448-.075-.15-.075-.3-.224-.3-.374-.074-.15-.074-.3-.074-.524 0-.15.074-.374.15-.599.074-.224.149-.449.224-.523a.584.584 0 01.3-.3c.149-.075.299 0 .448.075.15.075.225.224.3.374.074.15.074.3.074.45v.149l.225.075h.075v-.15c0-.225-.075-.449-.15-.674-.225-.299-.374-.523-.599-.598zm2.844 1.646l-.524 1.871c-.075.224-.15.374-.3.45a.477.477 0 01-.448 0 .506.506 0 01-.3-.45c-.074-.15-.074-.374 0-.599l.45-1.796v-.075l-.225-.15h-.075l-.524 1.947a.827.827 0 000 .598c0 .15.075.374.225.45a.897.897 0 00.374.373c.3.15.524.15.673 0l-.074.225v.075l.224.15h.075l.748-2.77v-.074l-.299-.225zm2.17 1.347c-.075-.15-.225-.224-.375-.374-.224-.15-.449-.15-.673-.15a.766.766 0 00-.374.45.477.477 0 000 .448c.075.15.075.3.224.374.075.15.225.3.374.45l.3.299c.075.075.075.15.15.224v.3c-.075.15-.15.224-.225.224-.15 0-.225 0-.374-.075a.902.902 0 01-.374-.374c-.075-.15-.075-.3-.075-.449v-.15l-.225-.15h-.075v.076c-.075.15 0 .299 0 .449l.225.449c.075.15.224.224.374.374.224.15.449.15.674.15.224-.075.299-.225.374-.45.075-.15.075-.299 0-.523-.075-.15-.15-.3-.225-.375-.075-.15-.224-.224-.374-.449-.15-.15-.3-.299-.374-.448-.075-.15-.075-.225-.075-.375.075-.15.15-.224.224-.224.075 0 .225 0 .375.075s.3.224.374.374c.075.15.075.3.075.374v.075l.224.15h.075a.477.477 0 000-.45c-.075 0-.15-.15-.224-.299zm1.946 1.048l-.524-.3.15-.673v-.075l-.225-.15h-.075l-.15.674-.299-.15h-.075l-.075.225v.075l.3.15-.45 1.796c-.074.299-.074.523 0 .673.076.15.225.3.45.45.075.074.15.074.15.074h.074l.075-.225v-.075l-.075-.074a.585.585 0 01-.299-.3c-.075-.15-.075-.224 0-.449l.45-1.646.523.3h.075l.075-.225-.075-.075zm1.422.748c-.224-.15-.449-.15-.599-.15-.224.075-.374.15-.449.375a3.48 3.48 0 00-.224.673c-.075.3-.15.524-.15.749 0 .3.075.524.15.748.15.225.3.374.524.524.224.15.449.15.599.075.224-.075.374-.15.448-.374.075-.15.15-.375.225-.674.075-.3.15-.524.15-.748 0-.3-.075-.524-.15-.749-.15-.15-.3-.299-.524-.449zm.225 1.871c-.075.225-.15.45-.225.524-.075.15-.224.225-.3.3-.149.074-.299 0-.373-.075-.15-.075-.225-.225-.3-.375-.075-.15-.075-.299-.075-.523 0-.15.075-.375.15-.6.075-.224.15-.448.225-.523a.584.584 0 01.299-.3c.15-.074.3 0 .374.076.15.074.225.224.3.374.074.15.15.3.074.524 0 .15-.075.374-.15.598zm3.666.375c-.15-.075-.3-.15-.449-.15a.41.41 0 00-.374.224c0-.15-.075-.374-.15-.524a.902.902 0 00-.374-.374c-.15-.075-.225-.075-.374-.15-.15 0-.225 0-.3.075l.075-.224v-.075l-.224-.15h-.075l-.748 2.77v.074l.224.15h.075l.524-1.871c.075-.225.15-.374.3-.374a.474.474 0 01.448 0c.15.075.225.224.3.374.074.15.074.374 0 .599l-.524 1.796v.075l.224.15h.075l.524-1.872c.075-.224.15-.374.3-.374.149-.075.299-.075.448.075.15.075.225.224.3.374.074.15.074.374 0 .599l-.524 1.796v.075l.224.15h.075l.524-1.872c.075-.299.075-.598 0-.823-.15-.224-.3-.374-.524-.524zm2.17 1.272c-.224-.15-.449-.15-.599-.075a.675.675 0 00-.449.449c-.075.075-.075.15-.075.224 0 .075-.074.225-.074.375-.075.374-.15.598-.15.823 0 .224.075.524.15.673.075.225.299.374.449.524.224.075.374.15.523.15.15 0 .3-.075.45-.225v-.075l-.15-.224h-.075c-.075.075-.224.15-.3.15-.149 0-.224 0-.374-.075a.902.902 0 01-.374-.374c-.075-.15-.15-.3-.075-.524 0-.075 0-.225.075-.45l1.422.824h.075l.075-.15c.075-.15.075-.3.075-.374.075-.3 0-.673-.075-.898-.075-.374-.225-.599-.524-.748zm.3 1.646l-1.198-.673c.075-.15.075-.3.15-.375a.584.584 0 01.299-.299c.15-.075.225 0 .374.075.15.075.3.224.3.374.074.15.074.3.074.524.075.075 0 .15 0 .374zm2.17-.224c-.15-.075-.224-.075-.374-.075s-.224.075-.3.224l.076-.374v-.075l-.225-.15h-.075l-.748 2.77v.074l.224.15h.075l.45-1.646c.074-.225.149-.374.299-.45a.482.482 0 01.449 0h.074c.075 0 .15.076.15.15h.075l.15-.224v-.075l-.3-.3zm2.694 1.721c-.075-.15-.224-.225-.374-.374-.224-.15-.449-.15-.673-.15-.225.075-.3.225-.375.45a.477.477 0 000 .448l.225.45c.075.149.224.299.374.448l.3.3c.074.074.074.15.15.224v.3c-.076.149-.15.224-.225.224-.15 0-.225 0-.375-.075a.901.901 0 01-.374-.374c-.075-.15-.075-.3-.075-.45v-.149l-.224-.15h-.075v.525l.225.448c.074.15.224.225.449.374.224.15.449.15.673.15.225-.075.3-.224.374-.449a.64.64 0 000-.524c-.075-.15-.15-.299-.224-.374-.075-.15-.225-.224-.374-.449-.15-.15-.3-.3-.375-.449-.074-.15-.074-.224-.074-.374.074-.15.074-.225.224-.225.15 0 .225 0 .374.075a.9.9 0 01.374.374c.075.15.075.3.075.375v.075l.225.15h.075a.477.477 0 000-.45c-.075-.075-.15-.224-.3-.374zm2.695 1.422l-.225-.15h-.075l-.448 1.796c-.075.224-.15.374-.3.449a.477.477 0 01-.449 0 .505.505 0 01-.3-.449c-.074-.15-.074-.374 0-.599l.45-1.796v-.075l-.225-.15h-.075l-.523 1.947a.827.827 0 000 .598c0 .15.074.374.224.45.075.149.225.224.374.373.3.15.524.15.674 0l-.075.225v.075l.225.15h.074l.749-2.77-.075-.074zm2.169 1.422c-.075-.225-.224-.375-.449-.524-.15-.075-.224-.075-.374-.075-.075 0-.224.075-.3.15l.076-.225v-.075l-.225-.15h-.075l-1.047 3.892v.075l.224.15h.075l.374-1.347c0 .15.075.299.15.374.075.075.15.224.299.299.225.15.374.15.599.075.15-.075.299-.225.449-.374.075-.15.15-.374.224-.674.075-.3.15-.524.15-.748 0-.374-.075-.599-.15-.823zm-.224.898c0 .075-.075.224-.075.449-.075.15-.075.299-.15.449-.075.075-.075.15-.15.224-.074.075-.15.15-.299.225-.075 0-.224 0-.374-.075a.584.584 0 01-.3-.3c-.074-.15-.074-.224-.074-.374v-.299c0-.075.075-.224.075-.449.075-.15.075-.3.15-.45.074-.074.074-.149.149-.224.075-.074.15-.15.3-.224.074 0 .224 0 .299.075.15.075.224.15.299.3.075.149.075.298.075.448.075 0 .075.15.075.225zm2.171 0c-.15-.075-.225-.075-.375-.075s-.224.075-.299.15l.075-.225v-.075l-.225-.15h-.074l-1.048 3.892v.075l.225.15h.074l.374-1.348c0 .15.075.3.15.375.075.15.15.224.3.299.224.15.374.15.598.075.15-.075.3-.225.449-.374.075-.15.15-.375.225-.674.075-.3.149-.524.149-.748 0-.3 0-.524-.149-.749-.075-.299-.225-.449-.449-.598zm.299 1.422c0 .074-.075.224-.075.448-.075.15-.075.3-.149.45-.075.074-.075.15-.15.224a1.04 1.04 0 01-.3.225c-.074 0-.224 0-.374-.075s-.224-.15-.224-.3c-.075-.15-.075-.224-.075-.374v-.3c0-.074.075-.224.075-.448.075-.15.075-.3.15-.45.074-.074.074-.149.15-.224l.224-.224c.075 0 .224 0 .299.075a.58.58 0 01.299.299c.075.15.075.3.075.449.075 0 .075.075.075.224zm2.095 0c-.225-.15-.449-.15-.599-.15-.224.075-.374.15-.449.374-.075.15-.15.374-.224.674-.075.299-.15.524-.15.748 0 .3.075.524.15.748.149.225.299.375.523.524.225.15.449.15.599.075.225-.075.374-.15.449-.374.075-.15.15-.374.225-.674.075-.299.149-.523.149-.748 0-.3-.074-.524-.149-.748-.15-.15-.375-.375-.524-.45zm.149 1.796c-.074.224-.149.449-.224.523a.587.587 0 01-.299.3c-.15.075-.3 0-.375-.075-.149-.075-.224-.224-.299-.374-.075-.15-.075-.3-.075-.524 0-.15.075-.374.15-.599.075-.224.15-.449.224-.524.075-.15.225-.224.3-.299.149-.075.299 0 .374.075.15.075.224.224.299.374.075.15.075.3.075.524 0 .15-.075.374-.15.599zm2.32-.375c-.149-.075-.224-.075-.374-.075-.149 0-.224.075-.299.225l.075-.374v-.075l-.225-.15h-.075l-.748 2.77v.074l.225.15h.074l.449-1.647c.075-.224.15-.374.3-.449a.477.477 0 01.449 0h.075c.074.075.149.075.149.15h.075l.15-.225v-.074l-.3-.3zm1.722 1.048l-.524-.3.15-.673v-.074l-.225-.15h-.075l-.149.673-.3-.15h-.075l-.074.225v.075l.299.15-.449 1.796c-.075.3-.075.524 0 .673.075.15.224.3.449.45.075.074.15.074.15.074h.074l.075-.224v-.075l-.075-.075a.586.586 0 01-.299-.3c-.075-.15-.075-.224 0-.448l.449-1.647.524.3h.075l.075-.225-.075-.075z" fill="#000"/><path d="M120.561 82.018L63.686 49.165c-.898-.524-1.946 0-2.245 1.197l-1.797 6.66c-.299 1.198.15 2.545 1.123 3.069l56.876 32.853c.898.524 1.946 0 2.245-1.197l1.796-6.66c.299-1.123-.15-2.545-1.123-3.069z" fill="#EDEFF2"/><path d="M115.847 87.407c-.748-.45-1.123-1.572-.898-2.545.224-.973 1.048-1.422 1.871-.973.748.45 1.122 1.572.898 2.545-.299.973-1.123 1.422-1.871.973zm1.123-4.191c-1.048-.599-2.246 0-2.62 1.347-.374 1.347.225 2.918 1.272 3.592.45.224.899.3 1.273.15l.449 1.347c0 .075.075.15.149.224.075.075.15.075.225 0 .15-.075.224-.3.15-.524l-.449-1.347c.374-.3.598-.673.748-1.272.449-1.272-.15-2.919-1.197-3.517z" fill="#D0D8EB"/><path d="M63.161 77.603c-.15-.3-.299-.524-.598-.674l-1.048-.598h-.075l-1.047 3.816v.075l1.047.599c.3.15.524.224.749.075.224-.075.374-.3.449-.674l.449-1.796c.224-.225.15-.599.074-.823zm-.299.823l-.449 1.646c-.075.225-.15.375-.3.45-.149.074-.298.074-.523-.075l-.748-.45.823-3.217.748.449c.225.15.3.299.374.449.15.224.15.449.075.748zm1.797.898c-.225-.15-.45-.15-.6-.075a.675.675 0 00-.448.45c0 .074-.075.149-.075.224 0 .075-.075.224-.075.374-.075.374-.15.599-.15.823 0 .224.075.524.15.674.075.224.3.374.45.523.224.075.373.15.523.15.15 0 .3-.075.45-.224v-.075l-.15-.225h-.075c-.075.075-.15.15-.3.15s-.224 0-.374-.075a.902.902 0 01-.374-.374c-.075-.15-.075-.3-.075-.524 0-.075 0-.225.075-.449l1.422.823h.075l.074-.15c.075-.15.075-.299.075-.374.075-.299 0-.598-.075-.898-.074-.374-.299-.598-.523-.748zm.224 1.572l-1.197-.674c.075-.15.075-.3.15-.374a.584.584 0 01.299-.3c.15-.074.224 0 .374.075s.3.225.3.374c.074.15.074.3.074.524.075.075.075.225 0 .374zm1.871-1.572l-.224-.15h-.075l-1.048 3.892.075.075.225.075 1.047-3.817v-.075zm.973.449c-.075-.075-.15-.075-.225 0-.075 0-.075.075-.15.224v.3c0 .075.075.15.15.224.075.075.15.075.225 0 .075 0 .075-.075.15-.15v-.299c-.075-.15-.075-.224-.15-.3zm-.449 1.122h-.075l-.748 2.77.075.074.224.15.075-.075.674-2.694v-.15l-.225-.075zm2.619 1.497l-.3-.15-1.197 1.871v-2.619l-.3-.15v3.293l.3.15h.075l1.422-2.32v-.075zm1.272.674c-.224-.15-.449-.15-.599-.075a.675.675 0 00-.449.45c0 .074-.075.149-.075.224 0 .074-.074.224-.15.374-.074.374-.149.599-.149.823 0 .225.075.524.15.674.075.224.3.374.449.523.224.075.374.15.524.15.15 0 .299-.075.449-.225v-.074l-.15-.225h-.075c-.075.075-.15.15-.3.15-.149 0-.224 0-.373-.075a.902.902 0 01-.375-.374c-.074-.15-.15-.3-.074-.524 0-.075 0-.224.074-.45l1.422.824h.075l.075-.15c.075-.15.075-.299.075-.374.075-.3 0-.598-.075-.898 0-.374-.15-.598-.449-.748zm.225 1.646l-1.198-.673c.075-.15.075-.3.15-.374a.584.584 0 01.3-.3c.149-.075.224 0 .373.075a.9.9 0 01.374.374c.075.15.075.3.075.524 0 .075 0 .15-.075.374zm2.095.225c.075.075.15.075.15.15h.074l.15-.225v-.075l-.224-.224c-.15-.075-.225-.075-.375-.075s-.224.075-.299.15l.075-.375v-.075l-.225-.15h-.074l-.749 2.77v.075l.225.15h.075l.449-1.647c.074-.225.15-.374.299-.45.075-.149.224-.149.449 0zm2.245.823l-1.272 1.946.075-2.62-.075-.075-.225-.15h-.075v3.294c-.075.224-.224.299-.299.374-.075.075-.15.15-.225.15-.074 0-.15 0-.299-.075h-.075l-.075.224v.075c.15.075.3.15.375.15.075 0 .224 0 .299-.15.075-.075.225-.225.374-.449l1.647-2.544v-.075l-.15-.075zm2.17.524l.15-.15v-.3c0-.074-.075-.149-.15-.224-.074-.075-.15-.075-.224 0-.075 0-.075.075-.15.15v.3c0 .074.075.149.15.224.075.075.15.075.224 0zm-.448.449h-.075l-.748 2.769v.075l.224.15h.075l.748-2.77v-.074l-.224-.15zm2.319 1.796c-.075-.15-.075-.3-.225-.45-.075-.149-.224-.224-.374-.373-.224-.15-.449-.15-.673-.15-.225.075-.3.224-.375.449a.477.477 0 000 .449c.075.15.15.3.225.374.075.15.225.225.374.45l.3.298c.074.075.074.15.15.225 0 .075.074.15 0 .3 0 .149-.076.224-.225.224-.15 0-.225 0-.374-.075a.901.901 0 01-.375-.374c-.075-.15-.075-.3-.075-.374v-.15l-.224-.15h-.075v.525c.075.149.075.298.225.448.075.15.224.225.449.374.224.15.449.15.673.15.225-.075.3-.224.374-.449.075-.15.075-.374 0-.449-.075-.15-.15-.3-.224-.374a2.81 2.81 0 01-.374-.45c-.15-.149-.3-.299-.374-.448-.075-.15-.075-.225-.075-.374 0-.15.075-.225.224-.225a.81.81 0 01.374.075c.15.075.3.224.374.374.075.15.075.3.075.374v.075l.225.15h.075c0-.15 0-.3-.075-.45zm1.872.748c-.075-.15-.225-.224-.375-.374-.224-.15-.449-.15-.673-.15a.766.766 0 00-.374.45.477.477 0 000 .448c.075.15.075.3.224.375.075.15.225.224.374.449l.3.299c.075.075.075.15.15.225 0 .074.074.15 0 .299 0 .15-.15.224-.225.224-.15 0-.225 0-.449-.075a.901.901 0 01-.374-.374c-.075-.15-.075-.299-.075-.374v-.15l-.225-.15h-.074v.525c0 .15.074.299.224.449.075.15.225.224.374.374.225.15.45.15.674.15.224-.075.3-.225.374-.45a.477.477 0 000-.448c-.075-.15-.15-.3-.225-.375a2.845 2.845 0 01-.374-.449c-.15-.15-.299-.299-.374-.449-.075-.15-.075-.224-.075-.374.075-.15.075-.224.225-.224.075 0 .224 0 .374.074.15.075.3.225.374.375.075.15.075.299.075.374v.075l.225.15h.074a.477.477 0 000-.45c0-.15-.075-.299-.15-.449zm2.395 1.273l-.524 1.796c-.075.224-.15.374-.3.449-.15.075-.299.075-.449-.075a.902.902 0 01-.374-.374c-.075-.15-.075-.375 0-.6l.45-1.795v-.075l-.225-.15h-.075l-.524 1.871c-.075.225-.075.374 0 .524 0 .15.075.374.225.45.074.149.224.224.374.299.299.15.523.15.673 0l-.075.224v.075l.225.15h.075l.748-2.77v-.074l-.224.075zm1.795.972c-.225-.15-.45-.15-.599-.074a.675.675 0 00-.449.449c0 .075-.075.15-.075.224 0 .075-.075.225-.15.374-.074.374-.149.599-.149.823 0 .3.075.524.15.674.075.224.3.374.449.524.224.075.374.15.524.15.15 0 .299-.075.449-.225v-.075l-.15-.224h-.075c-.075.075-.15.15-.3.15-.149 0-.224 0-.373-.076a.901.901 0 01-.375-.374c-.075-.15-.15-.299-.075-.523 0-.075 0-.225.075-.45l1.422.824h.075l.075-.15c.075-.15.075-.3.075-.374.075-.3 0-.599-.075-.898 0-.374-.15-.524-.45-.749zm.3 1.647l-1.198-.674c.075-.15.075-.299.15-.374a.584.584 0 01.299-.3c.15-.074.224 0 .374.076.15.075.3.224.374.374.075.15.075.3.075.524 0 .075-.075.224-.075.374zm2.319 0c-.075-.15-.224-.225-.374-.374-.225-.15-.45-.15-.674-.15a.766.766 0 00-.374.449.477.477 0 000 .45c.075.149.075.298.225.373.075.15.224.225.374.45l.3.299c.074.074.074.15.149.224v.3c0 .15-.075.224-.225.224-.15 0-.224 0-.374-.075a.902.902 0 01-.374-.374c-.075-.15-.075-.3-.075-.374v-.15l-.224-.15h-.075v.075a.477.477 0 000 .45l.224.448c.15.15.225.225.45.374.224.15.448.225.673.15.224-.075.3-.224.374-.449.075-.15.075-.374 0-.449-.075-.15-.15-.3-.224-.374a2.845 2.845 0 01-.375-.45c-.15-.149-.299-.298-.374-.448-.075-.15-.075-.225-.075-.374 0-.15.075-.225.225-.225.075 0 .224 0 .374.075s.3.225.374.374c.075.15.075.3.075.374v.075l.225.15h.074a.477.477 0 000-.45c-.15-.149-.224-.299-.299-.448zm23.948 14.219l-1.572-4.416c0-.075-.074-.149-.149-.224-.075-.075-.15-.075-.225 0-.149.075-.224.299-.149.524l1.421 4.041-2.918 1.497c-.15.074-.225.299-.15.523 0 .075.075.15.15.225.075.075.15.075.224 0l3.143-1.647c.075 0 .15-.074.15-.224.075-.075.075-.15.075-.299z" fill="#FBFBFB"/><path d="M109.934 121.906L53.058 89.053c-.898-.524-1.945 0-2.245 1.197l-4.715 17.662c-.299 1.197.15 2.544 1.123 3.068l56.876 32.853c.898.524 1.946 0 2.245-1.197l4.715-17.662c.299-1.122-.225-2.469-1.123-3.068z" fill="#1E959B"/><path d="M56.426 101.999c-.15-.299-.374-.523-.674-.748-.299-.15-.523-.224-.748-.15-.224.075-.374.3-.449.599a.826.826 0 000 .599c.075.149.075.374.225.524.074.149.224.374.449.598.15.225.299.449.374.599.075.15.15.299.15.374v.374c-.075.225-.15.3-.3.375-.15.074-.3 0-.599-.15-.224-.15-.449-.299-.523-.524-.075-.224-.15-.449-.075-.674l.075-.149v-.075l-.225-.15h-.075l-.075.15c-.075.299-.075.599.075.973.15.299.374.524.674.748.3.225.598.225.823.15.224-.075.374-.299.449-.599a.825.825 0 000-.598c-.075-.15-.15-.375-.224-.524a2.438 2.438 0 00-.45-.599c-.15-.225-.299-.374-.374-.524-.075-.15-.15-.224-.15-.374v-.374c.075-.225.15-.3.3-.374.15-.075.3 0 .524.149.224.15.374.3.524.524.075.225.15.449.075.674v.149l.224.15h.075v-.15c.075-.374.075-.673-.075-.973zm2.32 2.245l-.225-.149h-.074l-.45 1.796c-.074.224-.15.374-.299.449-.15.075-.3.075-.449-.075-.15-.075-.3-.224-.3-.449-.074-.15-.074-.374 0-.599l.45-1.796v-.075l-.225-.149H57.1l-.523 1.871a.824.824 0 000 .598c0 .15.075.375.224.449.075.15.225.225.374.375.3.149.524.149.674 0l-.075.224v.075l.225.15h.074l.749-2.769-.075.074zm2.096 1.497c-.075-.224-.224-.374-.449-.524-.15-.074-.224-.074-.374-.074-.075 0-.225.074-.3.149l.075-.224v-.075l-.224-.15h-.075l-1.048 3.817v.075l.225.149h.075l.374-1.347c0 .15.075.3.15.375.074.149.15.224.299.299.224.15.374.15.599.075.15-.075.299-.225.449-.374.074-.15.15-.375.224-.674.075-.299.15-.524.15-.748 0-.3 0-.599-.15-.749zm-.15.823c0 .075-.075.225-.075.45-.074.149-.074.299-.15.449-.074.074-.074.149-.149.224-.075.075-.15.15-.3.225-.074 0-.224 0-.299-.075-.074-.075-.224-.15-.224-.3-.075-.149-.075-.224-.075-.374v-.299c0-.075.075-.225.075-.449.075-.15.075-.3.15-.374 0-.075.074-.15.15-.225a.998.998 0 01.299-.224c.075 0 .224 0 .299.074a.59.59 0 01.3.3c.074.149.074.299.074.449-.075-.075-.075.075-.075.149zm2.17.075c-.15-.075-.225-.075-.374-.075-.075 0-.225.075-.3.15l.075-.224v-.075l-.224-.15h-.075l-1.048 3.817v.075l.225.149h.074l.374-1.347c0 .15.075.3.15.374.075.15.15.225.3.3.224.149.374.149.598.075.15-.075.3-.225.45-.375a3.47 3.47 0 00.224-.673c.075-.299.15-.524.15-.748 0-.3-.075-.524-.15-.749-.075-.299-.225-.449-.45-.524zm.224 1.347c0 .075-.075.225-.075.449-.074.15-.074.3-.15.449-.074.075-.074.15-.149.225-.075.075-.15.15-.3.224-.074 0-.224 0-.299-.074-.15-.075-.224-.15-.224-.3-.075-.149-.075-.224-.075-.374v-.299c0-.075.075-.225.075-.449.075-.15.075-.3.15-.374 0-.075.074-.15.15-.225l.224-.224c.075 0 .224 0 .3.074.149.075.224.15.298.3.075.149.075.299.075.449v.149zm2.096 0c-.225-.149-.45-.149-.599-.075-.224.075-.374.15-.45.375a3.47 3.47 0 00-.224.673c-.074.3-.15.524-.15.749 0 .299.076.523.15.748.15.224.3.374.524.524.225.149.45.149.599.075.225-.075.374-.15.449-.375.075-.149.15-.374.225-.673.074-.299.15-.524.15-.748 0-.3-.076-.524-.15-.749-.15-.224-.3-.449-.524-.524zm.224 1.796c-.075.225-.15.449-.224.524a.585.585 0 01-.3.3c-.15.074-.224 0-.374-.075s-.224-.225-.3-.374c-.074-.15-.074-.3-.074-.524 0-.15.075-.374.15-.599.075-.225.15-.449.224-.524a.583.583 0 01.3-.299c.15-.075.224 0 .374.075.15.074.224.224.299.374.075.149.075.299.075.524-.075.149-.075.374-.15.598zm2.245-.374c-.15-.075-.224-.075-.374-.075s-.224.075-.3.225l.076-.374v-.075l-.225-.15h-.075l-.748 2.769v.075l.224.15h.075l.45-1.647c.074-.224.149-.374.299-.449a.476.476 0 01.449 0h.075c.074 0 .15.075.15.15h.074l.15-.225v-.074l-.3-.3zm1.199.749l.15-.674v-.075l-.225-.149H68.7l-.15.673-.299-.15h-.075l-.075.225v.075l.3.149-.45 1.796c-.074.3-.074.524 0 .674.076.15.225.299.45.449.075.075.15.075.15.075h.074L68.7 113v-.074l-.075-.075a.585.585 0 01-.3-.3c-.074-.074-.074-.224 0-.449l.45-1.646.524.299h.075l.074-.224v-.075l-.598-.299zm3.815 1.047c-.15-.224-.3-.374-.524-.449-.224-.149-.374-.149-.598-.149-.15 0-.375.075-.45.224-.149.15-.224.3-.299.599L70.345 113c-.075.225-.075.524-.075.749 0 .224.15.449.225.673.15.225.3.375.524.449.224.15.374.15.599.15.15 0 .374-.075.449-.224.15-.15.224-.3.299-.599v-.075l-.225-.15h-.074c-.075.3-.225.449-.375.524-.15.075-.374.075-.598-.075-.225-.149-.374-.299-.45-.523a1.278 1.278 0 010-.749l.45-1.571c.075-.3.224-.449.374-.524.15-.075.374-.075.599.075.224.149.374.299.449.523.074.225.074.524 0 .749v.075l.224.074c.075-.224.075-.449.075-.748.075-.224 0-.374-.15-.599zm1.722 2.096c-.224-.15-.449-.15-.599-.075a.766.766 0 00-.449.374c-.075.075-.074.15-.074.225 0 .074-.075.224-.075.374-.075.374-.15.599-.15.823 0 .225.075.524.15.674.15.224.3.374.449.523.224.075.374.15.524.15.15 0 .299-.075.449-.224v-.075l-.15-.225h-.075c-.075.075-.224.15-.3.15-.074 0-.224 0-.373-.075a.9.9 0 01-.375-.374c-.075-.15-.15-.299-.074-.524 0-.075 0-.224.074-.449l1.422.823h.075l.075-.149c.075-.15.075-.3.075-.375.075-.299 0-.598-.075-.898-.075-.299-.225-.524-.524-.673zm.3 1.571l-1.198-.673c.075-.15.075-.3.15-.374a.585.585 0 01.3-.3c.149-.075.224 0 .373.075.15.075.3.225.3.374.074.15.074.3.074.524v.374zm2.169-.149c-.299-.15-.523-.15-.673 0l.075-.225v-.075l-.225-.149h-.075l-.748 2.769v.074l.225.15h.074l.45-1.796c.074-.224.149-.374.299-.449a.476.476 0 01.449 0c.15.075.299.225.299.449.075.15.075.374 0 .599l-.449 1.796v.075l.224.149h.075l.524-1.871c.075-.299.075-.598 0-.823-.15-.374-.3-.524-.524-.673zm2.395 1.421l-.523-.299.15-.673v-.075l-.225-.15h-.075l-.15.674-.3-.15h-.074l-.075.224v.075l.3.15-.45 1.796c-.074.299-.074.524 0 .674.075.149.225.299.45.449.074.074.15.074.15.074h.074l.075-.224v-.075l-.15-.075a.583.583 0 01-.3-.299c-.074-.075-.074-.225 0-.449l.45-1.647.524.3h.075l.074-.225v-.075zm1.422.749c-.225-.15-.45-.15-.599-.075a.766.766 0 00-.449.374c-.075.075-.075.15-.075.225 0 .075-.075.224-.15.374-.074.374-.149.599-.149.823 0 .225.075.524.15.674.075.224.299.374.449.523.224.075.374.15.524.15.15 0 .299-.075.449-.224v-.075l-.15-.225h-.075c-.075.075-.224.15-.3.15-.149 0-.224 0-.374-.075a.9.9 0 01-.374-.374c-.075-.15-.15-.299-.075-.524 0-.075 0-.224.075-.374l1.422.823h.075l.075-.15c.075-.149.075-.299.075-.374.075-.299 0-.598-.075-.898 0-.374-.15-.599-.45-.748zm.224 1.646l-1.197-.673c.075-.15.075-.3.15-.374a.585.585 0 01.299-.3c.15-.075.225 0 .374.075a.9.9 0 01.374.374c.075.15.075.3.075.524 0 .075 0 .15-.075.374zm2.171-.224c-.15-.075-.224-.075-.374-.075s-.224.075-.3.224l.076-.374v-.075l-.225-.149h-.075l-.748 2.769v.075l.224.149h.075l.45-1.646c.074-.225.149-.374.299-.449a.476.476 0 01.449 0h.074c.075.075.15.075.15.149h.075l.15-.224v-.075a.583.583 0 00-.3-.299zm22.75 13.62l-1.571-4.415c0-.075-.075-.15-.15-.225-.075-.075-.15-.075-.225 0-.149.075-.224.3-.149.524l1.422 4.041-2.919 1.497c-.15.075-.225.299-.15.524 0 .075.075.149.15.224.075.075.15.075.224 0l3.144-1.646c.074-.075.149-.15.149-.225.15-.074.15-.149.075-.299z" fill="#FBFBFB"/><path d="M103.348 146.527l-56.876-32.853c-.898-.524-1.945 0-2.245 1.198l-4.714 17.661c-.3 1.197.15 2.544 1.122 3.068l56.876 32.854c.898.523 1.946 0 2.245-1.198l4.715-17.661c.299-1.198-.225-2.545-1.123-3.069z" fill="#7D9CF0"/><path d="M50.065 127.594a2.138 2.138 0 000-.973c-.075-.299-.3-.524-.524-.674l-1.198-.673h-.075l-1.047 3.817v.074l.224.15h.075l.45-1.646.897.524c.225.149.524.149.748.074.225-.074.375-.299.45-.673zm-.3-.15c-.075.225-.15.374-.3.449-.149.075-.299.075-.448-.075l-.823-.449v-.074l.374-1.497.823.449c.15.075.3.224.374.449v.748zm2.095 1.497c-.074-.225-.299-.449-.523-.599-.225-.149-.45-.149-.599-.149-.15.074-.3.149-.374.374v.075l.225.149h.074l.225-.224c.075 0 .224 0 .374.075.15.074.3.224.374.374.075.149.075.299 0 .524l-.075.224-.523-.299c-.3-.15-.524-.225-.749-.15-.224.075-.374.225-.449.524-.075.299-.075.524.075.748.075.225.3.375.449.524.15.075.3.15.45.15.149 0 .224 0 .373-.075l-.075.225v.074l.225.15h.075l.524-1.871c.074-.299.074-.598-.075-.823zm-.523 1.646c-.075.225-.15.3-.3.375-.15.074-.299 0-.523-.075-.15-.075-.225-.225-.3-.3a.477.477 0 010-.449c.075-.149.15-.299.3-.299s.299 0 .524.15l.449.299-.15.299zm2.993-.523l-.225-.15h-.075l-1.197 1.946.075-2.62-.075-.074-.225-.15h-.075v3.293c-.074.224-.224.299-.299.374-.075.075-.15.15-.224.15-.075 0-.15 0-.3-.075h-.075l-.075.224v.075c.15.075.3.15.375.15.075 0 .224 0 .3-.15.074-.075.224-.224.373-.449l1.647-2.544h.075zm2.769 1.571c-.15-.075-.3-.15-.45-.15-.149 0-.224.075-.373.225 0-.15-.075-.374-.15-.524-.075-.15-.224-.225-.374-.374-.15-.075-.225-.15-.374-.15-.15 0-.225 0-.3.075l.075-.225v-.074l-.224-.15h-.075l-.748 2.769v.075l.224.149h.075l.524-1.796c.075-.224.15-.374.299-.374.15-.075.3-.075.449 0 .15.075.224.225.3.374.074.15.074.374 0 .599l-.6 1.871v.075l.225.149h.075l.524-1.796c.075-.224.15-.299.3-.374a.474.474 0 01.448 0c.15.075.225.225.3.374.074.15.074.374 0 .599l-.45 1.796v.075l.225.15h.075l.524-1.871a1.54 1.54 0 000-.824c-.15-.374-.3-.523-.524-.673zm2.17 1.272c-.225-.149-.45-.149-.599-.075a.676.676 0 00-.449.449c-.075.075-.075.15-.075.225 0 .075-.075.224-.075.374-.074.374-.15.599-.15.823 0 .225.076.449.15.674.075.224.3.374.45.524.224.074.374.149.523.149.15 0 .3-.075.45-.224v-.075l-.15-.225h-.075c-.075.075-.225.15-.3.15-.15 0-.224 0-.374-.075a.9.9 0 01-.374-.374c-.075-.15-.15-.299-.075-.524 0-.075 0-.224.075-.449l1.422.823h.075l.075-.149c.075-.15.075-.3.075-.374.075-.3 0-.599-.075-.898-.075-.375-.225-.599-.524-.749zm.3 1.572l-1.198-.674c.075-.149.075-.299.15-.374a.583.583 0 01.299-.299c.15-.075.224 0 .374.075.15.074.225.224.3.374.074.149.074.299.074.524v.374zm2.171-.15c-.3-.15-.525-.15-.674 0l.075-.224v-.075l-.225-.15h-.075l-.748 2.769v.075l.224.15h.075l.45-1.796c.074-.225.149-.375.299-.45a.482.482 0 01.449 0c.15.075.299.225.299.45a.824.824 0 010 .598l-.45 1.796v.075l.225.15h.075l.524-1.871c.075-.299.075-.599 0-.823-.15-.375-.3-.524-.524-.674zm1.87 1.123l.15-.674v-.075l-.225-.149h-.075l-.15.673-.3-.149h-.074l-.075.224v.075l.3.15-.45 1.796c-.074.299-.074.524 0 .673.075.15.225.3.45.449.074.075.15.075.15.075h.074l.075-.224v-.075l-.075-.075a.587.587 0 01-.3-.299c-.074-.075-.074-.225 0-.449l.45-1.647.523.299h.075l.075-.224v-.075l-.599-.299zm2.694.299l-.224-.15-.075.075-1.048 3.817.075.075.224.149.075-.074.973-3.817v-.075zm1.87 2.694c0-.149-.075-.299-.224-.449-.075-.149-.225-.224-.374-.374-.225-.15-.45-.15-.674-.15a.769.769 0 00-.374.449.477.477 0 000 .449c.075.15.075.3.224.375.075.149.225.224.375.449l.299.299c.075.075.075.15.15.225v.299c0 .15-.075.224-.225.224-.15 0-.224 0-.374-.074a.903.903 0 01-.374-.375c-.075-.149-.075-.299-.075-.374v-.15l-.225-.149h-.074v.075c-.075.149 0 .299 0 .449l.224.449c.075.149.225.224.45.374.224.15.448.15.673.15.224-.075.299-.225.374-.449a.477.477 0 000-.449c-.075-.15-.15-.3-.225-.375-.075-.149-.224-.224-.374-.449-.15-.149-.3-.299-.374-.449-.075-.149-.075-.224-.075-.374s.075-.224.225-.224c.15 0 .224 0 .374.074.15.075.3.225.374.375a.812.812 0 01.075.374v.075l.224.149h.075c-.075-.075-.075-.224-.075-.449zm1.797.749c-.075-.15-.224-.225-.374-.375-.224-.149-.449-.149-.673-.149a.766.766 0 00-.375.449.477.477 0 000 .449c.075.149.15.299.225.374.075.15.224.224.374.449l.3.299c.074.075.074.15.15.225v.299c0 .15-.076.225-.225.225-.15 0-.225 0-.375-.075a.906.906 0 01-.374-.374c-.075-.15-.075-.3-.075-.375v-.149l-.224-.15h-.075v.524l.225.449c.074.15.224.299.449.374.224.15.449.225.673.15.225-.075.3-.225.374-.449a.477.477 0 000-.449c-.075-.15-.15-.3-.224-.374-.075-.15-.225-.225-.374-.449-.15-.15-.3-.3-.375-.449-.075-.15-.075-.225-.075-.375 0-.149.075-.224.225-.224a.81.81 0 01.374.075.9.9 0 01.374.374c.075.15.075.299.075.374v.075l.225.15h.075a.477.477 0 000-.449c-.075-.15-.15-.3-.3-.449zm2.394 1.347l-.524 1.796c-.075.224-.15.374-.299.449-.15.075-.3.075-.45-.075-.149-.075-.298-.225-.298-.374-.075-.15-.075-.374 0-.599l.449-1.796v-.075l-.225-.149h-.075l-.524 1.87c-.074.225-.074.375 0 .524 0 .15.075.374.225.449.075.15.224.225.374.3.3.149.524.149.674 0l-.075.224v.075l.224.15h.075l.749-2.769v-.075l-.3.075zm1.872.972c-.225-.149-.45-.149-.599-.074a.672.672 0 00-.449.449c-.075.074-.075.149-.075.224 0 .075-.075.225-.075.374-.075.374-.15.599-.15.823 0 .225.076.449.15.674.15.225.3.374.45.524.224.15.373.15.523.15.15 0 .3-.075.45-.225v-.075l-.15-.224h-.075c-.075.075-.225.149-.3.149-.075 0-.224 0-.374-.074a.902.902 0 01-.374-.375c-.075-.149-.15-.299-.075-.524 0-.074 0-.224.075-.449l1.422.824h.075l.075-.15c.074-.15.074-.299.074-.374.075-.3 0-.599-.074-.898-.075-.374-.3-.599-.524-.749zm.224 1.572l-1.197-.674c.075-.149.075-.299.15-.374a.587.587 0 01.299-.299c.15-.075.224 0 .374.075s.224.224.3.374c.074.15.074.299.074.524.075.149.075.224 0 .374zm2.319.075c-.074-.15-.224-.225-.373-.374-.225-.15-.45-.15-.674-.15a.765.765 0 00-.374.449.477.477 0 000 .449c.075.15.075.299.224.374.075.15.225.225.375.449l.299.3c.075.074.075.149.15.224 0 .075.075.15 0 .299 0 .15-.15.225-.225.225-.15 0-.224 0-.374-.075a.9.9 0 01-.374-.374c-.075-.15-.075-.299-.075-.374v-.15l-.225-.15h-.074v.524l.224.449c.075.15.225.225.45.374.224.15.448.15.673.15.224-.075.299-.224.374-.449a.477.477 0 000-.449c-.075-.15-.15-.299-.225-.374-.075-.15-.224-.225-.374-.449-.15-.15-.3-.299-.374-.449-.075-.15-.075-.225-.075-.374 0-.15.075-.225.225-.225.074 0 .224 0 .374.075s.3.225.374.374c.075.15.075.3.075.374v.075l.224.15h.075a.477.477 0 000-.449 1.567 1.567 0 00-.3-.449zm22.452 13.321l-1.571-4.415c0-.075-.075-.15-.15-.225-.075-.075-.15-.075-.225 0-.15.075-.224.299-.15.524l1.423 4.041-2.919 1.497c-.15.075-.225.299-.15.524 0 .074.075.149.15.224.075.075.15.075.225 0l3.143-1.646c.075 0 .15-.075.15-.225.149-.075.149-.149.074-.299z" fill="#FBFBFB"/><path d="M96.763 171.074l-56.876-32.853c-.898-.524-1.945 0-2.245 1.197l-4.714 17.661c-.3 1.198.15 2.545 1.122 3.069l56.876 32.853c.898.524 1.946 0 2.245-1.197l4.715-17.662c.3-1.197-.15-2.544-1.123-3.068z" fill="#1E959B"/><path d="M42.731 152.514l-1.122-.598v-.075l.374-1.422 1.647.973v-.075l.074-.225v-.074l-1.945-1.123-.075.075-.973 3.817v.074l.224.15h.075l.45-1.796 1.197.673.075-.299v-.075zm2.096-.823l-2.096 3.293v.075l.225.149h.075l.374-.598 1.347.748v.823l.075.075.224.15h.075l.075-4.415-.075-.075-.3-.225zm-.075 3.218l-1.197-.673 1.197-1.946v2.619zm3.293-1.272c-.15-.225-.299-.374-.523-.449-.225-.15-.375-.15-.6-.15-.149 0-.373.075-.448.225-.15.149-.225.374-.3.598l-.374 1.497c-.075.374-.075.674 0 .973.075.299.3.599.524.748l-.15.524v.075l.225.224h.075l.15-.523c.299.074.523.074.748-.075.224-.15.374-.374.449-.674l.374-1.496c.075-.225.075-.524.075-.749a9.43 9.43 0 00-.225-.748zm-.15 1.197l-.373 1.497c-.075.299-.225.449-.375.524-.15.075-.374.075-.598-.075-.225-.15-.375-.299-.45-.524a1.275 1.275 0 010-.748l.375-1.497c.075-.299.224-.449.374-.524.15-.075.374-.075.599.075.224.15.374.299.449.524.075.224.075.524 0 .748zm44.827 26.193l-1.571-4.415c0-.075-.075-.15-.15-.225-.075-.075-.15-.075-.224 0-.15.075-.225.3-.15.524l1.422 4.041-2.919 1.497c-.15.075-.224.299-.15.524 0 .075.075.149.15.224.075.075.15.075.225 0l3.143-1.646c.075-.075.15-.15.15-.225.074-.074.074-.149.074-.299z" fill="#FBFBFB"/><path opacity=".2" d="M203.031 75.807l-69-39.888 83.443 254.07c3.517.674 6.885-1.796 8.082-6.211l20.506-76.783-43.031-131.188zM41.16 95.938l37.567 114.425 56.277 32.479L61.59 19.455 41.16 95.938z" fill="#fff"/><path d="M0 265.218v-7.783h4.79c.374-.299.823-.524 1.272-.823l44.079-25.295c8.007-4.64 21.029-4.64 28.961 0l66.006 38.317c.449.224.898.523 1.272.823h4.715v7.858c-.15 2.993-2.095 5.912-6.062 8.157l-44.078 25.295c-8.008 4.639-21.03 4.639-28.962 0L5.987 273.375C2.095 271.13.075 268.212 0 265.218z" fill="#B6BBED"/><path d="M0 264.021v-7.783h4.79c.374-.299.823-.524 1.272-.823l44.079-25.22c8.007-4.64 21.029-4.64 28.961 0l66.006 38.316c.449.225.898.524 1.272.823h4.715v7.858c-.15 2.994-2.095 5.912-6.062 8.157l-44.078 25.22c-8.008 4.64-21.03 4.64-28.962 0L5.987 272.253c-3.892-2.32-5.912-5.239-5.987-8.232z" fill="url(#paint2_linear)"/><path d="M6.062 255.415l44.079-25.22c8.007-4.64 21.029-4.64 28.961 0l66.006 38.316c.449.225.898.524 1.272.823h4.715v1.422c-.15 2.994-2.095 5.912-6.062 8.157l-44.078 25.295c-8.008 4.64-21.03 4.64-28.962 0L5.987 265.817C2.095 263.572.15 260.653 0 257.66v-1.497h4.79c.374-.224.823-.449 1.272-.748z" fill="#fff"/><path d="M6.062 247.856l44.079-25.295c8.007-4.639 21.029-4.639 28.961 0l66.006 38.317c8.008 4.64 7.933 12.123-.075 16.763l-44.078 25.295c-8.008 4.64-21.03 4.64-28.962 0L5.987 264.62c-8.008-4.64-7.933-12.124.075-16.764z" fill="url(#paint3_linear)"/><path d="M82.62 268.436H12.498l-6.511-3.816c-6.51-3.742-7.633-9.43-3.592-13.92h80.3v17.736h-.075z" fill="url(#paint4_linear)"/><path d="M62.938 253.469s-.45 4.49-.524 5.538c-.075 1.048-.075 1.646.374 2.02.674.524 2.694 1.647 3.967 1.647 1.272.075 2.544-.674 3.816-1.272 1.273-.599 2.47-1.422 3.667-1.722 1.198-.299 2.245-.149 3.518-1.197 1.272-1.048 3.367-4.041 3.741-4.415.375-.375.225-1.048-.15-1.497-.373-.449-2.095-1.272-2.619-1.347-.523-.075-3.143.898-3.816.973-.674.075-3.892.149-5.164.075-1.123 0-6.81 1.197-6.81 1.197z" fill="#5C362F"/><path d="M62.938 252.646s-.45 4.49-.524 5.538c-.075 1.047-.075 1.646.374 2.02.674.524 2.694 1.647 3.967 1.647 1.272.074 2.544-.674 3.816-1.273 1.273-.598 2.47-1.421 3.667-1.721 1.198-.299 2.245-.149 3.518-1.197 1.272-1.048 3.218-3.817 3.517-4.191.374-.374.224-1.048-.15-1.497-.374-.449-2.095-1.272-2.62-1.347-.523-.075-2.918.599-3.666.749-.674.074-3.892.149-5.164.074-1.047 0-6.735 1.198-6.735 1.198z" fill="#7D4A41"/><path d="M88.232 175.414s-7.783 31.357-8.83 36.221c-.973 4.865-5.164 23.125-6.885 30.01-1.721 6.885-1.272 9.205-1.272 9.803 0 .674.299 1.871.224 2.245-.075.375-1.796 2.545-3.891 2.32-2.17-.299-3.892-.823-5.015-2.02 0 0 1.198-4.416 1.273-5.314.075-.898.898-23.424 1.347-27.165.673-5.014 3.667-9.13 3.966-13.022.3-3.891.225-19.682 0-22.825-.224-3.143-.374-8.531 1.198-13.92l18.035 2.245-.15 1.422z" fill="#1F2336"/><path d="M76.11 189.109l.748 33.901 4.116-17.736-4.865-16.165z" fill="#161926"/><path d="M78.803 259.157s-.449 4.49-.524 5.537c-.075 1.048-.075 1.647.374 2.021.674.524 2.695 1.646 3.967 1.646 1.272.075 2.544-.673 3.816-1.272 1.273-.599 2.47-1.422 3.667-1.721 1.198-.299 2.246-.15 3.518-1.197 1.272-1.048 3.367-4.042 3.742-4.416.374-.374.224-1.048-.15-1.497-.374-.449-2.095-1.272-2.62-1.347-.523-.074-3.142.824-3.816.973-.674.075-3.892.15-5.164.075-1.197.075-6.81 1.198-6.81 1.198z" fill="#5C362F"/><path d="M78.803 258.408s-.449 4.49-.524 5.538c-.075 1.048-.075 1.646.374 2.02.674.524 2.695 1.647 3.967 1.647 1.272.075 2.544-.674 3.816-1.272 1.273-.599 2.47-1.422 3.667-1.722 1.198-.299 2.246-.149 3.518-1.197 1.272-1.048 3.218-3.817 3.517-4.191.374-.374.225-1.048-.15-1.497-.374-.449-2.095-1.272-2.619-1.347-.524-.074-2.993.599-3.667.749-.673.075-3.891.149-5.164.075-1.122 0-6.735 1.197-6.735 1.197z" fill="#7D4A41"/><path d="M94.07 178.557s-2.095 32.704-2.47 37.643c-.374 4.939-3.442 23.499-4.265 30.608-.823 7.035-.674 8.756-.674 9.355.075.673.524 1.796.524 2.17-.075.374-1.422 2.769-3.592 2.769s-3.966-.374-5.239-1.422c0 0 .6-4.49.6-5.388 0-.898-.974-22.975-.824-26.717.15-3.741 1.347-9.878 1.197-13.77-.224-3.891-2.245-19.532-2.843-22.675-.6-3.068-1.422-8.457-.524-13.995h18.185v1.422h-.075z" fill="#1F2336"/><path d="M94.52 176.686v2.695c-1.946 1.796-6.736 2.469-14.145.523-9.13-2.319-10.926-5.388-10.926-5.388l.45-2.32 24.62 4.49z" fill="#AD6A43"/><path d="M89.654 177.135h-1.646v4.416h1.646v-4.416zm-11.898-1.571h-1.647v4.415h1.647v-4.415zm-6.511-2.918h-1.048v4.415h1.048v-4.415z" fill="#1F2336"/><path d="M91.301 110.531s1.871 4.64 2.245 6.137c.3 1.496 0 2.32.225 3.592.224 1.272.224 1.945 0 3.592-.225 1.646-.524 2.619-.599 3.742-.075 1.122-.075 1.496-.748 1.721-.674.224-1.722.075-3.368-.15 0 0-.15 2.021-.15 4.565-7.932.449-10.103-2.245-10.103-2.245s.674-3.517.45-4.64c-.3-1.122-3.144-5.014-3.368-8.232-.225-3.218.973-7.858 4.04-9.205 3.518-1.646 8.832-1.721 11.376 1.123z" fill="#FFDEC9"/><path d="M90.253 115.844v-6.211c.374.224.748.524 1.048.898l1.197 3.143c-.524.674-1.347 1.572-2.245 2.17z" fill="url(#paint5_linear)"/><path d="M78.504 125.274h8.531s1.422 2.02 4.041 3.292c.3.375-.224.3-.972.3-.749-.075-1.198-.075-1.946-.3 0 0-.599 2.62-.823 5.164-6.736.075-8.607-2.32-8.607-2.32s.674-3.517.45-4.64c-.075-.374-.3-.898-.674-1.496z" fill="url(#paint6_linear)"/><path d="M89.355 123.029s.674-.075.674-.823v-3.293c0-.225.224-.524.3-.674.074-.15.523-.524.523-.673 0-.15-.449-1.647-.449-1.722 0-.074.973-1.197 1.572-2.694.673-1.496.898-2.918.973-4.34-.973-.225-2.395-.15-2.395-.15.524-.524.224-1.796.224-1.796s-2.17.674-4.939.524c-2.769-.15-5.089-.674-7.334.449-2.245 1.122-3.068 3.068-3.068 6.96-1.198 2.245-1.198 4.49-.973 4.714.224.225 3.742 5.389 4.939 7.858 1.647.898 5.388.749 6.361.749.374-.973 1.347-2.769 1.347-2.769s-.599-.599-.898-1.497c-.3-.898-.15-1.871.823-2.32.973-.449 1.497-.075 1.572.075.374.599.748 1.422.748 1.422z" fill="#7D4A41"/><path d="M89.504 133.281s6.362 5.987 6.96 6.81c.674.824.823 1.048.898 2.021.075.973-2.918 24.995-2.993 26.492-.15 1.497 1.497 7.783 1.347 8.008-.15.299-.898 1.197-2.245 1.796-1.347.598-6.212 1.422-13.246-.524-7.035-1.946-9.879-3.892-10.477-4.79-.524-.823-1.048-3.517-.824-4.191.225-.748 1.946-4.939 2.021-5.537.075-.674-1.122-16.988-1.347-20.131-.224-3.144.15-9.729.823-11.376.674-1.646 3.368-5.014 8.382-3.741 0-.075 7.409 3.367 10.701 5.163z" fill="#FFAC6B"/><path d="M90.178 147.8l5.987 5.238c-.598 5.089-1.272 10.552-1.571 13.471-4.64-7.858-4.415-18.709-4.415-18.709z" fill="#F28350"/><path d="M77.98 128.567s.599-1.722.674-1.797c.075-.074.523-.224 1.197 0 .748.225 2.544 1.123 5.164 2.844 2.245 1.422 4.415 3.592 4.415 3.592s-2.62-.299-5.463-1.347c-2.919-1.047-6.062-2.544-6.062-2.694 0-.075.075-.598.075-.598z" fill="#FFAC6B"/><path d="M109.412 146.602s.599-6.286.674-6.66c.074-.374.374-1.123.823-1.796a65.774 65.774 0 001.946-3.143c.598-1.048 1.272-2.62 1.421-2.545.15.075.749.674.45 1.946-.3 1.272-.749 1.721-.973 2.245-.3.524-.824 1.796-.824 1.796s.599-.15.824-.075c.299.075 2.619 1.048 2.843 1.272.225.225.3.524.3 1.123.075.599 0 1.871 0 2.32 0 .449.299.673.149.748-.149.075-.898.3-1.047-.374-.225 1.198-.075 2.32-.524 2.844s-2.395 2.02-2.395 2.02l-3.667-1.721z" fill="#FFDEC9"/><path d="M116.222 140.241c.3.299.823 1.123.823 1.198v-.749c-.074-.599-.149-.898-.299-1.122-.224-.225-2.544-1.198-2.844-1.273-.299-.074-.823.075-.823.075s-.823.599-.823.749c0 .149 2.395.972 2.769 1.122.224.075.898-.299 1.197 0z" fill="url(#paint7_linear)"/><path d="M115.998 143.459s-.225-1.422-.225-1.646c0-.225.225-.524.225-.524s.299.224.299.599c0 .374-.149 1.87-.149 1.87l-.15-.299z" fill="url(#paint8_linear)"/><path d="M108.214 147.949s.673-1.272.748-1.496c.075-.225.3-.375.599-.3.299.075 2.245.749 3.068 1.272.749.599.973.749.973.973 0 .225-.673 2.021-.673 2.021l-4.715-2.47z" fill="#FFAC6B"/><path d="M96.839 140.765c-1.347-.823-5.837 0-6.51 5.089-.674 5.014 2.17 9.354 4.415 12.872 2.245 3.517 3.816 5.388 4.79 6.286.972.898 4.489 1.946 5.687 1.572 1.197-.449 2.544-2.994 3.293-4.715.748-1.721 4.49-10.253 4.639-10.627a2.469 2.469 0 000-1.048c-.074-.299-1.871-2.02-4.864-2.619 0 0-.599.15-.748.374-.15.225-.075.599-.225 1.048-.673 1.497-3.667 6.586-3.667 6.586s-4.94-11.675-5.538-12.872c-.599-1.198-.673-1.572-1.272-1.946z" fill="#FFAC6B"/><path d="M22.377 114.123l3.816.524c.823 1.347 1.871 2.619 2.994 3.742l.598 4.939 3.443 2.021.673-4.191c1.123.224 2.17.149 2.994-.3l3.816 3.817 1.722-2.47-3.143-4.714a7.53 7.53 0 00.224-1.871c0-.674-.075-1.347-.224-2.096l3.143-1.122-1.721-4.416-3.817-.523c-.823-1.347-1.871-2.62-2.994-3.742l-.598-4.94-3.443-2.02-.673 4.191c-1.123-.225-2.096-.15-2.994.299l-3.817-3.817-1.72 2.47 3.142 4.715a7.538 7.538 0 00-.224 1.871c0 .673.075 1.347.224 2.095l-3.143 1.123 1.721 4.415zm9.204-6.885c1.796 1.048 3.218 3.517 3.218 5.613 0 2.095-1.496 2.918-3.292 1.871-1.797-1.048-3.218-3.592-3.218-5.613 0-2.021 1.496-2.919 3.292-1.871z" fill="#1E959B"/><path d="M45.725 142.86c0-.673-.075-1.347-.224-2.095l3.143-1.123-1.722-4.415-3.816-.524a16.462 16.462 0 00-2.994-3.742l-.598-4.939-3.443-2.021-.673 4.191c-1.123-.224-2.17-.149-2.994.3l-3.817-3.817-1.72 2.47 3.142 4.714a7.548 7.548 0 00-.224 1.871c0 .674.075 1.422.224 2.096l-3.143 1.122 1.721 4.416 3.817.523c.823 1.347 1.871 2.695 2.994 3.742l.598 4.939 3.443 2.021.673-4.191c1.123.225 2.096.15 2.994-.299l3.816 3.817 1.722-2.47-3.143-4.715c.15-.598.224-1.197.224-1.871zm-7.933-.898c-1.796-1.047-3.218-3.517-3.218-5.612 0-2.096 1.497-2.919 3.293-1.871 1.796 1.047 3.218 3.517 3.218 5.612 0 2.096-1.497 2.919-3.293 1.871z" fill="#353B47"/><path d="M24.771 126.546c.15-.599.224-1.197.224-1.871 0-.674-.074-1.347-.15-2.095l3.144-1.123-1.721-4.415-3.817-.524c-.823-1.347-1.87-2.694-2.993-3.742l-.6-4.939-3.442-2.021-.673 4.191c-1.123-.224-2.17-.15-2.994.299l-3.816-3.816-1.721 2.469 3.143 4.715a7.54 7.54 0 00-.225 1.871c0 .673.075 1.422.15 2.095l-3.143 1.123 1.721 4.415 3.817.524c.823 1.347 1.87 2.694 2.993 3.742l.599 4.939 3.442 2.021.674-4.191c1.122.224 2.17.15 2.993-.299l3.817 3.816 1.721-2.469-3.143-4.715zm-7.708-2.694c-1.796-1.048-3.218-3.518-3.218-5.613 0-2.095 1.497-2.919 3.293-1.871s3.218 3.592 3.218 5.613c-.075 2.095-1.497 2.918-3.293 1.871z" fill="#055656"/><path d="M286.549 104.844l-64.284-37.12c-2.096-1.197-3.817-.224-3.817 2.17l-.075 31.507c0 2.395 1.721 5.388 3.817 6.586l2.918 1.721v4.939c0 1.347.524 2.395 1.273 2.844.374.224.823.299 1.272.15l7.858-1.946 50.889 29.411c2.095 1.197 3.816.224 3.816-2.171l.075-31.506c.075-2.469-1.646-5.388-3.742-6.585z" fill="#353B47"/><path d="M267.466 124.301l-40.038-23.125c-.524-.299-.973-.074-.973.599 0 .599.449 1.422.973 1.721l40.038 23.125c.523.299.972.075.972-.599 0-.673-.449-1.422-.972-1.721zm13.77.374l-53.733-31.057c-.524-.3-.973-.075-.973.599 0 .599.449 1.422.973 1.721l53.733 31.057c.524.3.973.075.973-.598 0-.674-.449-1.422-.973-1.722zm0-7.558l-53.733-31.058c-.524-.299-.973-.074-.973.6 0 .598.449 1.421.973 1.72l53.733 31.058c.524.299.973.074.973-.599 0-.599-.449-1.422-.973-1.721zm-53.733-36.296l53.733 31.057c.524.3.973.075.973-.599 0-.598-.449-1.421-.973-1.721l-53.733-30.982c-.524-.3-.973-.075-.973.599 0 .598.449 1.347.973 1.646z" fill="#fff"/><path d="M254.669 243.59c1.796 1.048 3.218 3.518 3.218 5.538l-.075 14.668c0 2.021-1.422 2.844-3.218 1.796l-53.808-31.057c-1.796-1.048-3.218-3.517-3.218-5.538l.075-14.668c0-2.02 1.422-2.843 3.218-1.796l53.808 31.057z" fill="#1E959B"/><path d="M210.739 227.875l-.673-.449-.674-.449-1.047-.674-.374-1.347-.225-.898-.225-.898c-.074-.374-.224-.599-.374-.673-.149-.075-.299 0-.374.224l-.224.599-.225.598-.374.898-1.048-.523-.673-.3-.674-.299c-.599-.299-.673.075-.224.748l.523.824 1.273 2.02-.225 1.048-.149.673-.15.674c-.075.374 0 .748.299.823.075.075.225.075.374.075l.599-.075.599-.075.898-.075.898 1.123.599.748.598.749c.15.224.3.299.374.374.225.15.375-.075.3-.524l-.15-.823-.15-.823-.224-1.273 1.272-.523.524-.225c0-.449-.075-.898-.674-1.272zm10.328 5.987l-.674-.449-.673-.449-1.048-.674-.374-1.347-.225-.898-.299-.898c-.075-.374-.224-.599-.374-.673-.15-.075-.299 0-.374.224l-.225.599-.299.599-.374.898-1.048-.524-.674-.3-.673-.299c-.599-.299-.674.075-.225.748l.524.824 1.272 2.02-.224 1.048-.15.673-.149.674c-.075.374 0 .748.299.823.075.075.224.075.374.075l.599-.075.599-.075.898-.075.898 1.123.598.748.599.749c.15.224.299.299.374.374.225.15.374-.075.3-.524l-.15-.823-.15-.823-.224-1.273 1.272-.523.524-.225c.149-.449.075-.898-.524-1.272zm10.402 5.912l-.673-.449-.674-.449-1.048-.674-.374-1.347-.224-.898-.3-.898c-.074-.374-.224-.598-.374-.673-.149-.075-.299 0-.374.224l-.224.599-.3.599-.374.898-1.048-.524-.673-.3-.674-.299c-.598-.299-.673.075-.224.748l.524.824 1.272 2.02-.225 1.048-.149.674-.15.673c-.075.374 0 .748.299.823.075.075.225.075.374.075l.599-.075.599-.075.898-.074.898 1.122.599.748.598.749c.15.224.3.299.374.374.225.15.375-.075.3-.524l-.15-.823-.15-.823-.224-1.272 1.272-.524.524-.225c.15-.374 0-.823-.524-1.272zm10.328 5.987l-.674-.449-.673-.449-1.048-.674-.374-1.347-.225-.898-.224-.898c-.075-.374-.225-.599-.374-.673-.15-.075-.3 0-.375.224l-.224.599-.299.598-.375.898-1.047-.523-.674-.3-.673-.299c-.599-.299-.674.075-.225.748l.524.823 1.272 2.021-.224 1.048-.15.673-.15.674c-.075.374 0 .748.3.823.074.075.224.075.374.075l.599-.075.598-.075.898-.075.898 1.123.599.748.599.749c.149.224.299.299.374.374.224.15.374-.075.299-.524l-.149-.823-.15-.823-.225-1.273 1.273-.524.523-.224c.075-.374-.074-.898-.598-1.272zm10.327 5.987l-.673-.449-.674-.449-1.047-.674-.374-1.347-.225-.898-.224-.898c-.075-.374-.225-.599-.375-.674-.149-.074-.299 0-.374.225l-.299.524-.3.598-.374.898-1.047-.523-.674-.3-.673-.299c-.599-.299-.674.075-.225.748l.524.823 1.272 2.021-.224 1.048-.15.673-.15.674c-.075.374 0 .748.3.823.074.075.224.075.374.075l.598-.075.599-.075.898-.075.898 1.123.599.748.599.749c.149.224.299.299.374.374.224.15.374-.075.299-.524l-.15-.823-.149-.823-.225-1.273 1.272-.524.524-.224c.15-.374.075-.823-.524-1.197z" fill="#fff"/><path d="M59.87 61.887L30.983 45.2c-.823-.45-1.572-.524-2.095-.225-.824.45-1.647.973-2.47 1.422.524-.3 1.272-.3 2.095.224L57.4 63.31c1.647.973 2.994 3.218 2.919 5.089v27.24c0 .898-.3 1.572-.898 1.871.823-.449 1.646-.973 2.47-1.422.523-.299.898-.972.898-1.87V66.975c.074-1.87-1.273-4.116-2.92-5.089z" fill="#1E273B"/><path d="M57.4 63.309c1.646.973 2.993 3.218 2.919 5.089v27.24c0 1.871-1.348 2.62-2.994 1.722L28.438 80.67c-1.646-.973-2.918-3.218-2.918-5.089v-27.24c0-1.871 1.347-2.62 2.993-1.721L57.4 63.308z" fill="#0F1521"/><path d="M59.495 97.584c.3-.224.674-.374.973-.598.225-.375.3-.749.3-1.348v-27.24c0-1.87-1.347-4.19-2.919-5.089L28.962 46.621c-.599-.3-1.122-.45-1.571-.375.374.075.673.15 1.122.374L57.4 63.31c1.647.972 2.994 3.217 2.919 5.088v27.24c.075.973-.3 1.647-.824 1.946z" fill="#2C3957"/><path d="M35.099 73.711l-4.191-2.47c-.075 0-.075-.074 0-.074l.299-.225c1.272-1.047 2.095-1.72 2.544-2.095.824-.748 1.273-1.572 1.273-2.47a4.52 4.52 0 00-.3-1.646c-.224-.524-.524-1.048-.973-1.497-.449-.449-.898-.898-1.421-1.197-.749-.45-1.422-.599-1.871-.374-.524.224-.749.673-.749 1.496v.6c0 .074.075.149.15.224l.673.374c.075.075.15 0 .15-.075v-.449c0-.524.15-.898.45-1.048.299-.15.748-.075 1.271.225.524.3.973.748 1.273 1.197.299.524.449 1.048.449 1.572 0 .673-.45 1.422-1.273 2.095l-1.122.973a49.771 49.771 0 01-2.096 1.721c-.075 0-.075.075-.075.15v.673c0 .075.075.15.15.225l5.389 3.068c.074.075.15 0 .15-.075v-.673c0-.075-.076-.15-.15-.225zm7.408 1.273l-.599-.3-.075-.075v-2.47c0-.074-.075-.149-.15-.224l-.673-.374c-.075-.075-.15 0-.15.075v2.47c0 .075 0 .075-.074 0l-2.994-1.722-.075-.074v-.075l2.694-5.014v-.15c0-.075-.074-.075-.074-.075l-.749-.449c-.075-.075-.15 0-.15 0l-2.768 5.239c0 .075-.075.075-.075.15v.598c0 .075.075.15.15.225l4.04 2.32.075.074v2.77c0 .074.075.149.15.224l.674.374c.075.075.15 0 .15-.075v-2.769c0-.075 0-.075.074 0l.599.3c.075.074.15 0 .15-.075v-.674c-.075-.075-.075-.15-.15-.224zm4.566-4.266c-.075-.075-.15 0-.15 0l-2.993 8.83c0 .075 0 .15.075.225l.673.374c.075.075.15.075.15 0l2.993-8.83c0-.075 0-.15-.075-.225l-.673-.374zm7.707 4.49l-5.313-3.068c-.075-.075-.15 0-.15.075v1.571c0 .075.075.15.15.225l.524.3c.075.074.15 0 .15-.076v-.748c0-.075 0-.075.074 0l3.667 2.095.075.075v.075l-3.143 7.783v.15c0 .075.075.075.075.075l.748.449c.075.074.15.074.15 0l3.143-7.858v-.898c0-.075-.075-.15-.15-.225z" fill="#1E959B"/><path d="M246.362 166.584c-8.007-4.64-14.518-.898-14.518 8.306 0 9.205 6.436 20.431 14.443 25.071 8.008 4.64 14.519.898 14.519-8.307.074-9.205-6.436-20.431-14.444-25.07z" fill="#F05670"/><path d="M246.362 179.755c-4.191-2.395-7.484-2.769-7.484-.674v1.946c.075.823.599 1.721 1.197 2.095l2.47 1.422c.898.524 1.497-.224 1.048-1.347-.3-.748-.075-1.422.449-1.496.598-.075 1.422.224 2.32.748.823.524 1.721 1.197 2.245 1.871.524.599.673 1.497.449 2.02-.449.599.149 2.021 1.047 2.545l2.47 1.422c.674.299 1.197 0 1.197-.674v-1.945c0-1.946-3.218-5.464-7.408-7.933z" fill="#fff"/><defs><linearGradient id="paint0_linear" x1="262.014" y1="147.464" x2="149.665" y2="212.742" gradientUnits="userSpaceOnUse"><stop stop-color="#F7FAFF"/><stop offset="1" stop-color="#C1C7D6"/></linearGradient><linearGradient id="paint1_linear" x1="64.529" y1="78.727" x2="261.067" y2="78.727" gradientUnits="userSpaceOnUse"><stop stop-color="#C7E1F8"/><stop offset="1" stop-color="#90AFF8"/></linearGradient><linearGradient id="paint2_linear" x1="151.058" y1="270.364" x2=".005" y2="270.364" gradientUnits="userSpaceOnUse"><stop stop-color="#D9DCF7"/><stop offset="1" stop-color="#CED2F7"/></linearGradient><linearGradient id="paint3_linear" x1="106.49" y1="278.214" x2="5.218" y2="227.686" gradientUnits="userSpaceOnUse"><stop stop-color="#F7FAFF"/><stop offset="1" stop-color="#E6ECFF"/></linearGradient><linearGradient id="paint4_linear" x1="3.629" y1="259.579" x2="40.193" y2="259.579" gradientUnits="userSpaceOnUse"><stop stop-color="#F7FAFF"/><stop offset="1" stop-color="#E6ECFF"/></linearGradient><linearGradient id="paint5_linear" x1="91.751" y1="111.186" x2="89.948" y2="113.336" gradientUnits="userSpaceOnUse"><stop stop-color="#FFD3BF"/><stop offset="1" stop-color="#FFB7A8"/></linearGradient><linearGradient id="paint6_linear" x1="84.41" y1="130.248" x2="85.563" y2="121.716" gradientUnits="userSpaceOnUse"><stop stop-color="#FFD3BF"/><stop offset="1" stop-color="#FFB7A8"/></linearGradient><linearGradient id="paint7_linear" x1="112.645" y1="141.099" x2="116.795" y2="138.951" gradientUnits="userSpaceOnUse"><stop stop-color="#FFD3BF"/><stop offset="1" stop-color="#FFB7A8"/></linearGradient><linearGradient id="paint8_linear" x1="115.546" y1="142.801" x2="116.679" y2="142.214" gradientUnits="userSpaceOnUse"><stop stop-color="#FFD3BF"/><stop offset="1" stop-color="#FFB7A8"/></linearGradient></defs></svg>