<svg width="101" height="106" fill="none" xmlns="http://www.w3.org/2000/svg"><path d="M2.277 55.273l16.126 11.12v31.968a7.026 7.026 0 007.026 7.026h49.18a7.026 7.026 0 007.026-7.026V66.394l16.124-11.12a5.27 5.27 0 000-8.677L81.635 35.48V7.026A7.026 7.026 0 0074.61 0H25.43a7.026 7.026 0 00-7.026 7.026V35.48L2.277 46.598a5.27 5.27 0 000 8.675zm79.358-15.528l14.13 9.746a1.757 1.757 0 010 2.891l-14.13 9.745V39.745zM63.528 3.513l-2.253 2.403a3.513 3.513 0 01-2.561 1.11h-17.39a3.524 3.524 0 01-2.562-1.11L36.51 3.513h27.018zm-41.612 33.81l.687-.475a1.756 1.756 0 00-.687-3.173V7.025a3.513 3.513 0 013.513-3.512h6.265L36.2 8.319a7.056 7.056 0 005.125 2.22h17.389a7.045 7.045 0 005.125-2.22l4.505-4.806h6.266a3.513 3.513 0 013.512 3.513v26.648a1.757 1.757 0 00-.686 3.174l.686.475v27.224L51.015 83.245c-.6.413-1.393.413-1.993 0L21.916 64.55V37.323zm0 31.494l25.117 17.319a5.3 5.3 0 005.984 0l25.105-17.319V89.58a3.513 3.513 0 01-3.513 3.513H25.43a3.513 3.513 0 01-3.513-3.513V68.817zm0 26.81a6.954 6.954 0 003.513.977h49.18a6.954 6.954 0 003.513-.976v2.733a3.513 3.513 0 01-3.513 3.513H25.43a3.513 3.513 0 01-3.513-3.513v-2.733zM4.273 49.492l14.13-9.75V62.13L4.271 52.382a1.756 1.756 0 010-2.89h.002z" fill="#F8FFFF"/><path d="M38.464 25.537c.355 0 .702-.11.994-.311l3.37-2.326a1.756 1.756 0 10-1.993-2.89l-3.368 2.323a1.757 1.757 0 00.997 3.204zm-7.74 1.446l-3.362 2.325a1.756 1.756 0 001.992 2.893l3.37-2.326a1.756 1.756 0 00-1.991-2.892h-.009zm18.847-8.732l.45-.309.45.31a1.756 1.756 0 001.993-2.892l-1.447-.997a1.756 1.756 0 00-1.992 0l-1.447.997a1.756 1.756 0 001.993 2.891zm11.012 6.975a1.757 1.757 0 001.992-2.893l-3.371-2.324a1.757 1.757 0 10-1.983 2.891l3.362 2.326zM70.694 32.2a1.757 1.757 0 001.993-2.892l-3.37-2.325a1.756 1.756 0 00-1.992 2.892l3.369 2.326zM50.02 61.475c.33 0 .652-.092.93-.267l14.052-8.782c.514-.32.826-.884.826-1.49V35.13c0-.606-.312-1.169-.826-1.49l-14.051-8.782a1.756 1.756 0 00-1.862 0L35.037 33.64a1.757 1.757 0 00-.825 1.49v15.808c0 .605.312 1.168.825 1.49l14.052 8.781c.28.175.602.267.93.267zm12.295-11.511l-10.539 6.593V44.886l10.539-6.587v11.665zM50.02 28.417l10.737 6.712L50.02 41.84l-10.737-6.71 10.737-6.712zm-1.757 28.14l-10.538-6.586V38.299l10.538 6.587v11.671z" fill="#F8FFFF"/></svg>