<svg width="107" height="113" fill="none" xmlns="http://www.w3.org/2000/svg"><path d="M106.277 27.593c0-5.112-4.129-9.27-9.204-9.27a9.146 9.146 0 00-6.637 2.857L54.516.295a2.178 2.178 0 00-2.19 0L16.406 21.18a9.144 9.144 0 00-6.636-2.857c-5.076 0-9.205 4.158-9.205 9.27 0 4.35 2.992 8.008 7.013 9.001V78.35c0 .788.418 1.516 1.096 1.91l35.908 20.88a9.3 9.3 0 00-.368 2.59c0 5.111 4.129 9.27 9.204 9.27 5.075 0 9.203-4.159 9.203-9.27a9.3 9.3 0 00-.367-2.588l35.914-20.881a2.21 2.21 0 001.096-1.911V36.594c4.021-.993 7.013-4.65 7.013-9.001zm-101.329 0c0-2.678 2.163-4.856 4.822-4.856 2.658 0 4.82 2.178 4.82 4.856 0 2.677-2.162 4.855-4.82 4.855-2.66 0-4.822-2.178-4.822-4.855zm48.47 80.993c-2.659 0-4.821-2.178-4.821-4.856 0-2.676 2.162-4.855 4.821-4.855 2.658 0 4.821 2.179 4.821 4.855 0 2.678-2.163 4.856-4.82 4.856zm6.641-11.264a9.147 9.147 0 00-6.64-2.861 9.147 9.147 0 00-6.64 2.859L11.961 77.075v-40.48c4.02-.994 7.012-4.652 7.012-9.002 0-.9-.13-1.77-.369-2.594L53.421 4.755 88.238 25a9.302 9.302 0 00-.369 2.594c0 4.35 2.992 8.008 7.012 9.001v40.481L60.059 97.322zm37.014-64.874c-2.659 0-4.822-2.178-4.822-4.855 0-2.678 2.163-4.856 4.822-4.856 2.658 0 4.821 2.178 4.821 4.856 0 2.677-2.163 4.855-4.822 4.855z" fill="#F8FFFF"/><path d="M83.444 34.237L54.516 17.418a2.178 2.178 0 00-2.19 0l-28.928 16.82a2.211 2.211 0 00-1.096 1.91v33.64a2.21 2.21 0 001.096 1.911l28.927 16.82a2.18 2.18 0 002.19 0L83.445 71.7a2.21 2.21 0 001.095-1.911v-33.64c0-.787-.417-1.516-1.095-1.91zM53.42 21.877L77.965 36.15 53.42 50.42 28.876 36.15 53.42 21.878zm2.192 60.908v-9.953a2.2 2.2 0 00-2.192-2.207c-1.21 0-2.19.988-2.19 2.207v9.953L26.684 68.514V39.97l25.64 14.909a2.18 2.18 0 002.19 0L80.155 39.97v28.543L55.612 82.785z" fill="#F8FFFF"/><path d="M53.419 60.693c-.579 0-1.142.236-1.552.647-.408.41-.642.98-.642 1.56 0 .58.234 1.15.642 1.56.41.411.973.647 1.552.647A2.198 2.198 0 0055.61 62.9a2.198 2.198 0 00-2.191-2.207z" fill="#F8FFFF"/></svg>