<svg width="117" height="116" fill="none" xmlns="http://www.w3.org/2000/svg"><path d="M.006 93.481c.891-2.21 2.673-2.985 4.898-3.176a51.274 51.274 0 005.265-.74 2.18 2.18 0 001.316-1.01c1.033-1.93 1.943-3.94 2.922-5.889.751-1.515 1.918-2.388 3.673-2.382a3.774 3.774 0 013.662 2.385c.363.81.806 1.167 1.703 1.055.753-.05 1.508-.056 2.261-.018-8.935-11.07-12.145-23.527-9.03-37.255 3.117-13.727 11.519-23.46 24.25-29.51-.765-1.212-1.283-2.425-.777-3.865.552-1.57 1.607-2.543 3.25-2.797 2.121-.33 4.243-.64 6.386-.91.91-.112 1.476-.463 1.867-1.342.846-1.898 1.819-3.735 2.728-5.602C55.123.91 56.293 0 58.017 0c1.78-.02 2.992.861 3.759 2.425.91 1.867 1.891 3.704 2.728 5.602.415.933 1.058 1.233 1.991 1.345 1.983.243 3.959.533 5.93.87 3.36.573 4.68 3.359 3.03 6.311-.073.127-.124.267-.206.436a42.276 42.276 0 0112.427 8.439c7.19 7.108 11.464 15.661 12.613 25.746a42.276 42.276 0 01-3.283 21.95c-.51 1.174-1.458 1.604-2.446 1.156-.91-.413-1.18-1.352-.725-2.522.095-.249.204-.488.304-.734 1.952-4.698 3.052-9.602 2.946-14.685-.352-16.671-8.102-28.644-22.988-36.055-1.236-.606-2.121-.651-2.93.549a3.132 3.132 0 01-.486.476c-1.26 1.212-1.467 2.01-.788 3.573.13.303.585.51.934.664 9.093 4.038 15.37 10.724 18.532 20.172 4.583 13.679-.507 28.91-12.285 37.221-.26.185-.513.385-1.01.761 3.298 0 6.305 0 9.312-.021.273 0 .606-.303.806-.53a178.526 178.526 0 003.692-4.45c.91-1.125 1.782-1.404 2.685-.746.904.658.91 1.68.106 2.798-.354.49-.712.979-1.082 1.458-.37.479-.694.867-1.19 1.482 1.178 0 2.154.09 3.097-.046.34-.051.67-.606.882-.997 1.191-2.215 3.495-3.088 5.516-1.891a5.563 5.563 0 011.88 2.025c1.033 1.843 1.931 3.767 2.816 5.689a1.812 1.812 0 001.621 1.155c2.207.27 4.413.573 6.605.951a3.8 3.8 0 013.158 2.759 3.76 3.76 0 01-.939 3.98c-1.564 1.594-3.147 3.173-4.792 4.679a1.946 1.946 0 00-.637 2.013c.354 1.93.699 3.864 1.037 5.802.579 3.334-1.452 5.71-4.505 5.255a5.223 5.223 0 01-1.582-.569 197.344 197.344 0 01-5.604-2.965 1.635 1.635 0 00-1.782.018c-1.85 1.025-3.735 1.98-5.602 2.971-1.564.83-3.125.924-4.583-.173-1.458-1.097-1.912-2.534-1.515-4.322.303-1.285.442-2.604.676-4.05H72.984c-1.305 0-2.12-.624-2.163-1.655-.043-1.03.779-1.788 2.146-1.791H85.87c-1.467-1.603-2.934-3.267-4.468-4.865-1.034-1.073-1.649-2.24-1.385-3.764a3.965 3.965 0 013.483-3.374c2.203-.303 4.404-.655 6.613-.927 1.443-.176 1.407-1.459 2.031-2.425h-67.98c.46 1.915.73 2.16 2.71 2.467 1.9.303 3.8.606 5.704.879 1.634.245 2.819 1.085 3.37 2.658.552 1.573.161 3.031-1.012 4.277-1.585 1.673-3.143 3.371-4.69 5.032.152 0 .504.042.853.042h33.126c1.819 0 2.674.564 2.655 1.728-.018 1.164-.87 1.703-2.688 1.703H30.028c.243 1.516.455 2.934.707 4.359a3.867 3.867 0 01-1.549 4.001 3.758 3.758 0 01-4.168.367 151.711 151.711 0 01-5.916-3.11c-.697-.385-1.255-.437-1.983-.022-1.8 1.028-3.664 1.949-5.498 2.922-1.516.807-3.031.931-4.495-.066-1.464-.998-1.94-2.462-1.667-4.168.331-2.051.692-4.097 1.082-6.138.17-.888.04-1.567-.685-2.21a56.188 56.188 0 01-3.734-3.637C1.337 97.416.706 96.44 0 95.51l.006-2.028zm40.068-9.79c-.91-.682-1.598-1.176-2.261-1.707-6.954-5.516-11.022-12.703-12.346-21.462-.215-1.416.303-2.32 1.322-2.492 1.14-.191 1.818.446 2.082 1.949 1.86 11.09 7.899 18.917 18.207 23.397a4.3 4.3 0 001.634.318c5.895.021 11.794 0 17.69.03a8.461 8.461 0 004.088-.909C81.138 77.38 87.025 68.73 87.513 56.778c.363-8.85-3.031-16.386-9.463-22.493a26.7 26.7 0 00-7.314-4.947 2.35 2.35 0 00-.021.427c.303 1.795-.125 3.334-1.674 4.386-1.548 1.052-3.122.807-4.692-.054-1.752-.964-3.549-1.85-5.295-2.822a1.75 1.75 0 00-1.894-.018c-1.983 1.088-3.98 2.16-6.014 3.152a3.94 3.94 0 01-5.638-2.589c-.182-.742-.027-1.567-.027-2.467-.46.212-.837.364-1.188.555a29.325 29.325 0 00-12.749 13.27 30.42 30.42 0 00-2.728 9.19c-.151 1.085-.857 1.661-1.837 1.591-.979-.07-1.552-.755-1.555-1.855-.01-.304.008-.608.055-.909 2.167-12.124 8.79-20.739 20.078-25.719.301-.108.559-.314.73-.585.649-1.515.437-2.397-.785-3.58a5.075 5.075 0 01-.727-.706c-.694-1.006-1.44-.909-2.48-.433C26.837 27.095 17.683 42.75 19.26 59.8c.816 9 4.453 16.713 10.633 23.245.246.261.585.606.885.606 3.004.058 6.011.04 9.297.04zm-31.22 27.37c.036.755.5.719 1.127.388 1.934-1.021 3.892-2 5.805-3.064a4.472 4.472 0 014.622 0 223.09 223.09 0 005.51 2.889c.37.148.754.259 1.146.33.052-.427.206-.87.143-1.279a190.133 190.133 0 00-1.016-5.917c-.333-1.8 0-3.334 1.416-4.628 1.594-1.45 3.1-2.995 4.622-4.523.215-.218.458-.606.403-.84-.054-.233-.497-.43-.776-.46a245.743 245.743 0 00-6.49-.933c-1.666-.216-2.876-1-3.612-2.546a228.7 228.7 0 00-2.961-5.987 3.562 3.562 0 00-.74-.758 3.836 3.836 0 00-.64.737 288.65 288.65 0 00-2.96 5.986 4.326 4.326 0 01-3.502 2.546c-2.164.303-4.328.607-6.49.943-.341.103-.668.25-.972.437.126.325.298.63.509.909 1.576 1.579 3.192 3.119 4.78 4.686a4.183 4.183 0 011.273 4.019c-.443 2.298-.788 4.613-1.2 7.065h.003zm80.068-.433c-.063 1.073.203 1.246 1.119.773a291.187 291.187 0 005.804-3.065 4.348 4.348 0 014.419-.036 239.464 239.464 0 005.808 3.031c.334.115.683.179 1.036.191a4.01 4.01 0 00.119-1.058c-.328-2.121-.628-4.261-1.073-6.365-.379-1.8.2-3.167 1.467-4.377a260.263 260.263 0 004.704-4.598c.188-.188.397-.548.336-.746a.962.962 0 00-.691-.451c-2.121-.33-4.243-.676-6.38-.91-1.819-.2-3.11-1.009-3.901-2.667a253.936 253.936 0 00-2.798-5.686 5.205 5.205 0 00-.84-.964 5.756 5.756 0 00-.742.91 217.64 217.64 0 00-2.864 5.776c-.734 1.55-1.943 2.347-3.598 2.577a355.5 355.5 0 00-6.487.949c-.303.045-.74.23-.797.436-.057.206.176.624.391.843 1.492 1.515 2.962 3.03 4.547 4.446 1.485 1.343 1.852 2.922 1.482 4.82-.421 2.112-.73 4.204-1.06 6.171zM48.85 30.714c-.052.622.303.855 1.051.47a289.96 289.96 0 005.905-3.116c1.515-.837 2.985-.867 4.516-.024 1.952 1.073 3.94 2.088 5.914 3.107.24.124.694.239.794.127a1.185 1.185 0 00.224-.88c-.333-2.163-.66-4.334-1.088-6.48-.343-1.715.064-3.119 1.325-4.322a234.91 234.91 0 004.782-4.689 1.21 1.21 0 00.328-.867c0-.145-.452-.324-.715-.366-2.05-.322-4.098-.664-6.157-.91-1.921-.221-3.334-1.037-4.128-2.873-.794-1.837-1.7-3.531-2.604-5.271a7.156 7.156 0 00-.933-1.161 7.043 7.043 0 00-.86 1.103c-.962 1.885-1.877 3.792-2.81 5.69a4.001 4.001 0 01-3.12 2.354c-2.273.346-4.546.683-6.817 1.052-.332.103-.65.251-.942.44a4 4 0 00.518.93 316.386 316.386 0 004.698 4.614c1.213 1.176 1.625 2.558 1.304 4.243-.428 2.21-.776 4.447-1.185 6.83z" fill="#F8FFFF"/><path d="M58.113 93.072c4.801 0 9.6-.015 14.398.021a3.335 3.335 0 011.797.473c.991.69.746 2.334-.373 2.807a3.477 3.477 0 01-1.324.218c-9.676.012-19.349.012-29.02 0-1.452 0-2.173-.485-2.306-1.491-.167-1.234.627-2.037 2.094-2.043h12.582l2.152.015zm-8.736-37.946c-.828 2.883-1.616 5.52-2.337 8.184-.303 1.11-.891 1.84-2.061 1.937-1.003.082-1.752-.624-2.152-1.949-.734-2.425-1.455-4.85-2.182-7.256-.061-.197-.152-.382-.346-.864-.536 2.919-1.015 5.532-1.516 8.144-.239 1.307-.948 1.907-2.049 1.746-1-.145-1.555-.94-1.336-2.225.685-4.058 1.433-8.102 2.158-12.151.127-.706.215-1.422.376-2.122.233-1.018.842-1.718 1.93-1.767a1.949 1.949 0 012.122 1.516l2.48 8.353c.103.346.224.685.445 1.34.36-1.213.646-2.122.91-3.05l1.818-6.422c.349-1.213 1.143-1.88 2.158-1.776 1.104.112 1.743.751 1.958 1.873.882 4.631 1.795 9.26 2.683 13.894.17.885.182 1.752-.73 2.31-1.143.697-2.374.04-2.656-1.43-.46-2.41-.91-4.823-1.364-7.233-.045-.282-.154-.552-.309-1.052zm23.011 3.564v4.58c0 1.189-.719 1.983-1.719 1.989-1 .006-1.697-.776-1.7-1.989-.018-4.882-.018-9.763 0-14.643 0-1.19.606-1.858 1.797-1.879a38.88 38.88 0 014.974.134c3.174.36 5.298 3.11 5.086 6.395-.188 2.94-2.794 5.368-5.822 5.41-.84.013-1.665.004-2.616.004zm.06-8.423v4.983h2.304c.263-.017.522-.067.773-.148a2.464 2.464 0 001.855-2.622 2.512 2.512 0 00-2.346-2.197c-.825-.052-1.655-.016-2.586-.016zm-11.564 8.454l3.335-9.948c.085-.252.151-.51.251-.752.418-1.015 1.328-1.449 2.283-1.103a1.734 1.734 0 01.975 2.243c-1.112 3.41-2.251 6.81-3.382 10.212-.464 1.397-.946 2.788-1.394 4.189-.325 1.009-.985 1.658-2.04 1.667-1.055.009-1.716-.658-2.058-1.65-1.634-4.743-3.28-9.483-4.905-14.23-.406-1.185-.042-2.122.91-2.458 1.018-.376 1.906.106 2.34 1.33 1.079 3.059 2.121 6.13 3.197 9.194.119.379.273.751.488 1.306z" fill="#F8FFFF"/></svg>