<svg width="105" height="105" fill="none" xmlns="http://www.w3.org/2000/svg"><path d="M48.914 97.828h6.988a1.747 1.747 0 000-3.494h-6.988a1.747 1.747 0 000 3.494zM22.71 26.204c.965 0 1.747-.782 1.747-1.747V13.975h55.901v13.976a1.747 1.747 0 003.494 0V6.988C83.852 3.843 79.82 0 75.118 0h-45.42a8.745 8.745 0 00-8.735 8.735v15.722c0 .965.782 1.747 1.747 1.747zm1.747-17.47a5.24 5.24 0 015.24-5.24h45.42c3.028 0 5.241 2.446 5.241 3.494v3.494H24.457V8.735z" fill="#F8FFFF"/><path d="M82.105 76.865c-.964 0-1.747.782-1.747 1.747v8.734H24.457V80.36a1.747 1.747 0 00-3.494 0v15.72a8.745 8.745 0 008.735 8.735h45.42a8.745 8.745 0 008.734-8.735V78.61c0-.964-.782-1.746-1.747-1.746zM80.358 96.08a5.24 5.24 0 01-5.24 5.241h-45.42a5.24 5.24 0 01-5.241-5.24V90.84h55.901v5.241zM48.914 5.24H45.42a1.747 1.747 0 000 3.495h3.494a1.747 1.747 0 000-3.494zm10.481 0h-3.494a1.747 1.747 0 000 3.495h3.494a1.747 1.747 0 000-3.494z" fill="#F8FFFF"/><path d="M104.414 33.822a1.75 1.75 0 00-1.346-.63H57.215l-.89-6.008a5.274 5.274 0 00-5.186-4.474h-7.466v3.494h7.466c.867 0 1.603.634 1.73 1.492l6.103 41.201a5.274 5.274 0 005.185 4.474h4.294a5.21 5.21 0 009.839 0h7.63a5.24 5.24 0 100-3.494h-7.63a5.21 5.21 0 00-9.839 0h-4.294a1.76 1.76 0 01-1.73-1.492l-.555-3.749h35.956c.84 0 1.56-.598 1.715-1.423l5.241-27.951a1.749 1.749 0 00-.37-1.44zM90.84 69.877a1.747 1.747 0 110 3.494 1.747 1.747 0 010-3.494zm-17.47 0a1.747 1.747 0 110 3.494 1.747 1.747 0 010-3.494zm23.008-8.734H61.355l-3.621-24.458h43.238l-4.594 24.457zM45.42 52.408c0-12.543-10.167-22.71-22.71-22.71C10.168 29.698 0 39.865 0 52.408c0 12.542 10.168 22.71 22.71 22.71 12.536-.015 22.696-10.174 22.71-22.71zm-41.926 0c0-10.613 8.603-19.216 19.216-19.216 10.613 0 19.216 8.603 19.216 19.216 0 10.613-8.603 19.216-19.216 19.216-10.608-.012-19.204-8.609-19.216-19.216z" fill="#F8FFFF"/><path d="M24.457 66.383v-1.995a6.974 6.974 0 00-1.747-13.727 3.494 3.494 0 113.494-3.494 1.747 1.747 0 003.494 0 6.988 6.988 0 00-5.24-6.74v-1.995a1.747 1.747 0 00-3.495 0v1.995a6.974 6.974 0 001.747 13.728 3.494 3.494 0 11-3.494 3.494 1.747 1.747 0 00-3.493 0 6.988 6.988 0 005.24 6.74v1.994a1.747 1.747 0 003.494 0zM62.89 41.926h24.457a1.747 1.747 0 000-3.494H62.89a1.747 1.747 0 000 3.494zm29.697 0h3.494a1.747 1.747 0 000-3.494h-3.494a1.747 1.747 0 000 3.494z" fill="#F8FFFF"/></svg>