<svg width="105" height="104" fill="none" xmlns="http://www.w3.org/2000/svg"><path d="M33.636 54.076c.828.148 1.62-.4 1.77-1.229l.715-3.96 1.194 4.048c.23.782.895 1.202 1.676 1.24.688-.004 1.469-.574 1.663-1.256l1.152-4.043.762 3.987a1.522 1.522 0 102.991-.572l-1.797-9.403c-.346-1.7-2.904-1.783-3.377-.138l-1.425 4.998-1.479-5.013c-.491-1.693-3.053-1.498-3.38.189l-1.693 9.382c-.149.828.4 1.62 1.228 1.77zm-18.759.099c1.614 0 3.16-.662 4.202-1.904a1.523 1.523 0 10-2.335-1.956c-1.883 1.986-5.249.083-5.162-2.48-.034-2.599 3.004-4.213 5.136-2.733a1.523 1.523 0 101.705-2.523c-4.133-2.847-9.93.234-9.887 5.256a6.348 6.348 0 006.34 6.34zm8.427 0c.841 0 1.523-.682 1.523-1.523V50.77l2.543 2.89c.698.64 1.414.685 2.15.136a1.523 1.523 0 00.137-2.149l-2.137-2.428c4.112-1.78 2.868-7.66-1.652-7.724h-2.56a1.523 1.523 0 00-1.527 1.523v9.635c0 .841.682 1.523 1.523 1.523zm2.564-9.635c1.485.083 1.484 1.88 0 1.962l-1.028.003c-.003-.655-.004-1.31-.005-1.965h1.033zm41.53-4.028V33.62c-.07-2.017-2.976-2.015-3.045 0v6.89c.07 2.017 2.976 2.016 3.046 0zm17.704 0V33.62c-.07-2.017-2.977-2.015-3.046 0v6.89c.07 2.017 2.976 2.016 3.046 0zm-6.86-1.852v-3.187c-.194-4.665-6.84-4.662-7.031 0v3.187c.194 4.665 6.84 4.661 7.031 0zm-3.046 0c-.016.62-.923.619-.94 0v-3.187c.017-.62.924-.62.94 0v3.187z" fill="#F8FFFF"/><path d="M76.249 28.807v-6.891c-.07-2.017-2.977-2.015-3.046 0v6.89c.07 2.017 2.977 2.016 3.046 0zm-6.859-5.039c-.193-4.665-6.839-4.662-7.03 0v3.186c.193 4.666 6.839 4.662 7.03 0v-3.186zm-3.045 3.186c-.017.62-.924.62-.94 0v-3.186c.016-.62.924-.62.94 0v3.186zm20.751-3.186c-.194-4.665-6.84-4.662-7.032 0v3.186c.194 4.666 6.84 4.662 7.032 0v-3.186zm-3.046 3.186c-.016.62-.924.62-.94 0v-3.186c.017-.62.924-.62.94 0v3.186zM73.203 45.326v6.89c.07 2.017 2.977 2.016 3.046 0v-6.89c-.07-2.017-2.977-2.015-3.046 0zM62.36 47.178v3.187c.193 4.665 6.839 4.661 7.03 0v-3.187c-.193-4.665-6.839-4.662-7.03 0zm3.045 0c.016-.62.924-.62.94 0v3.187c-.017.62-.924.619-.94 0v-3.187zm14.659 0v3.187c.194 4.665 6.84 4.661 7.032 0v-3.187c-.194-4.665-6.84-4.662-7.032 0zm3.046 0c.017-.62.924-.62.94 0v3.187c-.016.62-.924.619-.94 0v-3.187z" fill="#F8FFFF"/><path d="M102.249 80.59l-.003-.006c-3.498-7.143-12.36-10.609-19.77-7.847V60.315h6.435a6.951 6.951 0 006.944-6.944V41.454c0-1.969-3.046-1.969-3.046 0v11.917a3.902 3.902 0 01-3.898 3.898H75.857c-.328 0-.647.106-.91.301l-6.458 4.808v-3.586c0-.841-.682-1.523-1.523-1.523h-6.423a3.902 3.902 0 01-3.898-3.898V20.158a3.902 3.902 0 013.898-3.898H88.91a3.902 3.902 0 013.897 3.898v13.18c0 1.969 3.046 1.969 3.046 0v-13.18a6.951 6.951 0 00-6.943-6.943H60.543a6.951 6.951 0 00-6.944 6.943v12.88H8.832c-4.852 0-8.799 3.947-8.799 8.8V81.51c0 4.199 3.416 7.615 7.615 7.615h3.553c1.97 0 1.97-3.046 0-3.046H7.648a4.574 4.574 0 01-4.569-4.57v-5.184h73.637A16.068 16.068 0 0071.9 86.08H19.779c-1.97 0-1.97 3.046 0 3.046h12.602l-2.798 11.827h-5.386a1.523 1.523 0 100 3.046h34.115a1.523 1.523 0 100-3.046h-5.386l-2.798-11.827h21.716c.158 2.128.73 4.169 1.706 6.081A16.043 16.043 0 0087.9 104c11.844.147 19.858-12.94 14.349-23.41zM82.205 90.796l-.002-.004c-2.185-4.157 1-9.344 5.697-9.286A6.369 6.369 0 0193.594 85c2.19 4.157-.995 9.347-5.694 9.289a6.368 6.368 0 01-5.695-3.492zm16.56-10.141l-3.257 1.658a9.382 9.382 0 00-6.085-3.73V74.93a12.988 12.988 0 019.342 5.725zM3.079 41.837a5.76 5.76 0 015.753-5.753H53.6v17.287a6.951 6.951 0 006.944 6.944h4.9v5.095c0 1.226 1.438 1.962 2.433 1.221l8.485-6.316h3.069V73.28H3.08V41.837zm83.298 33.095v3.653c-5.508.785-9.288 6.807-7.469 12.183l-3.244 1.652-.014.007c-3.01-7.772 2.553-16.68 10.727-17.495zm-36.581 26.021H32.713l2.798-11.827h11.487l2.798 11.827zm38.104 0a13 13 0 01-10.866-5.812l3.257-1.66c6.455 8.477 19.643 1.786 16.6-8.453l2.569-1.308.689-.35c3.209 8.326-3.309 17.709-12.25 17.583zM8.43 28.344c.84 0 1.522-.681 1.522-1.523v-7.897h5.97v7.898c0 1.969 3.046 1.969 3.046 0V17.4c0-.841-.682-1.523-1.523-1.523H8.429c-.841 0-1.523.682-1.523 1.523v9.42c0 .841.682 1.523 1.523 1.523z" fill="#F8FFFF"/><path d="M35.996 28.344c.84 0 1.523-.681 1.523-1.523v-13.66h5.97v13.66c0 1.97 3.045 1.97 3.045 0V11.638c0-.84-.682-1.523-1.523-1.523h-9.015c-.842 0-1.523.682-1.523 1.523v15.183c0 .841.681 1.523 1.523 1.523zm-13.784.001c.842 0 1.523-.682 1.523-1.523V3.078h5.97V26.82c0 1.97 3.046 1.97 3.046 0V1.555c0-.841-.682-1.523-1.523-1.523h-9.016c-.84 0-1.523.682-1.523 1.523V26.82c0 .842.682 1.523 1.523 1.523zm23.534 29.589H10.107c-2.016.07-2.014 2.977 0 3.046h35.64c2.016-.07 2.014-2.976 0-3.046zM29.45 64.536H10.108c-2.017.07-2.015 2.977 0 3.046h19.341c2.017-.07 2.016-2.977 0-3.046z" fill="#F8FFFF"/></svg>