<svg width="109" height="109" fill="none" xmlns="http://www.w3.org/2000/svg"><path d="M108.223 55.857c0-11.676-8.236-21.453-19.201-23.858V8.728C89.022 3.915 85.107 0 80.294 0H34.911c-4.813 0-8.728 3.915-8.728 8.728v19.2H16.092l-1.052 4.218-3.725-2.236-9.336 9.33 2.236 3.728L0 44.02v13.2l4.217 1.053L1.98 62l9.334 9.332 3.725-2.236 1.054 4.215h10.09v26.183c0 4.812 3.916 8.728 8.729 8.728h45.383c4.813 0 8.728-3.916 8.728-8.728v-19.78c10.965-2.406 19.201-12.182 19.201-23.858zm-3.491 0c0 3.402-.833 6.607-2.278 9.45a8.71 8.71 0 00-6.078-5.483l-7.354-1.84v-.416c2.175-1.64 3.491-4.218 3.491-6.946v-3.491a8.758 8.758 0 00-2.831-6.436 8.774 8.774 0 00-6.672-2.258c-4.46.385-7.952 4.365-7.952 9.054v3.13c0 2.728 1.316 5.306 3.49 6.945v.417l-7.353 1.84a8.709 8.709 0 00-6.078 5.482 20.778 20.778 0 01-2.278-9.448c0-11.55 9.396-20.947 20.946-20.947s20.947 9.397 20.947 20.947zM78.549 31.999a24.251 24.251 0 00-3.491 1.06v-.13a5 5 0 00-5-5h-24.91a5 5 0 00-5 5v14.437a5 5 0 005 5h14.48c-.167 1.143-.28 2.302-.28 3.49 0 11.677 8.235 21.453 19.2 23.859a4.07 4.07 0 01-4.07 4.07H41.656a5 5 0 01-5-5V29.437a5 5 0 015-5H73.55a5 5 0 015 5V32zM60.378 48.875h-11.74a5 5 0 01-5-5v-7.456a5 5 0 015-5h19.623a3.306 3.306 0 013.306 3.306c-5.331 3.095-9.391 8.133-11.19 14.15zM34.91 3.49h45.384a5.243 5.243 0 015.237 5.237v5.236H29.674V8.728A5.243 5.243 0 0134.91 3.49zM26.183 58.6a8.669 8.669 0 01-3.491.747c-4.813 0-8.728-3.915-8.728-8.728 0-4.812 3.915-8.727 8.728-8.727 1.2 0 2.39.261 3.49.747V58.6zm-7.364 11.22l-.85-3.402-.355-.934-1.993-.81-3.767 2.263-5.478-5.48L8.64 57.69l-.873-2.13-4.275-1.066v-7.747l4.27-1.066.878-2.13-2.263-3.769 5.478-5.479 3.767 2.262 2.13-.865 1.067-4.28h7.365v7.514a12.134 12.134 0 00-3.491-.532c-6.738 0-12.219 5.482-12.219 12.218s5.48 12.22 12.218 12.22c1.185 0 2.358-.192 3.49-.532v7.514H18.82zm61.475 34.911H34.911a5.243 5.243 0 01-5.237-5.237v-.237a5 5 0 015-5h50.857v5.237a5.243 5.243 0 01-5.237 5.237zm5.237-18.965a5 5 0 01-5 5H34.674a5 5 0 01-5-5V17.455h55.857V31.51c-.58-.042-1.156-.09-1.746-.09-.59 0-1.166.048-1.745.09v-5.563a5 5 0 00-5-5H38.165a5 5 0 00-5 5v56.33a5 5 0 005 5H77.04a5 5 0 005-5v-2.07c.58.041 1.155.088 1.745.088.59 0 1.166-.047 1.746-.089v5.562zm-1.746-8.964c-6.257 0-11.867-2.773-15.71-7.137V68.29a5.232 5.232 0 013.966-5.081l7.16-1.789a3.747 3.747 0 002.839-3.635v-1.151c0-.622-.33-1.196-.868-1.508-1.642-.957-2.623-2.642-2.623-4.506v-3.13c0-2.895 2.093-5.344 4.763-5.576 1.498-.12 2.917.35 4.011 1.354a5.253 5.253 0 011.699 3.861v3.491c0 1.864-.981 3.549-2.624 4.506a1.744 1.744 0 00-.867 1.508v1.151c0 1.72 1.17 3.219 2.838 3.635l7.16 1.789a5.232 5.232 0 013.966 5.081v1.376c-3.842 4.364-9.452 7.137-15.71 7.137z" fill="#F8FFFF"/><path d="M64.585 8.728a1.746 1.746 0 113.491 0 1.746 1.746 0 01-3.491 0zm-17.456 0c0-.964.781-1.746 1.745-1.746h10.474a1.746 1.746 0 010 3.491H48.874a1.746 1.746 0 01-1.745-1.745zm3.491 90.767c0-.964.782-1.746 1.746-1.746h10.473a1.746 1.746 0 010 3.492H52.366a1.746 1.746 0 01-1.746-1.746zm24.438 0a1.746 1.746 0 113.49 0 1.746 1.746 0 01-3.49 0zm-38.402 0a1.746 1.746 0 113.491 0 1.746 1.746 0 01-3.49 0zm3.492-41.893c0-.964.781-1.745 1.745-1.745h12.219a1.746 1.746 0 010 3.491H41.893a1.746 1.746 0 01-1.745-1.745zm0 6.983c0-.964.781-1.746 1.745-1.746h12.219a1.746 1.746 0 010 3.491H41.893a1.746 1.746 0 01-1.745-1.745zm0 6.982c0-.964.781-1.746 1.745-1.746h12.219a1.746 1.746 0 010 3.491H41.893a1.746 1.746 0 01-1.745-1.745zm0 6.982c0-.964.781-1.746 1.745-1.746h12.219a1.746 1.746 0 010 3.491H41.893a1.746 1.746 0 01-1.745-1.745zM97.75 31.42a5.243 5.243 0 005.236-5.237 5.15 5.15 0 00-.791-2.75c-1.124-1.791-2.7-3.577-2.7-5.691V8.728a1.746 1.746 0 10-3.491 0v9.014c0 2.114-1.576 3.9-2.7 5.69a5.154 5.154 0 00-.791 2.75 5.243 5.243 0 005.236 5.237zm0-6.983c.961 0 1.745.782 1.745 1.746 0 .963-.784 1.745-1.746 1.745a1.747 1.747 0 01-1.745-1.745c0-.964.783-1.746 1.745-1.746zM96.004 1.746a1.746 1.746 0 113.49 0 1.746 1.746 0 01-3.49 0zM17.455 76.803a5.243 5.243 0 00-5.236 5.237c0 1.011.29 1.953.79 2.75 1.125 1.79 2.7 3.577 2.7 5.69v9.015a1.746 1.746 0 003.492 0v-9.014c0-2.114 1.576-3.9 2.7-5.69.5-.798.79-1.74.79-2.751a5.243 5.243 0 00-5.236-5.237zm0 6.982a1.747 1.747 0 01-1.745-1.745c0-.964.784-1.746 1.745-1.746.962 0 1.746.782 1.746 1.746 0 .963-.784 1.745-1.746 1.745zm-1.745 22.692a1.745 1.745 0 113.49 0 1.745 1.745 0 01-3.49 0z" fill="#F8FFFF"/></svg>