<svg width="109" height="109" fill="none" xmlns="http://www.w3.org/2000/svg"><path d="M0 72.667a9.075 9.075 0 0014.085 7.572L28.75 94.905a9.08 9.08 0 008.01 14.071 9.077 9.077 0 008.462-7.25H63.75a9.088 9.088 0 004.634 6.21 9.076 9.076 0 007.74.373 9.07 9.07 0 005.21-5.735 9.084 9.084 0 00-1.113-7.669l7.9-7.9-2.568-2.569-7.9 7.9a9.074 9.074 0 00-13.904 5.757H45.223a9.103 9.103 0 00-3.91-5.766l1.057-2.64-3.373-1.35-1.055 2.638a9.034 9.034 0 00-6.621 1.363L16.655 77.672a9.034 9.034 0 001.362-6.622l13.535-5.413-1.349-3.373-13.54 5.414a9.103 9.103 0 00-5.766-3.91V45.243a9.103 9.103 0 005.766-3.909l13.538 5.415 1.349-3.372-13.535-5.415a9.034 9.034 0 00-1.363-6.622l11.306-11.306-2.567-2.568L14.085 28.77a9.079 9.079 0 10-6.82 16.472V63.77A9.096 9.096 0 000 72.667zM72.647 94.46a5.449 5.449 0 11-5.448 5.448 5.455 5.455 0 015.448-5.448zm-36.323 0a5.448 5.448 0 110 10.896 5.448 5.448 0 010-10.896zM3.632 36.343a5.448 5.448 0 115.449 5.449 5.455 5.455 0 01-5.449-5.449zm5.449 30.875a5.448 5.448 0 11-5.449 5.449 5.455 5.455 0 015.449-5.449zm99.89-30.875a9.079 9.079 0 00-4.778-7.999 9.075 9.075 0 00-9.307.426L80.22 14.105a9.08 9.08 0 10-16.471-6.82H45.223a9.09 9.09 0 10-7.28 10.75l1.054 2.637 3.373-1.349-1.057-2.64a9.103 9.103 0 003.91-5.766H63.75a9.104 9.104 0 003.91 5.766l-1.783 4.456 3.372 1.35 1.782-4.455c2.3.42 4.673-.068 6.621-1.362l14.666 14.666a9.035 9.035 0 00-1.362 6.621L77.42 43.373l1.349 3.373 13.537-5.415a9.104 9.104 0 005.767 3.911V63.77a9.103 9.103 0 00-5.767 3.909l-5.364-2.146-1.35 3.373 5.363 2.144a9.034 9.034 0 001.362 6.622l-3.587 3.587 2.569 2.568 3.587-3.587a9.079 9.079 0 106.819-16.471V45.242a9.095 9.095 0 007.265-8.899zM36.324 14.55a5.448 5.448 0 115.448-5.45 5.455 5.455 0 01-5.448 5.449zm36.323 0a5.448 5.448 0 115.449-5.45 5.455 5.455 0 01-5.449 5.449zm32.691 58.118a5.446 5.446 0 01-6.511 5.343 5.448 5.448 0 116.511-5.343zM99.89 41.792a5.448 5.448 0 110-10.897 5.448 5.448 0 010 10.897zm-61.75-3.633v41.772a3.637 3.637 0 003.632 3.633H61.75v3.632H41.772a7.273 7.273 0 01-7.265-7.265V38.16h3.633zm41.772 43.589v-19.85a7.214 7.214 0 00-2.128-5.136l-3.32-3.321v13.025l3.1 3.1-2.569 2.569-3.632-3.633-6.137-6.136a2.036 2.036 0 10-2.88 2.88l6.137 6.136a1.817 1.817 0 01.227 2.292 9.49 9.49 0 00-.59 9.486l.703 1.408c.126.252.192.53.192.812v1.816h-3.633V85.81l-.512-1.025a13.134 13.134 0 01.054-11.823l-5.146-5.147a5.67 5.67 0 018.017-8.016l3.036 3.035V30.895a3.636 3.636 0 00-3.632-3.633h-4.326l-1.315 2.629a1.816 1.816 0 01-1.624 1.004H49.037a1.817 1.817 0 01-1.624-1.004l-1.315-2.629h-4.326a3.636 3.636 0 00-3.632 3.633v3.632h-3.633v-3.632a7.273 7.273 0 017.265-7.265H67.2a7.273 7.273 0 017.264 7.265v17.409l5.89 5.89a10.825 10.825 0 013.191 7.704v19.85h-3.632zm-29.059-5.449h7.265v3.632h-7.265V76.3zm7.797-22.326a5.896 5.896 0 00-8.329 0l-2.569-2.569a9.533 9.533 0 0113.466 0l-2.568 2.569zm5.448-4.567a13.595 13.595 0 00-19.225 0l-2.569-2.569a17.246 17.246 0 0124.363 0l-2.569 2.569zm-7.797 10.547v3.633H52.67v-3.633h3.633zm-10.897 0h3.633v3.633h-3.633v-3.633z" fill="#F8FFFF"/></svg>