<svg width="109" height="102" fill="none" xmlns="http://www.w3.org/2000/svg"><path d="M102.985 101.241H92.512a5.244 5.244 0 01-5.237-5.237V73.312a5.243 5.243 0 015.237-5.236h10.473a5.241 5.241 0 015.237 5.236v22.692a5.244 5.244 0 01-5.237 5.237zM92.512 71.567a1.747 1.747 0 00-1.746 1.745v22.692a1.748 1.748 0 001.746 1.745h10.473a1.747 1.747 0 001.746-1.745V73.312a1.75 1.75 0 00-1.746-1.745H92.512z" fill="#F8FFFF"/><path d="M97.749 96.004a1.746 1.746 0 100-3.491 1.746 1.746 0 000 3.491zm-1.746-20.946a1.746 1.746 0 103.491 0 1.746 1.746 0 00-3.491 0zM3.49 69.821h-.005l4.493 20.946L3.49 69.821zm4.488 20.946v.027c.177-.018.356-.027.537-.027h-.537zM3.49 69.821h-.005l4.493 20.946L3.49 69.821zm4.488 20.946v.027c.177-.018.356-.027.537-.027h-.537z" fill="#F8FFFF"/><path d="M61.54 90.767H40.18c0-.245-.026-.49-.078-.73l-4.49-20.947a3.51 3.51 0 00-3.413-2.76H3.49a3.49 3.49 0 00-3.412 4.222l4.488 20.946c.058.27.149.533.27.782a5.235 5.235 0 003.68 8.961H61.54a5.237 5.237 0 000-10.474zM32.2 69.822l4.488 20.947H14.41L9.918 69.82H32.2zm-28.714 0h2.943c0 .246.027.49.079.731l4.33 20.215H8.516c-.181 0-.36.01-.537.027v-.026L3.486 69.82zm31.87 27.929H8.517a1.745 1.745 0 110-3.492h26.84a1.745 1.745 0 110 3.492zm26.184 0H40.292a5.21 5.21 0 000-3.492H61.54a1.745 1.745 0 110 3.492z" fill="#F8FFFF"/><path d="M79.421 89.022a4.364 4.364 0 00-4.364 4.364v.46a4.543 4.543 0 002.527 4.087 1.746 1.746 0 01-.781 3.308h-5.237a1.746 1.746 0 01-1.745-1.746v-.726c0-.563.456-1.02 1.02-1.02.775 0 1.281-.844 1.06-1.588a8.062 8.062 0 01-.335-2.315 4.824 4.824 0 00-4.824-4.824H45.383a1.746 1.746 0 010-3.491H82.04a1.746 1.746 0 010 3.49h-2.618zm20.073-26.183a1.746 1.746 0 11-3.491 0V47.566a2.184 2.184 0 00-2.182-2.182h-51.93a5.242 5.242 0 00-5.236 5.236v10.474a1.746 1.746 0 01-3.49 0V50.62a8.738 8.738 0 018.727-8.727h51.93a5.68 5.68 0 015.672 5.673v15.273zm-17.455 15.71H43.637a1.746 1.746 0 000 3.49H82.04a1.746 1.746 0 100-3.49zM19.2 27.928c0 .757.034 1.514.104 2.267.05.55-.332 1.052-.88 1.126l-1.478.197a.972.972 0 01-1.106-.86l-.006-.063c-.067-.713-.818-1.162-1.423-.78a12.224 12.224 0 006.534 22.55h6.982a1.746 1.746 0 110 3.492h-6.982A15.712 15.712 0 0115.23 25.51c.365-.143.626-.472.673-.861A27.965 27.965 0 0142.636.019a.973.973 0 011.001.982v1.491c0 .552-.447.997-.999 1.02A24.464 24.464 0 0019.2 27.929z" fill="#F8FFFF"/><path d="M99.057 36.467c.227.938-.462 1.816-1.42 1.935-.954.12-1.813-.563-2.069-1.49a12.23 12.23 0 00-11.783-8.984c-.512.001-1.024.035-1.532.1a1.745 1.745 0 01-1.961-1.756l.002-.087a6.98 6.98 0 00-11.008-5.703 1.745 1.745 0 01-2.651-.834A24.504 24.504 0 0043.638 3.491V0a28.017 28.017 0 0125.52 16.567 10.476 10.476 0 0114.48 7.87h.147a15.724 15.724 0 0115.272 12.03z" fill="#F8FFFF"/></svg>