<svg width="234" height="54" viewBox="0 0 234 54" fill="none" xmlns="http://www.w3.org/2000/svg">
<circle cx="121" cy="26.9992" r="14" fill="#1E959B"/>
<circle cx="102.216" cy="7.39376" r="4.5" transform="rotate(-44.5242 102.216 7.39376)" fill="#1E959B"/>
<circle cx="140.783" cy="46.6063" r="4.5" transform="rotate(-44.5242 140.783 46.6063)" fill="#1E959B"/>
<path fill-rule="evenodd" clip-rule="evenodd" d="M6.99805 33C10.3118 33 12.998 30.3137 12.998 27C12.998 26.9767 12.9979 26.9535 12.9977 26.9303C21.4836 25.0869 38.7175 23.6227 61.9055 27.9915C89.5762 33.2048 111.556 30.1705 119.137 27.9805L118.859 27.0197C111.44 29.163 89.6199 32.1954 62.0906 27.0087C38.9233 22.6439 21.603 24.0588 12.9026 25.928C12.3972 23.1258 9.94585 21 6.99805 21C3.68434 21 0.998047 23.6863 0.998047 27C0.998047 30.3137 3.68434 33 6.99805 33Z" fill="#1E959B" fill-opacity="0.25"/>
<path fill-rule="evenodd" clip-rule="evenodd" d="M227.999 33C231.312 33 233.999 30.3137 233.999 27C233.999 23.6863 231.312 21 227.999 21C224.685 21 221.999 23.6863 221.999 27C221.999 27.5652 222.077 28.1121 222.223 28.6305C212.055 30.3825 193.457 31.5937 171.091 27.3798C143.429 22.1682 124.103 25.1964 117.833 27.3995L118.164 28.3429C124.228 26.2126 143.368 23.1742 170.906 28.3625C193.513 32.6217 212.321 31.376 222.582 29.5831C223.547 31.6039 225.61 33 227.999 33Z" fill="#1E959B" fill-opacity="0.25"/>
<circle cx="121" cy="27" r="26.5" stroke="#1E959B" stroke-opacity="0.15"/>
</svg>
